<svg width="314" height="310" viewBox="0 0 314 310" fill="none" xmlns="http://www.w3.org/2000/svg">
<path d="M116.68 8.95581L94.8219 31.7054L72.8532 159.948H278.921L116.68 8.95581Z" fill="#FFCF2D"/>
<path d="M94.6342 31.5265L116.559 8.70553L112.892 4.59632C107.491 -1.45434 97.7599 -0.763519 92.149 5.04893C86.5381 10.8733 85.5551 21.3667 90.9561 27.4173L94.6342 31.5265Z" fill="white"/>
<path d="M94.6231 32.0268L117.022 8.71742L113.124 4.34617C110.495 1.3923 106.751 -0.144182 102.576 0.010658C98.5772 0.165498 94.6894 1.90447 91.906 4.78687C89.1227 7.66927 87.3665 11.8023 87.0793 16.114C86.7811 20.6043 88.0734 24.7016 90.7021 27.6555L94.6231 32.0268ZM116.095 8.6936L94.6452 31.0143L91.1991 27.1672C88.6919 24.3682 87.4769 20.4614 87.7531 16.1735C88.0292 12.0286 89.7081 8.07424 92.381 5.31094C95.0539 2.54765 98.776 0.880144 102.609 0.737215C106.585 0.582375 110.152 2.0474 112.649 4.84642L116.095 8.6936Z" fill="#FFCF2D"/>
<path d="M90.9671 27.7746C91.0554 27.7746 91.1328 27.7388 91.199 27.6793L113.135 4.85826C113.267 4.71533 113.267 4.50093 113.146 4.358C113.013 4.21507 112.803 4.21507 112.682 4.34609L90.7462 27.1671C90.6136 27.31 90.6136 27.5244 90.7351 27.6674C90.7903 27.7388 90.8787 27.7746 90.9671 27.7746Z" fill="#FFCF2D"/>
<path d="M48.5985 159.329C48.6426 159.329 48.6868 159.317 48.731 159.293C48.8967 159.21 48.974 158.995 48.8967 158.817L18.1362 84.8272L78.2765 5.88269V5.87078C79.4142 4.20327 81.082 3.1313 82.9817 2.83353C84.8814 2.53577 86.7702 3.07175 88.2944 4.33429L90.7464 6.35912C90.89 6.47823 91.0998 6.4544 91.2103 6.28765C91.3207 6.13281 91.2986 5.90651 91.144 5.7874L88.692 3.76257C87.0242 2.39283 84.9588 1.80921 82.8823 2.1308C80.8058 2.45239 78.9834 3.61964 77.7464 5.44199L17.3631 84.72L17.4514 84.9225L48.3003 159.115C48.3555 159.246 48.477 159.329 48.5985 159.329Z" fill="#3FB1B5"/>
<path d="M18.7325 88.8174C16.8659 88.8174 15.3527 87.1857 15.3527 85.1728C15.3527 83.1599 16.8659 81.5281 18.7325 81.5281C20.5991 81.5281 22.1123 83.1599 22.1123 85.1728C22.1123 87.1857 20.5991 88.8174 18.7325 88.8174Z" fill="white"/>
<path d="M18.7324 89.1748C20.7758 89.1748 22.4436 87.3763 22.4436 85.1728C22.4436 82.9693 20.7758 81.1708 18.7324 81.1708C16.6891 81.1708 15.0213 82.9693 15.0213 85.1728C15.0213 87.3763 16.6891 89.1748 18.7324 89.1748ZM18.7324 81.8854C20.4113 81.8854 21.7809 83.3624 21.7809 85.1728C21.7809 86.9832 20.4113 88.4602 18.7324 88.4602C17.0536 88.4602 15.684 86.9832 15.684 85.1728C15.684 83.3624 17.0536 81.8854 18.7324 81.8854Z" fill="#FFCF2D"/>
<path d="M57.1695 150.682H40.7012C35.9629 150.682 32.1303 154.827 32.1303 159.924V160.186H65.7515V159.924C65.7404 154.827 61.9078 150.682 57.1695 150.682Z" fill="white"/>
<path d="M31.7989 160.544H66.0828V159.925C66.0717 154.636 62.0734 150.324 57.1694 150.324H40.7012C35.7972 150.324 31.7989 154.636 31.7989 159.925V160.544V160.544ZM65.4201 159.829H32.4616C32.5058 154.97 36.1838 151.039 40.7012 151.039H57.1694C61.6758 151.039 65.3648 154.97 65.4201 159.829Z" fill="#FFCF2D"/>
<path d="M136.948 133.137H241.202C245.123 133.137 248.293 129.719 248.293 125.49V46.8556C248.293 42.6273 245.123 39.2089 241.202 39.2089H136.948C133.027 39.2089 129.857 42.6273 129.857 46.8556V125.478C129.846 129.707 133.027 133.137 136.948 133.137Z" fill="white"/>
<path d="M136.948 133.494H241.202C245.3 133.494 248.624 129.909 248.624 125.49V46.8556C248.624 42.4367 245.3 38.8516 241.202 38.8516H136.948C132.85 38.8516 129.525 42.4367 129.525 46.8556V125.478C129.514 127.611 130.287 129.623 131.69 131.136C133.093 132.661 134.96 133.494 136.948 133.494ZM241.202 39.5662C244.924 39.5662 247.962 42.8417 247.962 46.8556V125.49C247.962 129.504 244.924 132.78 241.202 132.78H136.948C135.136 132.78 133.435 132.017 132.154 130.636C130.884 129.254 130.177 127.42 130.188 125.478V46.8556C130.188 42.8417 133.225 39.5662 136.948 39.5662H241.202Z" fill="#3FB1B5"/>
<path d="M136.881 125.824H240.131C241.666 125.824 242.903 124.478 242.903 122.834V47.6059C242.903 45.9503 241.655 44.6163 240.131 44.6163H136.881C135.346 44.6163 134.109 45.9622 134.109 47.6059V122.822C134.098 124.478 135.346 125.824 136.881 125.824Z" fill="#66B0F0"/>
<path d="M136.881 126.181H240.13C241.842 126.181 243.234 124.68 243.234 122.834V47.606C243.234 45.7598 241.842 44.259 240.13 44.259H136.881C135.169 44.259 133.778 45.7598 133.778 47.606V122.822C133.767 123.716 134.087 124.561 134.672 125.193C135.269 125.824 136.042 126.181 136.881 126.181ZM240.13 44.9737C241.478 44.9737 242.571 46.1528 242.571 47.606V122.834C242.571 124.287 241.478 125.467 240.13 125.467H136.881C136.23 125.467 135.611 125.193 135.147 124.692C134.683 124.192 134.44 123.537 134.44 122.834V47.606C134.44 46.1528 135.534 44.9737 136.881 44.9737H240.13Z" fill="#66B0F0"/>
<path d="M236.43 52.0011H238.065C238.783 52.0011 239.368 51.3698 239.368 50.5956V48.8328C239.368 48.0586 238.783 47.4274 238.065 47.4274H236.43C235.712 47.4274 235.127 48.0586 235.127 48.8328V50.5956C235.138 51.3817 235.712 52.0011 236.43 52.0011ZM238.065 48.142C238.419 48.142 238.706 48.4517 238.706 48.8328V50.5956C238.706 50.9768 238.419 51.2865 238.065 51.2865H236.43C236.077 51.2865 235.801 50.9768 235.79 50.5837V48.8328C235.79 48.4517 236.077 48.142 236.43 48.142H238.065V48.142Z" fill="white"/>
<path d="M228.997 52.0011H230.632C231.35 52.0011 231.935 51.3698 231.935 50.5956V48.8328C231.935 48.0586 231.35 47.4274 230.632 47.4274H228.997C228.279 47.4274 227.694 48.0586 227.694 48.8328V50.5956C227.694 51.3698 228.279 52.0011 228.997 52.0011ZM230.632 48.142C230.985 48.142 231.272 48.4517 231.272 48.8328V50.5956C231.272 50.9768 230.985 51.2865 230.632 51.2865H228.997C228.644 51.2865 228.356 50.9768 228.356 50.5956V48.8328C228.356 48.4517 228.644 48.142 228.997 48.142H230.632Z" fill="white"/>
<path d="M221.564 52.0011H223.198C223.916 52.0011 224.502 51.3698 224.502 50.5956V48.8328C224.502 48.0586 223.916 47.4274 223.198 47.4274H221.564C220.846 47.4274 220.26 48.0586 220.26 48.8328V50.5956C220.26 51.3698 220.846 52.0011 221.564 52.0011ZM223.198 48.142C223.552 48.142 223.839 48.4517 223.839 48.8328V50.5956C223.839 50.9768 223.552 51.2865 223.198 51.2865H221.564C221.199 51.2865 220.923 50.9887 220.923 50.5956V48.8328C220.923 48.4517 221.21 48.142 221.564 48.142H223.198Z" fill="white"/>
<path d="M167.068 159.948H207.537L199.595 133.137H175.02L167.068 159.948Z" fill="white"/>
<path d="M166.615 160.306H207.99L199.838 132.78H174.777L166.615 160.306ZM207.084 159.591H167.521L175.263 133.495H199.353L207.084 159.591Z" fill="#3FB1B5"/>
<path d="M204.356 149.217L199.596 133.137H175.02L204.356 149.217Z" fill="#3FB1B5"/>
<path d="M142.89 69.6409H162.561C164.582 69.6409 166.228 67.8662 166.228 65.6865V51.9892C166.228 49.8095 164.582 48.0348 162.561 48.0348H142.89C140.869 48.0348 139.223 49.8095 139.223 51.9892V65.6865C139.223 67.8662 140.869 69.6409 142.89 69.6409ZM162.561 48.7494C164.218 48.7494 165.565 50.2025 165.565 51.9892V65.6865C165.565 67.4731 164.218 68.9263 162.561 68.9263H142.89C141.233 68.9263 139.886 67.4731 139.886 65.6865V51.9892C139.886 50.2025 141.233 48.7494 142.89 48.7494H162.561Z" fill="white"/>
<path d="M145.265 53.6329H160.275C160.463 53.6329 160.606 53.478 160.606 53.2755C160.606 53.0731 160.463 52.9182 160.275 52.9182H145.265C145.077 52.9182 144.933 53.0731 144.933 53.2755C144.933 53.478 145.077 53.6329 145.265 53.6329Z" fill="white"/>
<path d="M145.265 57.3252H160.275C160.463 57.3252 160.606 57.1704 160.606 56.9679C160.606 56.7654 160.463 56.6106 160.275 56.6106H145.265C145.077 56.6106 144.933 56.7654 144.933 56.9679C144.933 57.1704 145.077 57.3252 145.265 57.3252Z" fill="white"/>
<path d="M145.265 61.0176H160.275C160.463 61.0176 160.606 60.8628 160.606 60.6603C160.606 60.4578 160.463 60.303 160.275 60.303H145.265C145.077 60.303 144.933 60.4578 144.933 60.6603C144.933 60.8628 145.077 61.0176 145.265 61.0176Z" fill="white"/>
<path d="M145.265 64.7098H160.275C160.463 64.7098 160.606 64.5549 160.606 64.3524C160.606 64.15 160.463 63.9951 160.275 63.9951H145.265C145.077 63.9951 144.933 64.15 144.933 64.3524C144.933 64.5549 145.077 64.7098 145.265 64.7098Z" fill="white"/>
<path d="M137.456 125.824H215.644L220.228 132.911C225.408 140.915 236.353 141.034 241.677 133.137L269.599 91.7234C268.428 93.2956 263.071 91.5447 257.969 87.9239C252.789 84.2434 249.442 79.6102 250.491 77.895L231.129 104.504L225.198 93.2122C223.574 90.2226 220.879 88.0787 217.743 87.2926L197.563 82.6831H180.167L160.993 87.245C157.657 88.0668 154.83 90.4132 153.228 93.6648L137.456 125.824Z" fill="white"/>
<path d="M231.03 139.343C235.392 139.343 239.369 137.163 241.942 133.34L269.864 91.926L269.334 91.4972C268.395 92.7478 263.414 91.3662 258.145 87.6262C255.693 85.8872 253.562 83.8743 252.148 81.9448C250.867 80.2058 250.347 78.7646 250.767 78.0857L250.226 77.6688L231.173 103.861L225.485 93.0337C223.817 89.9607 221.023 87.7453 217.82 86.9473L197.596 82.3259H180.134L180.101 82.3378L160.927 86.8997C157.503 87.7453 154.587 90.1513 152.941 93.4982L136.915 126.181H215.478L219.962 133.113C222.492 137.02 226.479 139.295 230.908 139.343C230.941 139.343 230.985 139.343 231.03 139.343ZM268.583 92.6168L241.401 132.923C238.927 136.591 235.105 138.676 230.897 138.628C226.689 138.58 222.9 136.425 220.493 132.708L215.81 125.467H137.997L153.515 93.8317C155.073 90.6635 157.823 88.3885 161.059 87.5905L180.2 83.0406H197.53L217.676 87.6381C220.702 88.4004 223.342 90.4967 224.911 93.391L231.085 105.147L250.016 79.1338C250.171 80.0271 250.712 81.1468 251.64 82.3974C253.098 84.3746 255.285 86.447 257.792 88.2218C261.293 90.6992 265.501 92.6525 268.008 92.6525C268.207 92.6525 268.406 92.6406 268.583 92.6168Z" fill="#3FB1B5"/>
<path d="M158.916 125.693C159.038 125.693 159.148 125.622 159.215 125.503L164.77 113.675C164.848 113.496 164.792 113.282 164.627 113.199C164.461 113.115 164.262 113.175 164.185 113.354L158.629 125.181C158.552 125.36 158.607 125.574 158.773 125.657C158.817 125.681 158.861 125.693 158.916 125.693Z" fill="#3FB1B5"/>
<path d="M216.086 126.801C216.141 126.801 216.185 126.789 216.24 126.765C216.406 126.682 216.472 126.455 216.384 126.289L210.883 114.58C210.806 114.402 210.596 114.33 210.442 114.425C210.276 114.509 210.21 114.735 210.298 114.902L215.798 126.61C215.854 126.729 215.964 126.801 216.086 126.801Z" fill="#3FB1B5"/>
<path d="M226.059 111.912C226.159 111.912 226.258 111.865 226.325 111.769L238.927 94.3915C239.037 94.2367 239.015 94.0104 238.872 93.8912C238.728 93.7721 238.518 93.796 238.408 93.9508L225.805 111.329C225.695 111.483 225.717 111.71 225.861 111.829C225.916 111.888 225.993 111.912 226.059 111.912Z" fill="#3FB1B5"/>
<path d="M182.1 94.9991L186.949 88.6268C187.07 88.472 187.048 88.2456 186.905 88.1265C186.761 87.9955 186.551 88.0193 186.441 88.1742L182.012 93.9747L171.883 84.7081C171.74 84.5771 171.53 84.6009 171.419 84.7439C171.298 84.8987 171.32 85.125 171.452 85.2441L182.1 94.9991Z" fill="#3FB1B5"/>
<path d="M194.692 95.2254L206.366 85.2561C206.51 85.137 206.532 84.9107 206.421 84.7559C206.311 84.601 206.101 84.5772 205.957 84.6963L194.813 94.213L190.516 88.2933C190.406 88.1385 190.196 88.1147 190.053 88.2338C189.909 88.3529 189.887 88.5792 189.997 88.734L194.692 95.2254Z" fill="#3FB1B5"/>
<path d="M264.286 98.1553C265.335 98.1553 265.888 97.8099 266.164 97.4288C266.274 97.2739 266.252 97.0476 266.109 96.9285C265.965 96.8094 265.755 96.8332 265.645 96.9881C265.181 97.6193 263.668 97.5836 261.602 96.9166C259.404 96.2019 256.753 94.7965 254.346 93.0694C251.883 91.3066 249.74 89.2699 248.315 87.3165C247.023 85.5537 246.504 84.1006 246.923 83.4098C247.023 83.243 246.979 83.0286 246.824 82.9095C246.669 82.8023 246.47 82.85 246.36 83.0167C245.764 84.0053 246.272 85.6847 247.785 87.7572C249.254 89.7582 251.452 91.8545 253.97 93.653C256.466 95.4397 259.106 96.8451 261.403 97.5955C262.651 98.0005 263.59 98.1553 264.286 98.1553Z" fill="#3FB1B5"/>
<path d="M250.115 86.59C250.988 86.59 251.695 85.8277 251.695 84.8867C251.695 83.9458 250.988 83.1835 250.115 83.1835C249.243 83.1835 248.536 83.9458 248.536 84.8867C248.536 85.8277 249.243 86.59 250.115 86.59ZM250.115 83.8981C250.623 83.8981 251.032 84.3388 251.032 84.8867C251.032 85.4346 250.623 85.8753 250.115 85.8753C249.607 85.8753 249.199 85.4346 249.199 84.8867C249.199 84.3388 249.607 83.8981 250.115 83.8981Z" fill="#3FB1B5"/>
<path d="M188.484 95.0466C189.357 95.0466 190.063 94.2843 190.063 93.3434C190.063 92.4024 189.357 91.6401 188.484 91.6401C187.611 91.6401 186.905 92.4024 186.905 93.3434C186.905 94.2843 187.611 95.0466 188.484 95.0466ZM188.484 92.3548C188.992 92.3548 189.401 92.7955 189.401 93.3434C189.401 93.8913 188.992 94.332 188.484 94.332C187.976 94.332 187.567 93.8913 187.567 93.3434C187.567 92.7955 187.976 92.3548 188.484 92.3548Z" fill="#3FB1B5"/>
<path d="M188.484 105.885C189.357 105.885 190.063 105.123 190.063 104.182C190.063 103.241 189.357 102.479 188.484 102.479C187.611 102.479 186.905 103.241 186.905 104.182C186.905 105.123 187.611 105.885 188.484 105.885ZM188.484 103.193C188.992 103.193 189.401 103.634 189.401 104.182C189.401 104.73 188.992 105.171 188.484 105.171C187.976 105.171 187.567 104.73 187.567 104.182C187.567 103.634 187.976 103.193 188.484 103.193Z" fill="#3FB1B5"/>
<path d="M220.625 133.483L215.644 125.824V133.483H220.625Z" fill="#3FB1B5"/>
<path d="M258.09 87.5667C263.193 91.1875 268.55 92.9384 269.72 91.3662C269.743 91.3424 269.754 91.3186 269.776 91.2828C270.019 90.8898 269.997 90.3538 269.776 89.6987C269.014 87.5429 265.866 84.2078 261.867 81.3731C258.686 79.11 255.55 77.5378 253.374 77.0495C252.115 76.7755 251.176 76.8589 250.723 77.383L250.612 77.5259C249.574 79.2411 252.91 83.8863 258.09 87.5667Z" fill="#FE5244"/>
<path d="M258.09 87.5666C260.995 89.6272 263.988 91.0922 266.241 91.6639L276.325 76.3229C277.728 74.1789 277.264 71.2132 275.265 69.7005L266.186 62.8161L271.333 53.3709C272.084 52.0011 271.653 50.2264 270.372 49.4284C269.952 49.1664 269.5 49.0472 269.047 49.0472C268.174 49.0472 267.313 49.5118 266.805 50.3693L250.712 77.3591L250.601 77.5497C249.574 79.241 252.91 83.8862 258.09 87.5666Z" fill="#E57281"/>
<path d="M263.337 76.5014C263.48 76.5014 263.624 76.4895 263.767 76.4538C264.32 76.3347 264.794 75.9774 265.093 75.4771L270.405 66.9014C270.505 66.7346 270.461 66.5202 270.317 66.4011C270.162 66.2939 269.964 66.3416 269.853 66.4964L264.54 75.0722C264.331 75.4176 264.01 75.6558 263.635 75.7392C263.259 75.8225 262.873 75.7392 262.552 75.5129L261.304 74.6315C260.642 74.1669 260.454 73.2141 260.873 72.4994L266.495 63.1019C266.595 62.9351 266.551 62.7207 266.396 62.6135C266.241 62.5063 266.043 62.554 265.943 62.7207L260.321 72.1183C259.703 73.1664 259.99 74.56 260.951 75.227L262.199 76.1084C262.53 76.3704 262.928 76.5014 263.337 76.5014Z" fill="#9A3B82"/>
<path d="M267.456 79.3481C268.141 79.3481 268.815 78.9907 269.223 78.3356C269.323 78.1689 269.279 77.9545 269.124 77.8354C268.969 77.7282 268.77 77.7758 268.66 77.9426C268.229 78.6453 267.346 78.8478 266.683 78.3952L265.545 77.621C265.225 77.3947 264.993 77.0493 264.916 76.6324C264.838 76.2155 264.905 75.7987 265.115 75.4533C265.214 75.2865 265.17 75.0721 265.015 74.953C264.86 74.8458 264.662 74.8934 264.551 75.0602C264.242 75.5724 264.132 76.1798 264.253 76.7872C264.375 77.3828 264.706 77.8949 265.181 78.2284L266.318 79.0026C266.672 79.229 267.07 79.3481 267.456 79.3481Z" fill="#9A3B82"/>
<path d="M271.499 82.0161C272.161 82.0161 272.813 81.6826 273.222 81.0513L276.237 76.4657C276.347 76.2989 276.303 76.0845 276.16 75.9654C276.016 75.8463 275.806 75.894 275.696 76.0488L272.68 80.6344C272.227 81.3134 271.377 81.492 270.736 81.0513L270.714 81.0394L269.665 80.4081C269.334 80.1818 269.113 79.8364 269.024 79.4315C268.936 79.0146 269.013 78.5977 269.223 78.2404L274.425 69.9029C274.525 69.7361 274.492 69.5217 274.337 69.4026C274.182 69.2954 273.984 69.3312 273.873 69.4979L268.671 77.8354C268.351 78.3595 268.251 78.9789 268.373 79.5744C268.494 80.1699 268.826 80.6821 269.312 81.0037L269.323 81.0156L270.372 81.6469C270.736 81.9089 271.123 82.0161 271.499 82.0161Z" fill="#9A3B82"/>
<path d="M254.467 71.0703L257.107 66.6514C257.98 65.1863 259.802 64.7814 261.139 65.7581L267.688 70.5462C267.688 70.5462 265.788 74.2266 261.172 71.3085L259.625 73.9646C262.784 76.1204 263.69 80.6584 261.636 84.0292L254.467 71.0703Z" fill="#E57281"/>
<path d="M261.636 84.3864C261.746 84.3864 261.845 84.3268 261.912 84.2197C262.95 82.5045 263.314 80.4559 262.906 78.4548C262.53 76.5729 261.525 74.9531 260.078 73.8573L261.282 71.7848C262.873 72.7258 264.32 72.9997 265.601 72.6305C267.224 72.1541 267.953 70.7724 267.987 70.7248L268.13 70.4389L261.68 65.5793C260.951 65.0553 260.089 64.8647 259.239 65.0553C258.388 65.2458 257.659 65.7818 257.184 66.5798L254.545 70.9987C254.445 71.1655 254.489 71.3799 254.644 71.4871C254.799 71.5943 254.998 71.5466 255.097 71.3799L257.737 66.961C258.112 66.3297 258.687 65.9009 259.371 65.758C260.045 65.6032 260.741 65.758 261.304 66.1749L267.235 70.6414C266.97 71.0106 266.374 71.6776 265.424 71.9516C264.253 72.297 262.884 71.9754 261.348 71.0106L261.072 70.832L259.184 74.0836L259.46 74.2742C260.907 75.2628 261.912 76.8112 262.276 78.6216C262.641 80.432 262.32 82.2901 261.371 83.8385C261.271 84.0052 261.315 84.2197 261.47 84.3388C261.514 84.3626 261.569 84.3864 261.636 84.3864Z" fill="#9A3B82"/>
<path d="M258.09 87.567C260.995 89.6275 263.988 91.0925 266.241 91.6643L268.749 87.8528C267.346 85.8756 264.839 83.4935 261.867 81.3853C258.687 79.1222 255.55 77.55 253.374 77.0617C252.115 76.7877 251.176 76.8711 250.723 77.3952L250.613 77.5381C250.602 77.5619 250.59 77.5738 250.579 77.5977C250.568 77.6096 250.568 77.6215 250.557 77.6453C250.546 77.6691 250.535 77.681 250.524 77.7049C249.773 79.5272 253.076 83.9937 258.09 87.567Z" fill="#9A3B82"/>
<path d="M180.179 72.2019V82.6715C180.179 85.7087 184.089 88.1623 188.893 88.1623C193.709 88.1623 197.608 85.7087 197.608 82.6715V72.2019H180.179Z" fill="#E57281"/>
<path d="M195.056 86.5544C196.636 85.5658 197.619 84.1841 197.619 82.6715V72.2019H180.178V75.1081C180.178 78.1215 181.879 80.8253 184.464 81.9568L195.056 86.5544Z" fill="#9A3B82"/>
<path d="M175.319 71.5827V71.7613C175.319 73.5718 176.677 75.0368 178.356 75.0368H180.355C181.029 77.9668 183.481 80.1465 186.419 80.1465H191.367C194.294 80.1465 196.757 77.9788 197.42 75.0368H199.419C201.098 75.0368 202.456 73.5718 202.456 71.7613V71.5827C202.456 69.7722 201.098 68.3072 199.419 68.3072H197.608V65.7226C197.608 62.9593 195.719 60.6724 193.256 60.2913C192.715 61.2679 191.08 63.6025 187.744 63.4714C186.176 63.4119 184.718 63.0903 183.514 62.7091C182.067 62.2565 180.62 63.2094 180.256 64.6982C180.2 65.0317 180.167 65.3652 180.167 65.7107V68.2953H178.356C176.688 68.2953 175.319 69.7722 175.319 71.5827Z" fill="#E57281"/>
<path d="M178.787 68.2952H180.178V65.4247C180.178 65.1746 180.212 64.9245 180.267 64.6982C180.631 63.2093 182.078 62.2565 183.525 62.7091C184.729 63.0902 186.176 63.4118 187.755 63.4714C191.091 63.6024 192.726 61.2679 193.267 60.2912C195.73 60.6723 197.619 62.9592 197.619 65.7225V68.3071H199.353C199.353 68.3071 201.341 60.5532 199.85 58.3616C198.381 56.2058 196.614 57.1467 196.614 57.1467C196.614 57.1467 197.674 50.6911 191.754 50.8102C185.845 50.9293 178.157 58.3259 177.594 59.6837C176.71 61.7681 178.787 68.2952 178.787 68.2952Z" fill="#9A3B82"/>
<path d="M179.505 72.4877C179.659 72.4877 179.781 72.3567 179.781 72.1899C179.781 70.7606 178.698 69.5934 177.373 69.5934C177.218 69.5934 177.097 69.7244 177.097 69.8912C177.097 70.0579 177.218 70.1889 177.373 70.1889C178.4 70.1889 179.229 71.0822 179.229 72.1899C179.229 72.3567 179.35 72.4877 179.505 72.4877Z" fill="#9A3B82"/>
<path d="M198.259 72.4877C198.414 72.4877 198.535 72.3567 198.535 72.1899C198.535 71.0822 199.364 70.1889 200.391 70.1889C200.545 70.1889 200.667 70.0579 200.667 69.8912C200.667 69.7244 200.545 69.5934 200.391 69.5934C199.065 69.5934 197.983 70.7606 197.983 72.1899C197.983 72.3567 198.105 72.4877 198.259 72.4877Z" fill="#9A3B82"/>
<path d="M182.962 66.0201C183.017 66.0201 183.072 65.9963 183.127 65.9606C183.183 65.9129 184.607 64.8291 186.43 65.6509C186.573 65.7105 186.728 65.639 186.794 65.4842C186.85 65.3293 186.783 65.1626 186.64 65.0911C184.519 64.1501 182.873 65.4127 182.807 65.4722C182.686 65.5675 182.652 65.7581 182.752 65.8891C182.796 65.9725 182.873 66.0201 182.962 66.0201Z" fill="#9A3B82"/>
<path d="M194.935 66.0199C195.023 66.0199 195.1 65.9723 195.155 65.9008C195.244 65.7698 195.222 65.5792 195.1 65.484C195.034 65.4244 193.377 64.1619 191.268 65.1028C191.124 65.1624 191.058 65.341 191.113 65.4959C191.168 65.6507 191.334 65.7222 191.477 65.6626C193.311 64.8408 194.758 65.9604 194.78 65.9723C194.824 65.9961 194.879 66.0199 194.935 66.0199Z" fill="#9A3B82"/>
<path d="M188.197 76.0489C188.628 76.0489 189.125 75.9536 189.688 75.7273C189.832 75.6678 189.909 75.501 189.854 75.3462C189.799 75.1914 189.644 75.108 189.5 75.1675C187.181 76.0966 186.419 74.4529 186.386 74.3814C186.319 74.2385 186.154 74.167 186.021 74.2385C185.889 74.3099 185.822 74.4886 185.889 74.6315C185.9 74.6554 186.529 76.0489 188.197 76.0489Z" fill="#9A3B82"/>
<path d="M188.981 73.8099C189.235 73.8099 189.512 73.8099 189.743 73.786C189.898 73.7741 190.009 73.6312 189.998 73.4645C189.986 73.2977 189.854 73.1786 189.699 73.1905C189.048 73.2382 188.043 73.1905 188.031 73.1905C187.877 73.1786 187.755 73.3096 187.744 73.4764C187.733 73.6431 187.855 73.7741 188.009 73.786C188.031 73.786 188.484 73.8099 188.981 73.8099Z" fill="#9A3B82"/>
<path d="M184.74 70.6891C184.435 70.6891 184.188 70.2412 184.188 69.6886C184.188 69.1361 184.435 68.6881 184.74 68.6881C185.045 68.6881 185.292 69.1361 185.292 69.6886C185.292 70.2412 185.045 70.6891 184.74 70.6891Z" fill="#9A3B82"/>
<path d="M192.659 70.6891C192.354 70.6891 192.107 70.2412 192.107 69.6886C192.107 69.1361 192.354 68.6881 192.659 68.6881C192.964 68.6881 193.212 69.1361 193.212 69.6886C193.212 70.2412 192.964 70.6891 192.659 70.6891Z" fill="#9A3B82"/>
<path d="M191.345 73.3573H194.824C195.641 73.3573 196.315 72.6308 196.315 71.7494V67.9975C196.315 67.1161 195.641 66.3895 194.824 66.3895H191.345C190.528 66.3895 189.854 67.1161 189.854 67.9975V71.7494C189.843 72.1662 189.997 72.5712 190.274 72.869C190.561 73.1906 190.936 73.3573 191.345 73.3573ZM194.824 66.9851C195.343 66.9851 195.763 67.4377 195.763 67.9975V71.7494C195.763 72.3092 195.343 72.7618 194.824 72.7618H191.345C191.091 72.7618 190.848 72.6546 190.671 72.4521C190.494 72.2615 190.406 72.0114 190.406 71.7494V67.9975C190.406 67.4377 190.826 66.9851 191.345 66.9851H194.824Z" fill="white"/>
<path d="M182.829 73.3573H186.308C187.126 73.3573 187.8 72.6308 187.8 71.7494V67.9975C187.8 67.1161 187.126 66.3895 186.308 66.3895H182.829C182.012 66.3895 181.338 67.1161 181.338 67.9975V71.7494C181.338 72.6308 182.012 73.3573 182.829 73.3573ZM186.308 66.9851C186.828 66.9851 187.247 67.4377 187.247 67.9975V71.7494C187.247 72.3092 186.828 72.7618 186.308 72.7618H182.829C182.31 72.7618 181.89 72.3092 181.89 71.7494V67.9975C181.89 67.4377 182.31 66.9851 182.829 66.9851H186.308Z" fill="white"/>
<path d="M187.523 68.8669H190.119V69.4625H187.523V68.8669Z" fill="white"/>
<path d="M193.984 121.56H181.912C180.631 121.56 179.593 120.44 179.593 119.059V112.138C179.593 110.757 180.631 109.637 181.912 109.637H193.984C195.266 109.637 196.304 110.757 196.304 112.138V119.059C196.304 120.44 195.266 121.56 193.984 121.56ZM181.912 110.352C180.995 110.352 180.255 111.15 180.255 112.138V119.059C180.255 120.047 180.995 120.845 181.912 120.845H193.984C194.901 120.845 195.641 120.047 195.641 119.059V112.138C195.641 111.15 194.901 110.352 193.984 110.352H181.912Z" fill="#66B0F0"/>
<path d="M188.252 118.416H184.165C183.514 118.416 182.983 117.844 182.983 117.141V114.056C182.983 113.353 183.514 112.782 184.165 112.782H188.252C188.904 112.782 189.434 113.353 189.434 114.056V117.141C189.434 117.844 188.904 118.416 188.252 118.416Z" fill="#66B0F0"/>
<path d="M192.228 118.332L190.969 117.427C190.627 117.177 190.417 116.748 190.417 116.283V114.925C190.417 114.461 190.627 114.032 190.969 113.782L192.228 112.877C192.526 112.662 192.913 112.901 192.913 113.306V117.915C192.924 118.308 192.526 118.546 192.228 118.332Z" fill="#66B0F0"/>
<path d="M20.4554 160.544H313.669C313.856 160.544 314 160.389 314 160.187C314 159.984 313.856 159.829 313.669 159.829H20.4554C20.2677 159.829 20.1241 159.984 20.1241 160.187C20.1241 160.389 20.2677 160.544 20.4554 160.544Z" fill="#3FB1B5"/>
<path d="M219.266 162.271V309.321H226.965V281.331C226.965 278.722 228.931 276.602 231.35 276.602H286.454C288.872 276.602 290.838 278.722 290.838 281.331V309.321H298.537V162.271H219.266Z" fill="white"/>
<path d="M218.935 309.678H227.296V281.331C227.296 278.925 229.119 276.96 231.35 276.96H286.454C288.685 276.96 290.507 278.925 290.507 281.331V309.678H298.868V161.914H218.935V309.678V309.678ZM226.633 308.964H219.598V162.628H298.205V308.964H291.17V281.331C291.17 278.532 289.049 276.245 286.454 276.245H231.35C228.754 276.245 226.633 278.532 226.633 281.331V308.964Z" fill="#3FB1B5"/>
<path d="M219.035 162.271V201.29L298.537 271.885L298.526 162.271H219.035Z" fill="#D0F0E4"/>
<path d="M231.118 204.971H286.674C289.148 204.971 291.159 202.803 291.159 200.135V173.467C291.159 170.799 289.148 168.631 286.674 168.631H231.118C228.644 168.631 226.633 170.799 226.633 173.467V200.135C226.633 202.803 228.644 204.971 231.118 204.971ZM286.674 169.346C288.784 169.346 290.496 171.192 290.496 173.467V200.135C290.496 202.41 288.784 204.256 286.674 204.256H231.118C229.008 204.256 227.296 202.41 227.296 200.135V173.467C227.296 171.192 229.008 169.346 231.118 169.346H286.674Z" fill="#3FB1B5"/>
<path d="M244.77 224.814H272.117L273.255 216.369H245.896L244.77 224.814Z" fill="#FFCF2D"/>
<path d="M230.179 211.498C233.592 211.498 236.353 214.476 236.353 218.156V224.814H259.625V218.156C259.625 214.476 256.864 211.498 253.451 211.498H230.179Z" fill="white"/>
<path d="M236.022 225.172H259.957V218.156C259.957 214.285 257.041 211.141 253.451 211.141H230.179V211.856C233.404 211.856 236.022 214.678 236.022 218.156V225.172ZM259.294 224.457H236.685V218.156C236.685 215.393 235.194 212.999 233.04 211.856H253.451C256.676 211.856 259.294 214.678 259.294 218.156V224.457Z" fill="#3FB1B5"/>
<path d="M224.38 216.37H247.652C248.37 213.559 250.767 211.498 253.605 211.498H230.334C227.495 211.498 225.109 213.559 224.38 216.37Z" fill="white"/>
<path d="M223.938 216.727H247.895L247.962 216.465C248.657 213.749 250.977 211.856 253.594 211.856V211.141H230.323C227.418 211.141 224.833 213.249 224.049 216.274L223.938 216.727ZM247.409 216.012H224.833C225.662 213.547 227.871 211.856 230.334 211.856H250.745C249.187 212.677 247.95 214.166 247.409 216.012Z" fill="#3FB1B5"/>
<path d="M231.118 260.796H286.674C289.148 260.796 291.159 258.629 291.159 255.961V229.293C291.159 226.625 289.148 224.457 286.674 224.457H231.118C228.644 224.457 226.633 226.625 226.633 229.293V255.961C226.633 258.629 228.644 260.796 231.118 260.796ZM286.674 225.171C288.784 225.171 290.496 227.018 290.496 229.293V255.961C290.496 258.236 288.784 260.082 286.674 260.082H231.118C229.008 260.082 227.296 258.236 227.296 255.961V229.293C227.296 227.018 229.008 225.171 231.118 225.171H286.674Z" fill="#3FB1B5"/>
<path d="M247.509 186.628C247.697 186.628 247.84 186.473 247.84 186.271C247.84 184.341 249.287 182.781 251.076 182.781H266.705C268.494 182.781 269.941 184.341 269.941 186.271C269.941 186.473 270.085 186.628 270.273 186.628C270.46 186.628 270.604 186.473 270.604 186.271C270.604 183.948 268.859 182.066 266.705 182.066H251.076C248.923 182.066 247.177 183.948 247.177 186.271C247.177 186.473 247.321 186.628 247.509 186.628Z" fill="#3FB1B5"/>
<path d="M247.509 242.454C247.697 242.454 247.84 242.299 247.84 242.097C247.84 240.167 249.287 238.607 251.076 238.607H266.705C268.494 238.607 269.941 240.167 269.941 242.097C269.941 242.299 270.085 242.454 270.273 242.454C270.46 242.454 270.604 242.299 270.604 242.097C270.604 239.774 268.859 237.892 266.705 237.892H251.076C248.923 237.892 247.177 239.774 247.177 242.097C247.177 242.299 247.321 242.454 247.509 242.454Z" fill="#3FB1B5"/>
<path d="M32.1302 162.271H40.3367V309.643H32.1302V162.271Z" fill="white"/>
<path d="M31.7988 310H40.668V161.914H31.7988V310ZM40.0053 309.285H32.4615V162.628H40.0053V309.285Z" fill="#3FB1B5"/>
<path d="M0.331399 310H171.596C171.784 310 171.927 309.845 171.927 309.643C171.927 309.44 171.784 309.286 171.596 309.286H0.331399C0.143633 309.286 4.75176e-05 309.44 4.75176e-05 309.643C4.75176e-05 309.845 0.143633 310 0.331399 310Z" fill="#3FB1B5"/>
<path d="M275.232 139.974H280.191C280.191 139.974 287.271 108.16 293.489 107.124C299.708 106.088 300.028 118.332 300.028 118.332C300.028 118.332 299.917 99.7155 284.377 102.264C268.826 104.813 275.232 139.974 275.232 139.974Z" fill="white"/>
<path d="M274.956 140.331H280.446L280.512 140.057C280.534 139.974 282.312 132.018 284.82 124.049C288.972 110.864 291.855 107.755 293.534 107.481C294.683 107.291 295.699 107.577 296.538 108.339C299.465 110.959 299.686 118.273 299.686 118.344L300.349 118.332C300.349 118.237 300.327 116.057 299.675 113.27C299.068 110.685 297.786 107.077 295.102 104.599C292.374 102.086 288.752 101.181 284.311 101.919C281.44 102.384 279.109 103.98 277.375 106.636C274.592 110.912 273.322 117.832 273.62 127.23C273.841 134.197 274.879 139.986 274.89 140.045L274.956 140.331ZM279.927 139.617H275.497C275.288 138.366 274.47 133.221 274.283 127.194C274.084 120.845 274.559 112.21 277.916 107.053C279.54 104.551 281.727 103.063 284.411 102.634C288.641 101.943 292.098 102.789 294.672 105.159C295.445 105.874 296.108 106.695 296.66 107.565C295.721 106.85 294.639 106.6 293.424 106.803C290.718 107.255 287.603 112.996 284.179 123.859C281.937 130.993 280.269 138.14 279.927 139.617Z" fill="#3FB1B5"/>
<path d="M277.408 139.855C277.584 139.855 277.739 139.7 277.739 139.498C278.103 115.783 282.764 107.41 286.608 104.575C289.524 102.419 292.075 103.396 292.098 103.408C292.274 103.479 292.462 103.384 292.528 103.194C292.595 103.003 292.506 102.801 292.329 102.729C292.208 102.681 289.436 101.621 286.233 103.98C283.759 105.814 281.737 109.173 280.235 113.985C278.302 120.178 277.242 128.754 277.076 139.486C277.076 139.688 277.22 139.855 277.408 139.855Z" fill="#3FB1B5"/>
<path d="M261.724 139.498H285.018V159.948H261.724V139.498Z" fill="#FE5244"/>
<path d="M256.819 149.729C258.299 150.42 260.067 150.336 261.712 149.562C262.927 148.99 264.076 148.049 265.004 146.763C266.285 144.976 267.146 142.535 267.146 139.497C267.146 132.137 272.581 127.515 274.812 137.258C274.966 137.937 275.11 138.676 275.231 139.497V139.474V139.426C275.231 139.402 275.231 139.366 275.22 139.331V139.283C275.176 138.676 275.011 136.877 274.502 134.709C274.127 133.101 273.564 131.315 272.724 129.659C272.304 128.837 271.819 128.051 271.244 127.348C269.764 125.514 267.732 124.228 264.96 124.228C259.857 124.228 256.123 130.707 254.699 137.163C253.451 142.773 253.959 148.383 256.819 149.729Z" fill="white"/>
<path d="M258.995 150.551C259.934 150.551 260.917 150.324 261.845 149.884C263.159 149.264 264.341 148.264 265.269 146.977C266.716 144.965 267.478 142.368 267.478 139.498C267.478 136.139 268.848 132.351 270.891 132.089C272.371 131.898 273.674 133.816 274.492 137.342C274.657 138.08 274.79 138.795 274.911 139.557L275.574 139.498V139.426C275.574 139.402 275.574 139.343 275.563 139.283V139.247C275.519 138.58 275.342 136.794 274.834 134.614C274.381 132.685 273.774 130.958 273.023 129.481C272.548 128.563 272.051 127.777 271.498 127.11C269.764 124.954 267.566 123.871 264.96 123.871C259.658 123.871 255.825 130.505 254.379 137.08C253.738 139.974 253.561 142.821 253.893 145.096C254.257 147.656 255.229 149.36 256.687 150.05C257.394 150.384 258.178 150.551 258.995 150.551ZM271.09 131.362C270.99 131.362 270.902 131.374 270.814 131.386C268.605 131.672 266.815 135.317 266.815 139.509C266.815 142.225 266.097 144.667 264.739 146.561C263.877 147.752 262.784 148.681 261.58 149.252C260 149.991 258.311 150.05 256.952 149.419C254.478 148.252 253.694 143.261 255.019 137.27C255.759 133.899 257.073 130.791 258.708 128.516C260.553 125.955 262.706 124.609 264.96 124.609C267.356 124.609 269.389 125.621 270.99 127.611C271.509 128.254 271.984 128.98 272.426 129.862C272.978 130.958 273.453 132.184 273.84 133.542C273.652 133.209 273.464 132.911 273.266 132.649C272.481 131.613 271.686 131.362 271.09 131.362Z" fill="#3FB1B5"/>
<path d="M258.001 150.313C258.167 150.313 258.311 150.182 258.333 149.991C259.945 133.661 263.623 128.611 266.418 127.253C268.914 126.038 271.024 127.623 271.046 127.634C271.189 127.754 271.399 127.706 271.51 127.551C271.62 127.396 271.576 127.17 271.432 127.051C271.333 126.979 268.991 125.217 266.153 126.598C264.275 127.515 262.64 129.588 261.304 132.78C259.625 136.77 258.41 142.535 257.681 149.908C257.659 150.098 257.792 150.277 257.979 150.301C257.979 150.313 257.99 150.313 258.001 150.313Z" fill="#3FB1B5"/>
<path d="M300.359 118.332C300.359 120.297 300.569 127.813 293.92 128.159C287.271 128.504 286.608 117.677 286.608 117.677C286.608 117.677 289.878 108.101 293.489 107.124C299.597 105.469 300.359 118.332 300.359 118.332Z" fill="#3FB1B5"/>
<path d="M267.147 139.498H275.232C273.365 126.884 267.147 131.625 267.147 139.498Z" fill="#3FB1B5"/>
<path opacity="0.4" d="M129.846 46.8556V125.479C129.846 129.707 133.027 133.125 136.937 133.125H220.382C225.618 140.903 236.409 140.939 241.688 133.125L241.699 133.113C243.798 132.958 245.653 131.803 246.846 130.1L244.924 128.313L195.884 82.6712L149.186 39.2089H136.937C133.027 39.2089 129.846 42.6392 129.846 46.8556Z" fill="white"/>
<path opacity="0.4" d="M256.82 150.086C258.289 150.801 260.067 150.693 261.713 149.919V159.948H278.91L264.993 147.001L261.702 143.94L259.194 141.606L254.346 137.163C252.932 143.666 253.716 148.55 256.82 150.086Z" fill="white"/>
<path d="M110.374 203.005V269.301H124.578L133.623 242.061L146.579 203.005H110.374Z" fill="#A0505A"/>
<path d="M146.579 203.005H110.374V224.29L142.272 215.976L146.579 203.005Z" fill="#73325A"/>
<path d="M110.042 269.658H124.81L134.231 241.286L133.458 241.739C133.436 241.751 131.602 242.811 127.869 243.335C124.423 243.823 118.591 243.931 110.451 241.703L110.042 241.596V269.658V269.658ZM124.346 268.943H110.705V242.513C118.768 244.669 124.556 244.538 128.013 244.05C130.52 243.692 132.177 243.109 133.049 242.728L124.346 268.943Z" fill="white"/>
<path d="M126.234 248.814C127.306 248.814 128.178 247.873 128.178 246.718C128.178 245.562 127.306 244.621 126.234 244.621C125.163 244.621 124.29 245.562 124.29 246.718C124.29 247.873 125.163 248.814 126.234 248.814ZM126.234 245.336C126.941 245.336 127.516 245.955 127.516 246.718C127.516 247.48 126.941 248.099 126.234 248.099C125.527 248.099 124.953 247.48 124.953 246.718C124.953 245.955 125.527 245.336 126.234 245.336Z" fill="white"/>
<path d="M118.547 254.424C119.618 254.424 120.491 253.483 120.491 252.328C120.491 251.172 119.618 250.231 118.547 250.231C117.475 250.231 116.603 251.172 116.603 252.328C116.603 253.483 117.475 254.424 118.547 254.424ZM118.547 250.946C119.254 250.946 119.828 251.565 119.828 252.328C119.828 253.09 119.254 253.709 118.547 253.709C117.84 253.709 117.266 253.09 117.266 252.328C117.266 251.565 117.84 250.946 118.547 250.946Z" fill="white"/>
<path d="M112.826 248.195C113.897 248.195 114.77 247.254 114.77 246.098C114.77 244.943 113.897 244.002 112.826 244.002C111.754 244.002 110.882 244.943 110.882 246.098C110.882 247.254 111.754 248.195 112.826 248.195ZM112.826 244.717C113.533 244.717 114.107 245.336 114.107 246.098C114.107 246.861 113.533 247.48 112.826 247.48C112.119 247.48 111.545 246.861 111.545 246.098C111.545 245.336 112.119 244.717 112.826 244.717Z" fill="white"/>
<path d="M115.09 260.951C116.161 260.951 117.034 260.01 117.034 258.855C117.034 257.699 116.161 256.758 115.09 256.758C114.019 256.758 113.146 257.699 113.146 258.855C113.146 260.01 114.019 260.951 115.09 260.951ZM115.09 257.473C115.797 257.473 116.371 258.092 116.371 258.855C116.371 259.617 115.797 260.236 115.09 260.236C114.383 260.236 113.809 259.617 113.809 258.855C113.809 258.092 114.383 257.473 115.09 257.473Z" fill="white"/>
<path d="M124.622 257.783C125.693 257.783 126.566 256.842 126.566 255.687C126.566 254.531 125.693 253.59 124.622 253.59C123.55 253.59 122.678 254.531 122.678 255.687C122.678 256.842 123.55 257.783 124.622 257.783ZM124.622 254.305C125.329 254.305 125.903 254.924 125.903 255.687C125.903 256.449 125.329 257.068 124.622 257.068C123.915 257.068 123.34 256.449 123.34 255.687C123.34 254.924 123.915 254.305 124.622 254.305Z" fill="white"/>
<path d="M121.993 267.311C123.064 267.311 123.937 266.371 123.937 265.215C123.937 264.06 123.064 263.119 121.993 263.119C120.922 263.119 120.049 264.06 120.049 265.215C120.049 266.371 120.922 267.311 121.993 267.311ZM121.993 263.834C122.7 263.834 123.274 264.453 123.274 265.215C123.274 265.977 122.7 266.597 121.993 266.597C121.286 266.597 120.712 265.977 120.712 265.215C120.712 264.453 121.286 263.834 121.993 263.834Z" fill="white"/>
<path d="M103.658 281.664L113.4 303.473C114.781 306.986 117.973 309.273 121.518 309.273H133.944C137.125 309.273 139.058 305.795 137.843 302.627L125.351 270.135C124.655 268.157 123.429 266.514 121.894 265.358C120.347 264.203 118.492 263.548 116.537 263.548C113.82 263.548 111.125 265.537 109.335 267.74L105.006 272.779C103.007 275.232 102.488 278.675 103.658 281.664Z" fill="#66B0F0"/>
<path d="M103.658 281.664L113.4 303.473C114.781 306.986 117.973 309.273 121.518 309.273H134.728C135.954 309.273 136.65 308.451 137.059 307.32H134.121C130.575 307.32 127.383 305.033 126.002 301.519L114.77 276.256C113.72 273.898 111.5 272.385 109.07 272.385C105.9 272.385 103.493 274.887 103.051 278.055C103.007 279.27 103.205 280.497 103.658 281.664Z" fill="white"/>
<path d="M121.518 309.63H134.728C135.954 309.63 136.849 308.892 137.368 307.451C137.412 307.344 137.39 307.213 137.335 307.117C137.268 307.022 137.169 306.963 137.059 306.963H134.121C130.708 306.963 127.637 304.771 126.312 301.376C126.312 301.376 126.312 301.364 126.301 301.364L115.068 276.102C113.963 273.624 111.611 272.028 109.07 272.028C105.878 272.028 103.205 274.541 102.719 278.008C102.719 278.019 102.719 278.031 102.719 278.043C102.675 279.33 102.885 280.604 103.349 281.807C103.349 281.807 103.349 281.819 103.36 281.819L113.102 303.616C114.538 307.272 117.84 309.63 121.518 309.63ZM136.539 307.677C136.12 308.523 135.534 308.916 134.728 308.916H121.518C118.105 308.916 115.035 306.724 113.709 303.33C113.709 303.33 113.709 303.318 113.698 303.318L103.957 281.521C103.537 280.425 103.338 279.27 103.382 278.091C103.824 274.994 106.21 272.743 109.07 272.743C111.357 272.743 113.477 274.184 114.471 276.411L125.704 301.662C127.14 305.319 130.443 307.677 134.121 307.677H136.539Z" fill="#66B0F0"/>
<path d="M105.901 271.73C107.071 271.04 108.485 270.539 109.722 270.539C112.097 270.539 114.295 272.028 115.322 274.339L126.953 300.495C128.433 304.271 131.857 306.712 135.667 306.712H137.81C137.92 306.486 137.998 306.248 138.075 305.998H135.667C132.122 305.998 128.941 303.723 127.56 300.209L127.549 300.197L115.908 274.029C114.77 271.468 112.34 269.825 109.711 269.825C108.872 269.825 107.867 270.122 107.005 270.444L105.901 271.73Z" fill="white"/>
<path d="M146.579 203.005L149.352 242.061L150.589 259.558C150.589 259.558 158.663 269.253 167.852 263.274L172.104 242.073L181.835 193.56C184.464 180.446 176.158 167.69 163.821 165.915L146.579 203.005Z" fill="#A0505A"/>
<path d="M161.634 266.049C163.611 266.049 165.787 265.513 168.018 264.06L168.139 263.977L172.535 241.561L172.005 241.739C161.545 245.122 149.55 241.763 149.429 241.727L148.976 241.596L150.257 260.189L150.335 260.284C150.423 260.38 152.433 262.774 155.625 264.465C157.227 265.299 159.303 266.049 161.634 266.049ZM167.554 263.524C163.887 265.858 159.977 265.954 155.934 263.822C153.195 262.369 151.296 260.32 150.909 259.879L149.716 242.525C150.721 242.775 153.328 243.383 156.697 243.716C160.573 244.109 166.262 244.205 171.674 242.585L167.554 263.524Z" fill="white"/>
<path d="M162.043 253.221C163.114 253.221 163.987 252.28 163.987 251.125C163.987 249.969 163.114 249.029 162.043 249.029C160.971 249.029 160.099 249.969 160.099 251.125C160.099 252.28 160.971 253.221 162.043 253.221ZM162.043 249.743C162.75 249.743 163.324 250.363 163.324 251.125C163.324 251.887 162.75 252.507 162.043 252.507C161.336 252.507 160.761 251.887 160.761 251.125C160.761 250.363 161.336 249.743 162.043 249.743Z" fill="white"/>
<path d="M151.793 250.553C152.864 250.553 153.737 249.612 153.737 248.457C153.737 247.302 152.864 246.361 151.793 246.361C150.721 246.361 149.849 247.302 149.849 248.457C149.849 249.612 150.721 250.553 151.793 250.553ZM151.793 247.075C152.5 247.075 153.074 247.695 153.074 248.457C153.074 249.219 152.5 249.839 151.793 249.839C151.086 249.839 150.511 249.219 150.511 248.457C150.511 247.695 151.086 247.075 151.793 247.075Z" fill="white"/>
<path d="M168.228 248.195C169.299 248.195 170.172 247.254 170.172 246.098C170.172 244.943 169.299 244.002 168.228 244.002C167.156 244.002 166.284 244.943 166.284 246.098C166.284 247.254 167.156 248.195 168.228 248.195ZM168.228 244.717C168.935 244.717 169.509 245.336 169.509 246.098C169.509 246.861 168.935 247.48 168.228 247.48C167.521 247.48 166.946 246.861 166.946 246.098C166.946 245.336 167.521 244.717 168.228 244.717Z" fill="white"/>
<path d="M163.655 262.69C164.726 262.69 165.599 261.749 165.599 260.594C165.599 259.438 164.726 258.498 163.655 258.498C162.584 258.498 161.711 259.438 161.711 260.594C161.711 261.749 162.584 262.69 163.655 262.69ZM163.655 259.212C164.362 259.212 164.936 259.832 164.936 260.594C164.936 261.356 164.362 261.975 163.655 261.975C162.948 261.975 162.374 261.356 162.374 260.594C162.374 259.832 162.948 259.212 163.655 259.212Z" fill="white"/>
<path d="M156.133 259.212C157.205 259.212 158.077 258.271 158.077 257.116C158.077 255.961 157.205 255.02 156.133 255.02C155.062 255.02 154.19 255.961 154.19 257.116C154.19 258.271 155.062 259.212 156.133 259.212ZM156.133 255.734C156.84 255.734 157.415 256.354 157.415 257.116C157.415 257.878 156.84 258.498 156.133 258.498C155.427 258.498 154.852 257.878 154.852 257.116C154.852 256.354 155.427 255.734 156.133 255.734Z" fill="white"/>
<path d="M139.941 263.727L150.589 309.643H153.946C154.101 309.643 154.245 309.631 154.399 309.619C156.94 309.369 159.082 307.058 159.623 304.33L167.863 263.25C158.674 269.241 150.589 259.546 150.589 259.546L139.941 263.727Z" fill="#66B0F0"/>
<path d="M139.4 287.286C137.158 274.518 136.539 264.763 140.405 263.977C144.271 263.191 151.152 271.659 153.394 284.428C155.636 297.196 154.465 308.488 150.6 309.274C146.734 310.072 141.642 300.067 139.4 287.286Z" fill="white"/>
<path d="M150.158 309.679C150.323 309.679 150.5 309.667 150.666 309.631C152.676 309.226 154.079 306.296 154.62 301.389C155.139 296.66 154.819 290.609 153.725 284.368C152.687 278.472 150.578 272.981 147.783 268.908C145.221 265.18 142.437 263.203 140.35 263.632C138.34 264.036 137.346 266.49 137.29 271.135C137.246 274.923 137.832 280.223 139.08 287.358C139.963 292.384 141.3 297.113 142.945 301.031C144.569 304.902 146.347 307.618 148.081 308.892C148.788 309.405 149.484 309.679 150.158 309.679ZM140.924 264.287C142.691 264.287 145.066 266.169 147.242 269.337C149.981 273.327 152.047 278.711 153.074 284.499C154.156 290.681 154.476 296.648 153.968 301.305C153.471 305.808 152.223 308.583 150.544 308.928C149.904 309.059 149.197 308.845 148.446 308.297C145.055 305.808 141.465 297.148 139.731 287.227C138.483 280.152 137.909 274.887 137.953 271.147C137.997 266.955 138.848 264.668 140.471 264.334C140.615 264.299 140.77 264.287 140.924 264.287Z" fill="#66B0F0"/>
<path d="M154.94 284.225C156.1 290.847 156.443 297.244 155.89 302.246C155.493 305.843 154.653 308.404 153.505 309.643H153.946C154.101 309.643 154.245 309.631 154.399 309.619C155.438 308.142 156.178 305.664 156.553 302.329C157.116 297.267 156.774 290.788 155.592 284.094C154.477 277.758 152.223 271.814 149.23 267.348C147.441 264.68 145.563 262.81 143.851 261.964L142.857 262.321C146.8 263.584 152.787 271.969 154.94 284.225Z" fill="white"/>
<path d="M163.82 165.904L113.433 160.306L63.0673 175.54L63.4981 182.757C64.1828 194.144 73.284 203.006 83.8651 203.006H146.568L163.82 165.904Z" fill="#FE5244"/>
<path d="M86.0853 198.361H148.788C148.976 198.361 149.119 198.206 149.119 198.004C149.119 197.801 148.976 197.646 148.788 197.646H86.0853C81.2917 197.646 76.2662 194.919 72.29 190.143C68.5236 185.617 66.2704 179.959 66.2704 175.016C66.2704 174.814 66.1268 174.659 65.9391 174.659C65.7513 174.659 65.6077 174.814 65.6077 175.016C65.6077 180.138 67.9272 185.974 71.793 190.631C75.9017 195.538 81.104 198.361 86.0853 198.361Z" fill="white"/>
<path d="M91.0223 192.406H151.328C151.516 192.406 151.66 192.251 151.66 192.048C151.66 191.846 151.516 191.691 151.328 191.691H91.0223C86.8362 191.691 82.5065 189.571 78.8506 185.712C75.4156 182.091 73.0078 177.422 72.2457 172.896C72.2125 172.705 72.0358 172.574 71.8591 172.61C71.6824 172.646 71.5609 172.836 71.594 173.027C73.1514 182.186 81.5125 192.406 91.0223 192.406Z" fill="white"/>
<path d="M96.335 186.331H154.531C154.719 186.331 154.863 186.176 154.863 185.974C154.863 185.771 154.719 185.616 154.531 185.616H96.335C88.3826 185.616 81.4794 177.898 79.0164 170.645C78.9501 170.454 78.7624 170.359 78.5967 170.43C78.42 170.502 78.3316 170.704 78.3979 170.883C79.7674 174.921 82.2415 178.72 85.3783 181.579C88.7913 184.687 92.5797 186.331 96.335 186.331Z" fill="white"/>
<path d="M99.2067 179.78H157.403C157.591 179.78 157.734 179.625 157.734 179.423C157.734 179.22 157.591 179.066 157.403 179.066H99.2067C93.7283 179.066 87.9849 175.218 84.2075 169.037C84.1081 168.87 83.8982 168.822 83.7436 168.93C83.589 169.037 83.5448 169.263 83.6442 169.43C87.5541 175.814 93.5074 179.78 99.2067 179.78Z" fill="white"/>
<path d="M101.968 173.825H160.164C160.352 173.825 160.496 173.67 160.496 173.468C160.496 173.265 160.352 173.11 160.164 173.11H101.968C97.7489 173.11 93.4965 171.014 89.9952 167.214C89.8627 167.071 89.6528 167.071 89.5313 167.214C89.3988 167.357 89.3988 167.584 89.5313 167.715C93.1541 171.657 97.5721 173.825 101.968 173.825Z" fill="white"/>
<path d="M104.95 167.75H163.146C163.334 167.75 163.478 167.595 163.478 167.393C163.478 167.19 163.334 167.036 163.146 167.036H104.95C102.465 167.036 99.9687 166.273 97.5167 164.784C97.362 164.689 97.1522 164.749 97.0638 164.916C96.9755 165.082 97.0307 165.309 97.1853 165.404C99.7367 166.964 102.354 167.75 104.95 167.75Z" fill="white"/>
<path d="M146.689 203.363C146.811 203.363 146.932 203.292 146.987 203.161L164.229 166.059C164.306 165.88 164.24 165.666 164.085 165.583C163.92 165.499 163.721 165.571 163.643 165.737L146.402 202.839C146.325 203.018 146.391 203.232 146.546 203.316C146.59 203.352 146.634 203.363 146.689 203.363Z" fill="white"/>
<path d="M60.3061 125.824C65.0555 127.277 69.7275 126.848 70.2246 125.288C70.6884 123.799 68.5899 121.25 64.3375 119.559C64.1277 119.476 63.9068 119.392 63.6859 119.309C62.4047 118.844 61.1234 118.547 59.9195 118.392C56.352 117.903 53.4471 118.594 53.0826 119.761C52.5856 121.322 55.2806 124.288 60.3061 125.824Z" fill="white"/>
<path d="M65.9612 127.075C68.369 127.075 70.1915 126.491 70.5449 125.407C71.1413 123.501 68.5237 120.845 64.4591 119.225C64.2492 119.142 64.0283 119.059 63.8074 118.975H63.7964C62.5483 118.523 61.256 118.213 59.9638 118.046C56.3079 117.546 53.2152 118.237 52.7734 119.654C52.6188 120.119 52.6961 120.69 52.9833 121.286C53.9111 123.192 56.7497 125.121 60.2178 126.181C62.217 126.777 64.2382 127.075 65.9612 127.075ZM57.6553 118.594C58.3291 118.594 59.0691 118.642 59.8754 118.749C61.1235 118.916 62.3716 119.213 63.5755 119.654C63.7964 119.738 64.0173 119.821 64.2161 119.904C66.1379 120.667 67.7726 121.679 68.8108 122.763C69.6834 123.668 70.0921 124.573 69.9043 125.181C69.5398 126.336 65.2875 126.979 60.3945 125.49C57.6885 124.669 54.5296 122.942 53.5687 120.952C53.3699 120.536 53.3036 120.166 53.392 119.88C53.5908 119.249 55.1592 118.594 57.6553 118.594Z" fill="#3FB1B5"/>
<path d="M63.3107 160.556H65.1331L69.9156 125.74V125.717L70.0371 124.847C69.8052 123.263 67.5078 121.024 63.4542 119.571C61.433 118.844 59.4228 118.523 57.7108 118.487L55.9657 123.644L55.8 124.133L50.2775 140.462C46.964 150.217 53.6683 160.556 63.3107 160.556Z" fill="#A0505A"/>
<path d="M55.8552 124.013C57.015 124.8 58.5171 125.526 60.3064 126.074C64.4152 127.325 68.5791 126.812 69.9156 125.74V125.717L70.0371 124.847C69.8052 123.263 67.5078 121.024 63.4542 119.571C61.433 118.844 59.4228 118.523 57.7108 118.487L55.8552 124.013Z" fill="#73325A"/>
<path d="M122.468 131.91L128.266 147.466C131.127 155.148 138.041 160.186 145.729 160.186H223.674V152.492C223.674 150.634 222.613 148.967 221.001 148.311L212.993 145.036C212.264 144.738 211.502 144.583 210.729 144.583H201.639L150.191 138.985L141.311 117.058L122.468 131.91Z" fill="#A0505A"/>
<path d="M223.342 155.744C223.53 155.744 223.674 155.589 223.674 155.386C223.674 153.826 222.801 152.456 221.442 151.897L215.401 149.431C215.235 149.36 215.036 149.455 214.97 149.634C214.904 149.812 214.992 150.027 215.158 150.098L221.199 152.564C222.293 153.016 223.011 154.124 223.011 155.386C223.011 155.589 223.154 155.744 223.342 155.744Z" fill="#73325A"/>
<path d="M223.342 159.674C223.53 159.674 223.674 159.519 223.674 159.317C223.674 157.757 222.801 156.387 221.442 155.827L215.401 153.362C215.235 153.29 215.036 153.385 214.97 153.564C214.904 153.743 214.992 153.957 215.158 154.029L221.199 156.494C222.293 156.947 223.011 158.054 223.011 159.317C223.011 159.519 223.154 159.674 223.342 159.674Z" fill="#73325A"/>
<path d="M221.321 160.187C221.454 160.187 221.586 160.091 221.63 159.948C221.697 159.758 221.608 159.555 221.432 159.496L215.39 157.149C215.213 157.078 215.025 157.173 214.97 157.364C214.904 157.554 214.992 157.757 215.169 157.816L221.211 160.163C221.244 160.175 221.288 160.187 221.321 160.187Z" fill="#73325A"/>
<path d="M215.909 146.358C215.909 146.358 210.254 130.791 208.442 131.053C206.631 131.315 213.457 145.358 213.457 145.358L215.909 146.358Z" fill="#FE5244"/>
<path d="M141.311 117.07L142.614 120.274L125.925 141.177L122.468 131.91L141.311 117.07Z" fill="#73325A"/>
<path d="M69.9152 125.753L63.0673 175.539L113.422 160.306L122.468 131.899L145.817 113.496L137.621 102.967C130.31 93.5697 119.519 88.1384 108.142 88.1384H91.9612C77.8898 88.1384 64.9339 96.4283 58.1854 109.745L52.939 119.535C52.939 119.535 54.5184 117.034 63.0342 119.547C70.5338 121.774 69.9152 125.753 69.9152 125.753Z" fill="#3FB1B5"/>
<path d="M122.468 132.03C122.49 132.03 122.523 132.03 122.545 132.018C122.722 131.97 122.832 131.779 122.788 131.589L120.17 119.345C120.126 119.154 119.949 119.035 119.773 119.083C119.596 119.13 119.485 119.321 119.53 119.511L122.147 131.756C122.18 131.922 122.313 132.03 122.468 132.03Z" fill="white"/>
<path d="M64.3376 164.272C64.4923 164.272 64.6358 164.153 64.669 163.974L73.1847 106.886C73.2179 106.695 73.0964 106.505 72.9086 106.481C72.7319 106.445 72.5552 106.576 72.5331 106.779L64.0173 163.867C63.9842 164.058 64.1057 164.248 64.2935 164.272C64.3045 164.272 64.3155 164.272 64.3376 164.272Z" fill="white"/>
<path d="M63.1776 175.897C63.2108 175.897 63.2329 175.897 63.266 175.885L113.521 160.424C113.698 160.365 113.797 160.174 113.753 159.984C113.698 159.793 113.521 159.686 113.344 159.734L63.0893 175.194C62.9126 175.253 62.8132 175.444 62.8574 175.635C62.9015 175.789 63.0341 175.897 63.1776 175.897Z" fill="white"/>
<path d="M110.716 80.1818V88.1858L97.6164 88.0667V73.9406L110.716 80.1818Z" fill="#A0505A"/>
<path d="M96.5561 71.4751V71.6895C96.5561 73.8334 98.0583 75.5724 100.046 75.5724H100.82C101.317 77.6925 105.735 80.1699 108.871 80.1699H112.527C116.526 80.1699 119.585 76.2989 118.933 72.0349L118.757 70.8795L119.839 70.2244C120.458 69.8433 120.634 68.9738 120.204 68.3545L117.862 65.0194L117.354 61.7321C116.945 59.0283 115.3 56.8248 113.113 55.741C112.251 66.2105 103.68 67.4492 101.416 67.5922H100.157C98.1687 67.5922 96.5561 69.3311 96.5561 71.4751Z" fill="#A0505A"/>
<path d="M102.355 72.8569C102.542 72.8569 102.686 72.7021 102.686 72.4996C102.686 70.6177 101.261 69.0812 99.516 69.0812C99.3283 69.0812 99.1847 69.236 99.1847 69.4385C99.1847 69.641 99.3283 69.7958 99.516 69.7958C100.897 69.7958 102.023 71.0107 102.023 72.4996C102.023 72.7021 102.167 72.8569 102.355 72.8569Z" fill="#73325A"/>
<path d="M114.328 67.6994C114.016 67.6994 113.764 67.0701 113.764 66.2939C113.764 65.5177 114.016 64.8884 114.328 64.8884C114.639 64.8884 114.891 65.5177 114.891 66.2939C114.891 67.0701 114.639 67.6994 114.328 67.6994Z" fill="#73325A"/>
<path d="M112.03 64.5192C112.13 64.5192 112.229 64.4716 112.295 64.3763C113.764 62.1847 115.134 62.3038 115.156 62.3038C115.344 62.3276 115.498 62.1847 115.521 61.9822C115.543 61.7916 115.41 61.613 115.222 61.5892C115.156 61.5772 113.455 61.4343 111.765 63.9475C111.655 64.1023 111.688 64.3286 111.843 64.4477C111.898 64.4954 111.964 64.5192 112.03 64.5192Z" fill="#73325A"/>
<path d="M101.416 67.5923H100.157C98.1685 67.5923 96.556 69.3312 96.556 71.4752V71.6896C96.556 73.8335 98.0581 75.5725 100.046 75.5725L100.897 76.2157C104.475 78.6931 109.423 88.4361 108.209 95.3324C106.839 103.086 100.576 104.813 94.7888 103.622C89.0011 102.431 84.7819 98.7984 86.1515 91.0326C86.3061 90.1155 86.5602 89.1984 86.8805 88.2932C86.7811 88.3289 86.6927 88.3646 86.5933 88.4004C79.6349 90.449 71.4616 90.6872 69.2084 84.8271C66.9552 78.967 67.4632 73.1665 74.2339 70.1412C78.1659 68.3784 83.5117 68.3903 87.6536 69.6052C85.5661 61.7798 89.2772 53.0731 96.0921 52.2036C106.795 50.8338 112.936 55.5981 113.101 55.7292C113.113 57.1108 112.24 66.9134 101.416 67.5923Z" fill="#73325A"/>
<path d="M86.5932 88.7696C86.7478 88.7696 86.8914 88.6505 86.9135 88.4837C88.0843 81.8733 93.0988 78.2286 93.154 78.1928C93.2424 78.1333 93.2976 78.0142 93.2976 77.8951C93.2976 77.776 93.2424 77.6688 93.154 77.5973C89.73 74.9889 88.25 71.225 87.6756 69.224C87.6204 69.0335 87.4326 68.9263 87.267 68.9858C87.0902 69.0454 86.9908 69.2479 87.0461 69.4265C87.6204 71.4513 89.0784 75.1675 92.4029 77.8832C91.1548 78.8956 87.3001 82.445 86.2618 88.3408C86.2287 88.5314 86.3502 88.722 86.5269 88.7577C86.549 88.7696 86.5711 88.7696 86.5932 88.7696Z" fill="white"/>
<path d="M84.373 69.4264H87.3C87.4878 69.4264 87.6313 69.2716 87.6313 69.0691V65.9127C87.6313 64.0666 86.2396 62.5658 84.5276 62.5658H84.373C82.661 62.5658 81.2693 64.0666 81.2693 65.9127V66.0795C81.2583 66.9609 81.5786 67.8065 82.164 68.4378C82.7494 69.0691 83.5336 69.4264 84.373 69.4264ZM86.9686 68.7118H84.373C83.7103 68.7118 83.1028 68.4378 82.6389 67.9256C82.1861 67.4254 81.932 66.7703 81.932 66.0795V65.9127C81.932 64.4596 83.0255 63.2804 84.373 63.2804H84.5276C85.8751 63.2804 86.9686 64.4596 86.9686 65.9127V68.7118Z" fill="#FE5244"/>
<path d="M82.7386 74.2622C83.9205 74.2622 85.0581 73.6428 85.7319 72.4994L87.6095 69.2835C87.7089 69.1167 87.6647 68.8904 87.5101 68.7951L84.5279 66.7703C83.7327 66.2343 82.7828 66.0556 81.8661 66.2819C80.9494 66.5083 80.1652 67.1038 79.6571 67.9614L79.4804 68.2591C78.9723 69.1167 78.8176 70.141 79.0275 71.1296C79.2374 72.1182 79.7896 72.9639 80.5849 73.5118L80.861 73.7024C81.4353 74.0716 82.087 74.2622 82.7386 74.2622ZM86.8695 69.2001L85.1686 72.1182C84.3291 73.5475 82.5509 73.9763 81.2034 73.0711L80.9273 72.8805C80.2756 72.4398 79.8338 71.7609 79.6681 70.951C79.5024 70.141 79.635 69.3192 80.0437 68.6165L80.2204 68.3187C80.629 67.616 81.2586 67.1395 82.0097 66.9609C82.7607 66.7822 83.5228 66.9251 84.1745 67.3658L86.8695 69.2001Z" fill="#FE5244"/>
<path d="M100.831 83.7909C100.908 83.7909 100.985 83.7909 101.062 83.779C101.891 83.7075 102.642 83.3026 103.183 82.6237L103.283 82.4926C103.824 81.8256 104.089 80.968 104.034 80.0867C103.978 79.1933 103.603 78.3715 102.973 77.7879L100.897 75.6439C100.831 75.5725 100.742 75.5367 100.654 75.5486C100.565 75.5486 100.477 75.5963 100.422 75.6678L98.3786 78.1571C97.8374 78.836 97.5612 79.7055 97.6275 80.5988C97.6938 81.4921 98.0693 82.3021 98.6989 82.8857L98.8314 82.9929C99.3726 83.5051 100.079 83.7909 100.831 83.7909ZM100.676 76.4062L102.509 78.3L102.52 78.312C103.017 78.7765 103.316 79.4196 103.36 80.1343C103.404 80.837 103.194 81.504 102.774 82.0281C102.774 82.0281 102.774 82.04 102.763 82.04L102.664 82.171C102.244 82.6951 101.659 83.0167 101.007 83.0763C100.356 83.1239 99.726 82.8976 99.229 82.445L99.0965 82.3259C98.6105 81.8733 98.3123 81.242 98.2571 80.5393C98.2129 79.8365 98.4227 79.1576 98.8424 78.6216L100.676 76.4062Z" fill="#FE5244"/>
<path d="M96.6002 82.4807C98.1465 82.4807 99.5713 81.373 100.013 79.6936L100.952 76.037C100.996 75.8464 100.897 75.6558 100.72 75.5963L97.3292 74.5839C96.4235 74.3099 95.4736 74.441 94.6563 74.9293C93.8389 75.4295 93.2425 76.2395 92.9885 77.2162L92.9001 77.5616C92.6461 78.5382 92.7676 79.5626 93.2204 80.444C93.6843 81.3254 94.4354 81.9685 95.3411 82.2425L95.6614 82.3378C95.9817 82.445 96.291 82.4807 96.6002 82.4807ZM99.3725 79.503C98.9418 81.1348 97.3623 82.1115 95.8491 81.6589L95.5288 81.5636C94.7888 81.3373 94.1813 80.8251 93.8058 80.1105C93.4303 79.3958 93.3419 78.5621 93.5407 77.764L93.6291 77.4186C93.839 76.6206 94.3139 75.9655 94.9766 75.5606C95.6393 75.1556 96.4124 75.0603 97.1525 75.2747L100.223 76.1918L99.3725 79.503Z" fill="#FE5244"/>
<path d="M149.075 309.631C149.097 309.631 149.12 309.631 149.142 309.619C149.318 309.583 149.44 309.393 149.396 309.19L130.155 212.082C130.122 211.891 129.945 211.76 129.758 211.808C129.581 211.843 129.459 212.034 129.503 212.236L148.755 309.345C148.788 309.512 148.921 309.631 149.075 309.631Z" fill="#FFCF2D"/>
<path d="M61.3555 309.631C61.5101 309.631 61.6426 309.512 61.6758 309.345L80.9163 212.237C80.9494 212.046 80.8389 211.855 80.6622 211.808C80.4855 211.772 80.3088 211.891 80.2646 212.082L61.0241 309.19C60.991 309.381 61.1014 309.571 61.2782 309.619C61.3113 309.631 61.3334 309.631 61.3555 309.631Z" fill="#FFCF2D"/>
<path d="M65.8837 288.072H144.812C144.999 288.072 145.143 287.917 145.143 287.715C145.143 287.512 144.999 287.357 144.812 287.357H65.8837C65.696 287.357 65.5524 287.512 65.5524 287.715C65.5524 287.917 65.696 288.072 65.8837 288.072Z" fill="#FFCF2D"/>
<path d="M65.4533 212.165H144.989C145.994 212.165 146.811 211.284 146.811 210.2V204.971C146.811 203.887 145.994 203.006 144.989 203.006H65.4533C64.4482 203.006 63.6309 203.887 63.6309 204.971V210.2C63.6309 211.284 64.4482 212.165 65.4533 212.165Z" fill="white"/>
<path d="M65.4532 212.522H144.989C146.182 212.522 147.143 211.486 147.143 210.2V204.971C147.143 203.684 146.182 202.648 144.989 202.648H65.4532C64.2604 202.648 63.2994 203.684 63.2994 204.971V210.2C63.2994 211.486 64.2604 212.522 65.4532 212.522ZM144.989 203.363C145.806 203.363 146.48 204.089 146.48 204.971V210.2C146.48 211.081 145.806 211.808 144.989 211.808H65.4532C64.6359 211.808 63.9621 211.081 63.9621 210.2V204.971C63.9621 204.089 64.6359 203.363 65.4532 203.363H144.989Z" fill="#66B0F0"/>
</svg>
