<svg width="315" height="310" viewBox="0 0 315 310" fill="none" xmlns="http://www.w3.org/2000/svg">
<path fill-rule="evenodd" clip-rule="evenodd" d="M35.7969 302.051H228.134V302.846H35.7969V302.051Z" fill="#3FB1B5"/>
<path fill-rule="evenodd" clip-rule="evenodd" d="M214.666 310H2.95654V309.385H214.666V310Z" fill="#66B0F0"/>
<path d="M213.731 3.17188V34.0103C213.731 40.0498 208.195 44.9559 201.381 44.9559H162.798C169.613 44.9559 175.149 40.0647 175.149 34.0103V3.17188H213.731Z" fill="white"/>
<path fill-rule="evenodd" clip-rule="evenodd" d="M174.728 2.79919H214.152V34.0105C214.152 40.2558 208.428 45.3288 201.381 45.3288H162.798V44.5832C169.381 44.5832 174.728 39.8586 174.728 34.0105V2.79919ZM167.367 44.5832H201.381C207.963 44.5832 213.31 39.844 213.31 34.0105V3.54481H175.569V34.0105C175.569 38.8411 172.161 42.9557 167.367 44.5832Z" fill="#66B0F0"/>
<path d="M195.912 0.189575H192.799V6.76586H195.912V0.189575Z" fill="#FFCF2D"/>
<path d="M202.509 14.8933C202.071 14.8933 201.634 14.7441 201.28 14.4608L199.985 13.4468C199.581 13.1336 199.042 13.1336 198.639 13.4468L197.41 14.4161C196.687 14.9827 195.677 14.9827 194.937 14.4161L193.809 13.5363C193.406 13.2231 192.867 13.2231 192.463 13.5363L191.42 14.3564C190.697 14.9231 189.687 14.9231 188.947 14.3564L188.088 13.6854C187.685 13.3722 187.146 13.3722 186.742 13.6854L185.817 14.4161C185.093 14.9827 184.084 14.9827 183.344 14.4161L182.485 13.745C182.082 13.4319 181.543 13.4319 181.139 13.745C180.971 13.8792 180.702 13.8643 180.55 13.7152C180.399 13.5661 180.416 13.3275 180.584 13.1933C181.308 12.6266 182.317 12.6266 183.057 13.1933L183.916 13.8643C184.319 14.1775 184.858 14.1775 185.262 13.8643L186.187 13.1336C186.911 12.567 187.92 12.567 188.661 13.1336L189.519 13.8047C189.923 14.1178 190.461 14.1178 190.865 13.8047L191.908 12.9845C192.632 12.4178 193.641 12.4178 194.382 12.9845L195.509 13.8643C195.913 14.1775 196.451 14.1775 196.855 13.8643L198.083 12.895C198.807 12.3284 199.816 12.3284 200.557 12.895L201.852 13.9091C202.256 14.2222 202.795 14.2222 203.198 13.9091L204.545 12.8503C205.268 12.2836 206.278 12.2836 207.018 12.8503C207.186 12.9845 207.203 13.2231 207.052 13.3722C206.9 13.5213 206.631 13.5363 206.463 13.402C206.059 13.0889 205.52 13.0889 205.117 13.402L203.771 14.4608C203.367 14.7441 202.946 14.8933 202.509 14.8933Z" fill="#66B0F0"/>
<path d="M202.509 21.0219C202.071 21.0219 201.634 20.8728 201.28 20.5895L199.985 19.5754C199.581 19.2623 199.042 19.2623 198.639 19.5754L197.41 20.5447C196.687 21.1114 195.677 21.1114 194.937 20.5447L193.809 19.6649C193.406 19.3518 192.867 19.3518 192.463 19.6649L191.42 20.4851C190.697 21.0517 189.687 21.0517 188.947 20.4851L188.088 19.814C187.685 19.5009 187.146 19.5009 186.742 19.814L185.817 20.5447C185.093 21.1114 184.084 21.1114 183.344 20.5447L182.485 19.8737C182.082 19.5605 181.543 19.5605 181.139 19.8737C180.971 20.0079 180.702 19.993 180.55 19.8438C180.399 19.6947 180.416 19.4561 180.584 19.3219C181.308 18.7553 182.317 18.7553 183.057 19.3219L183.916 19.993C184.319 20.3061 184.858 20.3061 185.262 19.993L186.187 19.2623C186.911 18.6956 187.92 18.6956 188.661 19.2623L189.519 19.9333C189.923 20.2465 190.461 20.2465 190.865 19.9333L191.908 19.1132C192.632 18.5465 193.641 18.5465 194.382 19.1132L195.509 19.993C195.913 20.3061 196.451 20.3061 196.855 19.993L198.083 19.0237C198.807 18.457 199.816 18.457 200.557 19.0237L201.852 20.0377C202.256 20.3509 202.795 20.3509 203.198 20.0377L204.545 18.9789C205.268 18.4123 206.278 18.4123 207.018 18.9789C207.186 19.1132 207.203 19.3518 207.052 19.5009C206.9 19.65 206.631 19.6649 206.463 19.5307C206.059 19.2175 205.52 19.2175 205.117 19.5307L203.771 20.5895C203.367 20.8877 202.946 21.0219 202.509 21.0219Z" fill="#66B0F0"/>
<path d="M202.509 27.1507C202.071 27.1507 201.634 27.0016 201.28 26.7182L199.985 25.7042C199.581 25.3911 199.042 25.3911 198.639 25.7042L197.41 26.6735C196.687 27.2402 195.677 27.2402 194.937 26.6735L193.809 25.7937C193.406 25.4805 192.867 25.4805 192.463 25.7937L191.42 26.6139C190.697 27.1805 189.687 27.1805 188.947 26.6139L188.088 25.9428C187.685 25.6297 187.146 25.6297 186.742 25.9428L185.817 26.6735C185.093 27.2402 184.084 27.2402 183.344 26.6735L182.485 26.0025C182.082 25.6893 181.543 25.6893 181.139 26.0025C180.971 26.1367 180.702 26.1218 180.55 25.9726C180.399 25.8235 180.416 25.5849 180.584 25.4507C181.308 24.8841 182.317 24.8841 183.057 25.4507L183.916 26.1218C184.319 26.4349 184.858 26.4349 185.262 26.1218L186.187 25.3911C186.911 24.8244 187.92 24.8244 188.661 25.3911L189.519 26.0621C189.923 26.3753 190.461 26.3753 190.865 26.0621L191.908 25.2419C192.632 24.6753 193.641 24.6753 194.382 25.2419L195.509 26.1218C195.913 26.4349 196.451 26.4349 196.855 26.1218L198.083 25.1525C198.807 24.5858 199.816 24.5858 200.557 25.1525L201.852 26.1665C202.256 26.4797 202.795 26.4797 203.198 26.1665L204.545 25.1077C205.268 24.5411 206.278 24.5411 207.018 25.1077C207.186 25.2419 207.203 25.4805 207.052 25.6297C206.9 25.7788 206.631 25.7937 206.463 25.6595C206.059 25.3463 205.52 25.3463 205.117 25.6595L203.771 26.7182C203.367 27.0165 202.946 27.1507 202.509 27.1507Z" fill="#66B0F0"/>
<path d="M202.509 33.2943C202.071 33.2943 201.634 33.1451 201.28 32.8618L199.985 31.8478C199.581 31.5346 199.042 31.5346 198.639 31.8478L197.41 32.8171C196.687 33.3837 195.677 33.3837 194.937 32.8171L193.809 31.9373C193.406 31.6241 192.867 31.6241 192.463 31.9373L191.42 32.7574C190.697 33.3241 189.687 33.3241 188.947 32.7574L188.088 32.0864C187.685 31.7732 187.146 31.7732 186.742 32.0864L185.817 32.8171C185.093 33.3837 184.084 33.3837 183.344 32.8171L182.485 32.146C182.082 31.8329 181.543 31.8329 181.139 32.146C180.971 32.2802 180.702 32.2653 180.55 32.1162C180.399 31.9671 180.416 31.7285 180.584 31.5943C181.308 31.0276 182.317 31.0276 183.057 31.5943L183.916 32.2653C184.319 32.5785 184.858 32.5785 185.262 32.2653L186.187 31.5346C186.911 30.968 187.92 30.968 188.661 31.5346L189.519 32.2057C189.923 32.5188 190.461 32.5188 190.865 32.2057L191.908 31.3855C192.632 30.8188 193.641 30.8188 194.382 31.3855L195.509 32.2653C195.913 32.5785 196.451 32.5785 196.855 32.2653L198.083 31.296C198.807 30.7294 199.816 30.7294 200.557 31.296L201.852 32.3101C202.256 32.6232 202.795 32.6232 203.198 32.3101L204.545 31.2513C205.268 30.6846 206.278 30.6846 207.018 31.2513C207.186 31.3855 207.203 31.6241 207.052 31.7732C206.9 31.9223 206.631 31.9373 206.463 31.803C206.059 31.4899 205.52 31.4899 205.117 31.803L203.771 32.8618C203.367 33.1451 202.946 33.2943 202.509 33.2943Z" fill="#66B0F0"/>
<path d="M253.457 3.17114H226.468V27.0903H253.457V3.17114Z" fill="#FFCF2D"/>
<path d="M232.398 2.15074L230.444 0.00305176L223.318 5.11881L225.272 7.2665L232.398 2.15074Z" fill="#FE5244"/>
<path d="M254.857 7.25453L256.813 5.10876L249.681 2.70938e-05L247.724 2.14579L254.857 7.25453Z" fill="#FE5244"/>
<path d="M247.753 8.8385H231.381V9.73324H247.753V8.8385Z" fill="white"/>
<path d="M247.753 12.7004H231.381V13.5952H247.753V12.7004Z" fill="white"/>
<path d="M247.753 16.5774H231.381V17.4721H247.753V16.5774Z" fill="white"/>
<path d="M247.753 20.4402H231.381V21.3349H247.753V20.4402Z" fill="white"/>
<path d="M274.055 260.489C273.665 260.387 273.448 260.335 273.448 260.335L268.717 274.066L250.91 269.925C250.765 269.81 250.693 269.745 250.693 269.745C250.693 269.745 178.581 219.657 174.791 195.619C171.016 171.581 201.22 148.774 201.22 148.774C201.22 148.774 265.636 256.682 273.607 260.207C273.766 260.284 273.925 260.374 274.055 260.489Z" fill="#E57281"/>
<path d="M216.467 174.017C214.21 184.722 206.283 206.401 198.081 227.375C185.93 215.773 176.122 204.068 174.791 195.606C172.39 180.376 183.659 165.62 192.223 156.876C195.362 154.646 198.747 152.595 202.406 150.761C204.649 154.492 209.842 163.133 216.467 174.017Z" fill="#9A3B82"/>
<path d="M314.53 269.733L288.043 284.796L280.362 283.771L273.288 287.745L275.574 291.899L263.929 298.527C248.494 286.078 250.678 269.886 250.678 269.886L268.702 274.079L273.433 260.348C273.433 260.348 289.62 264.54 301.569 264.181C313.546 263.822 314.53 269.733 314.53 269.733Z" fill="white"/>
<path fill-rule="evenodd" clip-rule="evenodd" d="M273.143 259.873L273.554 259.979L273.433 260.349C273.554 259.979 273.554 259.979 273.554 259.979L273.565 259.982L273.6 259.991C273.63 259.999 273.676 260.01 273.736 260.026C273.856 260.056 274.035 260.101 274.267 260.157C274.731 260.271 275.407 260.432 276.256 260.625C277.955 261.012 280.345 261.523 283.107 262.023C288.638 263.024 295.631 263.975 301.554 263.797C307.626 263.615 310.988 265.022 312.836 266.541C313.755 267.297 314.285 268.068 314.584 268.657C314.734 268.951 314.827 269.199 314.882 269.377C314.91 269.466 314.929 269.537 314.941 269.588C314.947 269.614 314.951 269.634 314.954 269.649C314.955 269.657 314.957 269.663 314.957 269.667L314.958 269.673L314.959 269.675L314.959 269.676C314.959 269.676 314.959 269.677 314.53 269.733L314.959 269.677L315 269.923L288.14 285.199L280.457 284.173L273.848 287.886L276.133 292.038L263.883 299.01L263.637 298.812C255.838 292.522 252.489 285.284 251.091 279.621C250.392 276.79 250.181 274.352 250.144 272.619C250.126 271.752 250.151 271.061 250.181 270.585C250.196 270.347 250.212 270.163 250.225 270.038C250.231 269.975 250.237 269.927 250.241 269.894C250.242 269.877 250.244 269.864 250.245 269.856L250.246 269.845L250.247 269.843L250.247 269.842C250.247 269.841 250.247 269.841 250.678 269.887L250.247 269.841L250.306 269.403L268.409 273.613L273.143 259.873ZM251.066 270.375C251.06 270.45 251.053 270.535 251.048 270.628C251.019 271.087 250.994 271.758 251.012 272.604C251.048 274.296 251.255 276.683 251.939 279.457C253.293 284.942 256.514 291.931 263.975 298.043L275.014 291.76L272.728 287.605L280.266 283.369L287.946 284.395L314.038 269.556C313.991 269.413 313.915 269.213 313.793 268.973C313.534 268.465 313.069 267.782 312.246 267.105C310.607 265.758 307.489 264.389 301.583 264.566C295.557 264.747 288.483 263.781 282.933 262.777C280.154 262.273 277.75 261.759 276.041 261.371C275.186 261.176 274.504 261.013 274.036 260.899C273.918 260.87 273.814 260.844 273.723 260.822L268.996 274.545L251.066 270.375Z" fill="#FE5244"/>
<path fill-rule="evenodd" clip-rule="evenodd" d="M284.803 261.678C284.767 261.392 284.712 260.989 284.639 260.51C284.49 259.536 284.262 258.24 283.945 256.963C283.629 255.692 283.219 254.411 282.698 253.481C282.438 253.018 282.134 252.61 281.77 252.338C281.393 252.056 280.928 251.906 280.41 252.028L280.409 252.028L280.408 252.028C279.89 252.152 279.555 252.498 279.356 252.915C279.16 253.325 279.077 253.838 279.069 254.389C279.053 255.495 279.339 256.866 279.807 258.163C280.276 259.458 280.94 260.72 281.708 261.594C282.092 262.031 282.522 262.394 282.99 262.606C283.472 262.824 284.003 262.884 284.534 262.691C285.429 262.366 286.272 261.62 287.019 260.753C287.776 259.875 288.475 258.823 289.07 257.817C289.665 256.809 290.16 255.839 290.506 255.122C290.68 254.763 290.816 254.467 290.909 254.26C290.956 254.156 290.991 254.075 291.016 254.019C291.028 253.991 291.037 253.97 291.043 253.955L291.051 253.939L291.053 253.933L291.053 253.933C291.053 253.933 291.053 253.932 290.647 253.797C290.241 253.662 290.241 253.662 290.241 253.662L290.241 253.662L290.24 253.663L290.239 253.666L290.232 253.681C290.227 253.695 290.218 253.715 290.206 253.742C290.183 253.795 290.148 253.874 290.103 253.975C290.012 254.177 289.879 254.467 289.708 254.819C289.368 255.525 288.882 256.475 288.301 257.46C287.718 258.446 287.044 259.457 286.329 260.287C285.815 260.883 285.3 261.362 284.803 261.678ZM283.974 262.033C283.789 262.052 283.596 262.016 283.385 261.921C283.073 261.779 282.735 261.511 282.393 261.122C281.71 260.344 281.085 259.176 280.634 257.928C280.184 256.682 279.922 255.397 279.937 254.399C279.944 253.898 280.021 253.497 280.156 253.215C280.287 252.939 280.453 252.815 280.633 252.771C280.812 252.73 280.993 252.763 281.21 252.926C281.442 253.1 281.683 253.4 281.92 253.823C282.393 254.666 282.785 255.872 283.097 257.128C283.407 258.378 283.632 259.65 283.779 260.613C283.853 261.094 283.907 261.496 283.942 261.777C283.955 261.879 283.965 261.965 283.974 262.033Z" fill="#FE5244"/>
<path fill-rule="evenodd" clip-rule="evenodd" d="M313.66 268.008L288.453 281.956L280.087 280.763L271.307 285.413L253.434 285.168L253.447 284.399L271.073 284.641L279.913 279.959L288.269 281.15L313.2 267.355L313.66 268.008Z" fill="#FE5244"/>
<path fill-rule="evenodd" clip-rule="evenodd" d="M278.679 268.319L280.328 261.511L281.176 261.673L279.527 268.48L278.679 268.319Z" fill="#FE5244"/>
<path fill-rule="evenodd" clip-rule="evenodd" d="M282.266 269.088L283.915 262.281L284.764 262.442L283.115 269.25L282.266 269.088Z" fill="#FE5244"/>
<path fill-rule="evenodd" clip-rule="evenodd" d="M286.013 269.64L287.662 262.832L288.511 262.994L286.862 269.801L286.013 269.64Z" fill="#FE5244"/>
<path d="M195.101 143.531C195.101 143.531 205.705 147.915 205.705 163.992C205.705 179.53 165.229 274.682 165.229 274.682L152.774 284.04L140.131 271.771C146.308 266.566 128.573 172.466 195.101 143.531Z" fill="#E57281"/>
<path d="M193.973 302.271L162.496 302.296L156.652 297.758L148.276 297.719L147.668 302.309L135.329 302.322C128.617 283.81 140.19 271.759 140.19 271.759L152.746 284.015L165.288 274.669C165.288 274.669 176.166 285.976 186.437 291.386C196.736 296.809 193.973 302.271 193.973 302.271Z" fill="white"/>
<path fill-rule="evenodd" clip-rule="evenodd" d="M140.179 271.176L152.786 283.482L165.338 274.128L165.618 274.419L165.288 274.669C165.618 274.419 165.618 274.419 165.618 274.419L165.625 274.427L165.648 274.451C165.669 274.472 165.7 274.504 165.74 274.545C165.822 274.629 165.943 274.752 166.101 274.911C166.417 275.229 166.88 275.69 167.468 276.26C168.645 277.401 170.32 278.979 172.315 280.725C176.312 284.222 181.569 288.375 186.658 291.056C191.88 293.805 193.855 296.6 194.487 298.766C194.802 299.843 194.779 300.748 194.673 301.388C194.621 301.708 194.548 301.961 194.487 302.138C194.456 302.227 194.428 302.296 194.407 302.345C194.402 302.357 194.397 302.368 194.393 302.378C194.388 302.387 194.385 302.395 194.382 302.402C194.378 302.409 194.376 302.415 194.374 302.419L194.371 302.424L194.369 302.427C194.369 302.428 194.369 302.428 193.973 302.271L194.369 302.428L194.254 302.655L162.333 302.681L156.487 298.142L148.662 298.106L148.054 302.693L135.013 302.707L134.916 302.439C131.527 293.092 132.752 285.366 134.832 279.974C135.871 277.279 137.122 275.169 138.116 273.73C138.613 273.01 139.046 272.458 139.356 272.085C139.511 271.898 139.635 271.756 139.721 271.659C139.764 271.611 139.798 271.574 139.821 271.549C139.833 271.537 139.842 271.527 139.848 271.52L139.856 271.513L139.858 271.51L139.859 271.51C139.859 271.509 139.859 271.509 140.19 271.758L139.859 271.509L140.179 271.176ZM140.213 272.353C140.165 272.409 140.112 272.471 140.055 272.54C139.758 272.898 139.339 273.432 138.856 274.131C137.89 275.531 136.668 277.59 135.653 280.222C133.644 285.432 132.443 292.892 135.646 301.937L147.282 301.925L147.89 297.333L156.816 297.374L162.659 301.911L193.666 301.886C193.714 301.744 193.772 301.538 193.814 301.277C193.905 300.724 193.929 299.924 193.647 298.958C193.086 297.037 191.293 294.391 186.215 291.717C181.033 288.987 175.716 284.782 171.706 281.272C169.698 279.515 168.012 277.928 166.827 276.779C166.235 276.205 165.768 275.741 165.449 275.419C165.37 275.339 165.3 275.269 165.239 275.207L152.705 284.547L140.213 272.353Z" fill="#FE5244"/>
<path fill-rule="evenodd" clip-rule="evenodd" d="M179.782 270.722C180.426 270.643 181.048 270.785 181.586 271.199C182.121 271.611 182.367 272.123 182.365 272.687C182.363 273.231 182.132 273.796 181.781 274.346C181.081 275.446 179.822 276.616 178.49 277.675C177.15 278.739 175.702 279.716 174.592 280.424C174.079 280.752 173.637 281.023 173.31 281.22C173.453 281.232 173.628 281.238 173.837 281.235C174.358 281.228 175.015 281.169 175.766 281.069C177.267 280.871 179.098 280.518 180.879 280.133C182.658 279.749 184.378 279.336 185.654 279.018C186.292 278.859 186.819 278.725 187.185 278.63C187.369 278.582 187.512 278.545 187.61 278.519C187.659 278.506 187.696 278.496 187.721 278.49L187.758 278.48C187.758 278.48 187.758 278.48 187.883 278.848C188.008 279.217 188.008 279.217 188.008 279.217L187.969 279.227C187.955 279.231 187.937 279.235 187.915 279.241C187.898 279.246 187.878 279.251 187.857 279.257C187.758 279.282 187.613 279.32 187.429 279.368C187.059 279.464 186.53 279.599 185.889 279.759C184.607 280.078 182.876 280.494 181.084 280.88C179.294 281.267 177.434 281.626 175.895 281.83C175.126 281.932 174.427 281.996 173.851 282.004C173.301 282.012 172.778 281.971 172.428 281.801C171.95 281.568 171.862 281.064 171.879 280.642C171.897 280.183 172.043 279.618 172.273 279.008C172.734 277.782 173.565 276.282 174.564 274.903C175.56 273.529 176.748 272.241 177.937 271.465C178.532 271.077 179.157 270.798 179.782 270.722ZM172.748 280.628C173.076 280.432 173.539 280.149 174.085 279.8C175.181 279.1 176.602 278.141 177.911 277.102C179.227 276.056 180.398 274.954 181.025 273.968C181.339 273.475 181.496 273.044 181.497 272.685C181.498 272.344 181.361 272.044 181.017 271.78C180.676 271.518 180.308 271.434 179.9 271.484C179.473 271.536 178.984 271.737 178.451 272.085C177.386 272.78 176.266 273.978 175.294 275.319C174.326 276.655 173.53 278.097 173.096 279.251C172.886 279.81 172.769 280.28 172.748 280.628Z" fill="#FE5244"/>
<path fill-rule="evenodd" clip-rule="evenodd" d="M133.434 286.276L133.897 285.625L148.56 293.822H158.849L165.344 298.655H194.219V299.425H165.028L158.533 294.591H148.309L133.434 286.276Z" fill="#FE5244"/>
<path fill-rule="evenodd" clip-rule="evenodd" d="M163.853 283.243L169.407 278.32L170.021 278.864L164.466 283.787L163.853 283.243Z" fill="#FE5244"/>
<path fill-rule="evenodd" clip-rule="evenodd" d="M166.398 285.614L171.952 280.691L172.566 281.235L167.011 286.158L166.398 285.614Z" fill="#FE5244"/>
<path fill-rule="evenodd" clip-rule="evenodd" d="M169.205 287.871L174.76 282.948L175.373 283.492L169.819 288.415L169.205 287.871Z" fill="#FE5244"/>
<path d="M195.101 143.531C170.089 154.402 156.983 174.504 150.054 195.619H74.1524C54.7249 195.619 40.2447 179.735 44.3385 162.902L49.9078 139.979H181.879C186.768 139.979 191.31 141.287 195.101 143.531Z" fill="#FE5244"/>
<path d="M138.741 165.504L166.067 165.453L162.017 171.337L138.741 165.504Z" fill="#E57281"/>
<path fill-rule="evenodd" clip-rule="evenodd" d="M78.6961 139.603C78.9307 139.646 79.0812 139.85 79.0323 140.058L77.9763 144.545C77.9763 144.545 77.9763 144.545 77.9763 144.545C75.4865 155.139 84.5971 165.081 96.8054 165.081H165.831C173.113 156.143 182.617 148.466 195.054 143.057C195.269 142.964 195.529 143.042 195.634 143.233C195.74 143.424 195.651 143.654 195.436 143.748C183.066 149.127 173.63 156.775 166.405 165.69L166.276 165.851H96.8054C84.0457 165.851 74.5246 155.46 77.1266 144.388L78.1826 139.901C78.2316 139.693 78.4614 139.56 78.6961 139.603Z" fill="white"/>
<path fill-rule="evenodd" clip-rule="evenodd" d="M138.325 165.386C138.391 165.181 138.632 165.063 138.862 165.122L162.389 171.105L162.102 171.534C157.047 179.077 153.328 187.314 150.573 195.714C150.506 195.918 150.265 196.035 150.035 195.976C149.805 195.916 149.672 195.703 149.739 195.499C152.458 187.211 156.115 179.063 161.07 171.57L138.623 165.861C138.392 165.803 138.259 165.59 138.325 165.386Z" fill="white"/>
<path d="M32.1729 78.4045L46.0745 126.737H20.1374C5.03512 126.737 -4.68586 112.519 2.31557 100.66L22.2349 66.9048C27.8766 57.3538 39.0297 51.3667 51.1954 51.3667H55.8968C39.9266 51.3539 28.2238 64.6869 32.1729 78.4045Z" fill="#3FB1B5"/>
<path d="M192.251 65.8656C200.424 65.8656 207.223 64.9041 208.872 63.558L183.514 112.275C178.928 121.095 168.961 126.736 158.011 126.736C154.799 126.736 151.646 126.249 148.666 125.313C145.686 124.377 142.88 123.005 140.377 121.211L124.392 109.775C124.392 109.775 122.801 118.07 111.446 120.185V139.954H49.8938L32.1733 78.391C28.2241 64.6734 39.9269 51.3275 55.8971 51.3275H98.9906C102.795 51.3275 106.542 51.7506 110.158 52.5711C120.053 54.8018 128.935 59.9555 135.213 67.34L156.275 92.1086L175.196 62.8016C175.196 62.8273 175.182 62.8657 175.182 62.8913C175.196 64.5964 182.849 65.8656 192.251 65.8656Z" fill="#3FB1B5"/>
<path fill-rule="evenodd" clip-rule="evenodd" d="M31.924 78.0303C32.1566 77.9792 32.392 78.105 32.4496 78.3112L46.0619 127.028C46.1195 127.234 45.9776 127.443 45.7449 127.494C45.5123 127.545 45.277 127.419 45.2194 127.213L31.6071 78.4961C31.5495 78.2899 31.6913 78.0813 31.924 78.0303Z" fill="white"/>
<path fill-rule="evenodd" clip-rule="evenodd" d="M112.146 98.7383C112.321 98.5929 112.595 98.6005 112.76 98.7553L124.853 110.165C125.017 110.32 125.008 110.564 124.834 110.709C124.659 110.854 124.384 110.847 124.22 110.692L112.127 99.282C111.963 99.1271 111.971 98.8837 112.146 98.7383Z" fill="white"/>
<path d="M209.249 62.8399L208.873 63.5579C207.224 64.9168 200.425 65.8655 192.252 65.8655C182.849 65.8655 175.197 64.5963 175.197 62.9168C175.197 62.8912 175.197 62.8527 175.211 62.8271C175.471 61.1861 183.022 59.7759 192.266 59.7759C201.495 59.7759 208.988 61.1861 209.249 62.8399C209.249 62.8271 209.249 62.8271 209.249 62.8399Z" fill="#FE5244"/>
<path d="M216.828 38.2252C216.828 38.9559 216.625 39.6739 216.249 40.302C215.873 40.9302 215.324 41.4815 214.644 41.9046L214.311 42.1097L211.722 54.353C211.302 56.3401 209.971 58.0965 208.047 59.1862L204.503 61.1862L201.697 62.7759L200.395 65.5322C197.979 65.7502 195.216 65.8784 192.265 65.8784C189.285 65.8784 186.479 65.7502 184.034 65.5194V46.5327C184.034 45.7122 184.237 44.9045 184.627 44.1609L189.343 35.1611C189.343 35.1611 194.493 36.2893 192.121 41.8918C189.965 46.9814 194.883 45.6737 197.646 44.7635C200.12 43.943 210.926 39.0713 215.15 37.2893C215.931 36.956 216.828 37.4688 216.828 38.2252Z" fill="#E57281"/>
<path fill-rule="evenodd" clip-rule="evenodd" d="M212.381 49.3842C212.578 49.4167 212.707 49.5842 212.67 49.7582C212.232 51.8327 210.843 53.6525 208.835 54.7897L202.485 58.3795C202.316 58.4747 202.093 58.4309 201.985 58.2817C201.878 58.1324 201.927 57.9343 202.096 57.8391L208.446 54.2496C210.286 53.2074 211.558 51.5401 211.959 49.6403C211.996 49.4663 212.185 49.3516 212.381 49.3842Z" fill="#9A3B82"/>
<path fill-rule="evenodd" clip-rule="evenodd" d="M213.423 44.192C213.619 44.2246 213.748 44.392 213.712 44.566C213.274 46.6405 211.885 48.4604 209.877 49.5976L203.526 53.1874C203.358 53.2826 203.134 53.2387 203.027 53.0895C202.919 52.9403 202.969 52.7421 203.137 52.6469L209.487 49.0574C209.487 49.0574 209.487 49.0573 209.488 49.0573C209.488 49.0573 209.487 49.0573 209.488 49.0573C211.327 48.0151 212.6 46.3478 213.001 44.4481C213.038 44.2742 213.226 44.1595 213.423 44.192Z" fill="#9A3B82"/>
<path fill-rule="evenodd" clip-rule="evenodd" d="M214.153 42.0789C214.26 42.2283 214.21 42.4264 214.042 42.5212L203.829 48.2647C203.66 48.3596 203.437 48.3153 203.33 48.1658C203.223 48.0164 203.272 47.8183 203.441 47.7235L213.654 41.98C213.823 41.8851 214.046 41.9294 214.153 42.0789Z" fill="#9A3B82"/>
<path d="M205.053 60.8656L204.489 61.1861L201.683 62.7758L200.381 65.5322C197.965 65.7501 195.202 65.8783 192.251 65.8783C189.271 65.8783 186.465 65.7501 184.02 65.5194V60.1862C186.465 59.9298 189.271 59.7887 192.251 59.7887C197.358 59.7759 201.929 60.199 205.053 60.8656Z" fill="#9A3B82"/>
<path d="M108.814 52.2764C106.716 54.7763 98.9046 60.6608 72.6058 60.6608C38.7704 60.6608 60.4257 51.3789 60.4257 51.3789L74.7757 30.1359L90.1673 38.5075V45.2381C90.1673 48.6354 93.2774 51.3789 97.0963 51.3789H98.0945C101.682 51.3661 105.385 51.5071 108.814 52.2764Z" fill="#E57281"/>
<path d="M90.1535 38.4944V40.2123L60.4119 51.3659L74.7619 30.1228L90.1535 38.4944Z" fill="#9A3B82"/>
<path d="M90.9619 39.3276H94.2312C97.24 39.3276 99.6847 37.161 99.6847 34.4944V18.3538H80.1704V29.7638C80.1704 35.0457 85.002 39.3276 90.9619 39.3276Z" fill="#E57281"/>
<path fill-rule="evenodd" clip-rule="evenodd" d="M96.6412 32.1154L96.641 32.1151L96.6407 32.1147L96.6404 32.1142C96.6403 32.1141 96.6403 32.1141 96.6405 32.1143C96.6405 32.1143 96.6405 32.1143 96.6405 32.1143M96.6405 32.1143C96.6405 32.1144 96.6406 32.1145 96.6406 32.1146C96.6412 32.1154 96.6425 32.1173 96.6447 32.1203C96.6489 32.1264 96.6564 32.1367 96.6672 32.1507C96.6888 32.1787 96.7234 32.2211 96.7718 32.2733C96.8687 32.3779 97.0197 32.5201 97.2302 32.6631C97.6479 32.9467 98.3063 33.238 99.2651 33.238C99.4648 33.238 99.6267 33.3815 99.6267 33.5585C99.6267 33.7355 99.4648 33.879 99.2651 33.879C98.1263 33.879 97.3164 33.5293 96.7902 33.1719C96.5288 32.9943 96.3389 32.8161 96.213 32.6803C96.1499 32.6123 96.1026 32.5546 96.0701 32.5124C96.0538 32.4913 96.0412 32.4741 96.0322 32.4614C96.0277 32.455 96.0241 32.4498 96.0213 32.4457L96.0179 32.4406L96.0166 32.4387L96.0161 32.4379L96.0159 32.4376C96.0158 32.4374 96.0157 32.4373 96.3285 32.2765" fill="#73325A"/>
<path d="M97.3692 28.3921C97.7527 28.3921 98.0636 27.8583 98.0636 27.1998C98.0636 26.5414 97.7527 26.0076 97.3692 26.0076C96.9857 26.0076 96.6748 26.5414 96.6748 27.1998C96.6748 27.8583 96.9857 28.3921 97.3692 28.3921Z" fill="#73325A"/>
<path d="M83.8888 20.0335C83.8888 20.0335 99.9892 28.6487 105.226 21.1489C109.826 14.5721 89.4437 11.1875 82.3265 11.1619C74.5873 11.1363 64.3311 14.1747 64.5047 24.2642C64.6494 32.5717 65.0399 44.7252 59.4851 42.6099C39.7249 35.0973 22.1635 42.9432 22.1056 57.8916C22.0477 72.84 41.6199 74.2374 42.1117 70.3785C42.618 66.5324 29.9605 67.417 31.6675 77.404C33.36 87.3909 40.9111 99.8778 58.1542 99.8778C78.9849 99.8906 92.25 75.5835 79.361 73.1092C69.4809 71.2118 89.4292 88.1088 95.3457 70.5452C101.711 51.6353 78.7101 45.4432 78.1459 34.0204C77.5817 22.5975 83.8888 20.0335 83.8888 20.0335Z" fill="#FFCF2D"/>
<path fill-rule="evenodd" clip-rule="evenodd" d="M70.2516 13.6508C73.8391 11.5885 78.4144 10.8283 82.328 10.8412C85.9251 10.8542 92.8399 11.7124 98.2893 13.3959C101.007 14.2356 103.412 15.2957 104.848 16.5928C105.57 17.2455 106.065 17.9749 106.212 18.7815C106.359 19.5932 106.145 20.4425 105.533 21.3173C104.154 23.2925 102.056 24.2003 99.7273 24.4565C97.4114 24.7112 94.8534 24.3248 92.4919 23.711C90.1258 23.096 87.9296 22.2454 86.3274 21.5501C85.5256 21.2022 84.8708 20.8924 84.4159 20.6693C84.1884 20.5577 84.0107 20.4678 83.8896 20.4055C83.8865 20.4039 83.8835 20.4024 83.8805 20.4008C83.8581 20.4124 83.8336 20.4253 83.807 20.4396C83.6486 20.525 83.4179 20.6616 83.1401 20.8613C82.5849 21.2606 81.8406 21.9132 81.1098 22.917C79.6504 24.9214 78.2279 28.3501 78.5073 34.0062C78.6435 36.7649 80.1346 39.2297 82.2541 41.6926C83.3129 42.923 84.5209 44.1444 85.784 45.3971C85.999 45.6103 86.2156 45.8245 86.4333 46.0398C87.4918 47.0863 88.5758 48.158 89.622 49.2697C92.1455 51.9511 94.4753 54.8916 95.7664 58.3665C97.0603 61.8489 97.304 65.8485 95.6923 70.6366C94.193 75.0877 91.7795 77.4222 89.0986 78.3855C87.682 78.8945 86.2154 79.0115 84.807 78.8721C84.8677 81.4801 83.7421 84.5841 81.713 87.5905C77.3586 94.0422 68.7313 100.205 58.1541 100.198C49.4206 100.198 43.1244 97.0311 38.8056 92.5952C34.4957 88.1684 32.1636 82.4887 31.3099 77.4514C30.8955 75.0262 31.3047 73.0989 32.1892 71.6273C32.0493 71.5819 31.9093 71.5346 31.7695 71.4856C26.7103 69.7108 21.7145 65.5199 21.744 57.8903C21.7734 50.291 26.2604 44.4813 33.2519 41.5382C40.2322 38.5998 49.6732 38.5306 59.6277 42.3152L59.6279 42.3153C60.2646 42.5577 60.7749 42.5811 61.1925 42.4639C61.6129 42.346 61.9929 42.0704 62.3338 41.6242C63.0257 40.7184 63.4855 39.2025 63.7739 37.3027C64.3139 33.7448 64.229 29.0339 64.1566 25.0212C64.152 24.7675 64.1475 24.5166 64.1432 24.2689C64.0544 19.1075 66.6436 15.7249 70.2516 13.6508ZM32.8831 71.838C32.0446 73.181 31.6214 74.9939 32.0251 77.3558L32.0252 77.3562C32.864 82.3058 35.1537 87.863 39.3532 92.1764C43.5439 96.4807 49.6447 99.5571 58.1543 99.5571H58.1546C68.408 99.5634 76.8286 93.5787 81.0922 87.2615C83.1101 84.2716 84.1718 81.2431 84.0806 78.7772C83.0957 78.6178 82.1496 78.3405 81.2813 77.9941C80.1281 77.5341 79.1002 76.9481 78.2842 76.3403C77.4735 75.7365 76.8508 75.0955 76.5334 74.5182C76.375 74.23 76.2792 73.9333 76.2995 73.6525C76.3208 73.3573 76.4705 73.0961 76.7583 72.9137C77.0314 72.7407 77.3993 72.657 77.8317 72.6403C78.2681 72.6235 78.8019 72.6737 79.4377 72.7958C81.1182 73.1184 82.3966 73.8028 83.285 74.7675C84.1519 75.7089 84.6276 76.8954 84.7661 78.2225C86.1108 78.3707 87.4997 78.2683 88.8269 77.7915C91.2416 76.9238 93.5404 74.7841 94.9993 70.4533C96.5701 65.7865 96.3255 61.9209 95.0794 58.567C93.8304 55.2055 91.5681 52.3384 89.0666 49.6802C88.0294 48.5781 86.9555 47.5164 85.8971 46.47C85.6788 46.2542 85.4612 46.039 85.2446 45.8242C83.981 44.571 82.7564 43.3333 81.679 42.0813C79.5261 39.5796 77.9305 36.9869 77.7847 34.0342C77.4999 28.2675 78.9489 24.7027 80.502 22.5694C81.2774 21.5044 82.0746 20.802 82.6844 20.3636C82.9891 20.1444 83.2467 19.9914 83.431 19.892C83.5231 19.8423 83.597 19.806 83.6493 19.7815C83.6754 19.7693 83.6961 19.76 83.7111 19.7535C83.7186 19.7502 83.7246 19.7477 83.7291 19.7457L83.7348 19.7434L83.7375 19.7423C83.7378 19.7421 83.7381 19.742 83.8889 20.0333L83.7381 19.742L83.912 19.6713L84.0758 19.7589L84.071 19.7661C84.0758 19.759 84.0758 19.7589 84.0758 19.7589L84.0762 19.7592L84.0781 19.7602L84.0862 19.7645C84.0935 19.7683 84.1047 19.7742 84.1195 19.782C84.1492 19.7976 84.1938 19.8209 84.2524 19.851C84.3697 19.9113 84.5431 19.9991 84.7661 20.1084C85.2121 20.3272 85.856 20.6319 86.6455 20.9744C88.2257 21.6601 90.3819 22.4946 92.6955 23.0959C95.0136 23.6984 97.4626 24.0596 99.6383 23.8203C101.801 23.5825 103.679 22.7548 104.918 20.98L104.919 20.9798C105.457 20.2105 105.612 19.5155 105.498 18.8832C105.382 18.2458 104.984 17.6315 104.331 17.0417C103.016 15.8537 100.743 14.8329 98.0512 14.0012C92.6802 12.3419 85.8453 11.4949 82.3253 11.4822M84.0266 78.1155C83.8775 76.9574 83.4476 75.9579 82.7247 75.1728C81.9528 74.3346 80.8263 73.7182 79.2845 73.4223C78.6854 73.3072 78.2172 73.2671 77.8632 73.2807C77.5052 73.2945 77.2944 73.3621 77.1789 73.4352C77.0782 73.499 77.0296 73.5788 77.0213 73.6934C77.012 73.8223 77.0555 74.0043 77.1837 74.2375C77.4395 74.703 77.9795 75.2761 78.7496 75.8496C79.5144 76.4192 80.4855 76.9738 81.5782 77.4096C82.3491 77.7171 83.1746 77.9634 84.0266 78.1155ZM32.8831 71.838C35.029 72.4453 37.1301 72.6331 38.8082 72.476C39.7904 72.3841 40.6499 72.172 41.2912 71.8394C41.9344 71.5058 42.3924 71.03 42.4711 70.4149C42.5451 69.8515 42.3769 69.3586 42.0202 68.9655C41.6693 68.5787 41.1539 68.3075 40.5614 68.1432C39.3796 67.8155 37.8132 67.8897 36.3091 68.4047C34.9101 68.8837 33.5418 69.7517 32.565 71.0661C32.3887 71.0103 32.2122 70.9515 32.0357 70.8896C27.2003 69.1933 22.439 65.2113 22.4673 57.8925C22.4958 50.5435 26.8184 44.956 33.5622 42.1172C40.3171 39.2737 49.5368 39.1762 59.3424 42.9042C60.0945 43.1906 60.7871 43.2501 61.4108 43.0751C62.0317 42.9008 62.5314 42.509 62.9328 41.9835C63.7254 40.9459 64.2004 39.3007 64.4907 37.3881C65.0383 33.7801 64.9524 29.0236 64.8801 25.0265C64.8754 24.7673 64.8708 24.5113 64.8664 24.2591C64.7816 19.331 67.2337 16.1497 70.6452 14.1886C74.0771 12.2157 78.4996 11.4696 82.3253 11.4822M33.2783 71.276C34.155 70.1642 35.3469 69.4213 36.5698 69.0026C37.9534 68.5289 39.3497 68.4789 40.3455 68.755C40.8417 68.8926 41.2189 69.1052 41.4565 69.3672C41.6884 69.6227 41.805 69.9433 41.7526 70.3412L41.7524 70.3423C41.7079 70.6916 41.4468 71.0161 40.9259 71.2862C40.4029 71.5574 39.6532 71.7524 38.7322 71.8386C37.2083 71.9812 35.2764 71.82 33.2783 71.276Z" fill="white"/>
<path fill-rule="evenodd" clip-rule="evenodd" d="M94.2755 27.2773H82.7607V26.5081H94.2755V27.2773Z" fill="#3FB1B5"/>
<path fill-rule="evenodd" clip-rule="evenodd" d="M97.8199 23.9439C96.3485 23.9439 94.9846 25.3415 94.9846 27.2772C94.9846 29.2128 96.3485 30.6104 97.8199 30.6104C99.2913 30.6104 100.655 29.2128 100.655 27.2772C100.655 25.3415 99.2913 23.9439 97.8199 23.9439ZM94.1167 27.2772C94.1167 25.1062 95.6802 23.1747 97.8199 23.1747C99.9596 23.1747 101.523 25.1062 101.523 27.2772C101.523 29.4481 99.9596 31.3796 97.8199 31.3796C95.6802 31.3796 94.1167 29.4481 94.1167 27.2772Z" fill="#3FB1B5"/>
<path fill-rule="evenodd" clip-rule="evenodd" d="M79.9685 8.96953C78.3723 8.96953 77.0899 10.1167 77.0899 11.5208V22.3154H76.2219V11.5208C76.2219 9.69409 77.8905 8.20032 79.9685 8.20032H83.5849C85.6461 8.20032 87.3315 9.67909 87.3315 11.5208H86.4636C86.4636 10.1061 85.1692 8.96953 83.5849 8.96953H79.9685Z" fill="#66B0F0"/>
<path d="M80.1424 34.1999H73.1844C71.4051 34.1999 69.9585 32.9179 69.9585 31.341V25.1745C69.9585 23.5976 71.4051 22.3156 73.1844 22.3156H80.1424C81.9216 22.3156 83.3682 23.5976 83.3682 25.1745V31.341C83.3538 32.9179 81.9216 34.1999 80.1424 34.1999Z" fill="white"/>
<path fill-rule="evenodd" clip-rule="evenodd" d="M73.1843 22.6999C71.6446 22.6999 70.3924 23.8097 70.3924 25.1742V31.3407C70.3924 32.7052 71.6446 33.815 73.1843 33.815H80.1423C81.6781 33.815 82.9207 32.7081 82.9342 31.3391V25.1742C82.9342 23.8097 81.6819 22.6999 80.1423 22.6999H73.1843ZM69.5244 25.1742C69.5244 23.3849 71.1653 21.9307 73.1843 21.9307H80.1423C82.1612 21.9307 83.8021 23.3849 83.8021 25.1742V31.3423L83.8021 31.3438C83.7857 33.1278 82.1644 34.5842 80.1423 34.5842H73.1843C71.1653 34.5842 69.5244 33.13 69.5244 31.3407V25.1742Z" fill="#66B0F0"/>
<path d="M78.3341 32.1614H74.9347C73.4736 32.1614 72.2729 31.1102 72.2729 29.8025V26.7897C72.2729 25.4949 73.4591 24.4308 74.9347 24.4308H78.3341C79.7952 24.4308 80.9958 25.4821 80.9958 26.7897V29.8025C80.9958 31.1102 79.8096 32.1614 78.3341 32.1614Z" fill="white"/>
<path fill-rule="evenodd" clip-rule="evenodd" d="M74.935 24.8157C73.7007 24.8157 72.7073 25.7062 72.7073 26.79V29.8028C72.7073 30.8967 73.7121 31.7771 74.935 31.7771H78.3345C79.5703 31.7771 80.5623 30.898 80.5623 29.8028V26.79C80.5623 25.6961 79.5574 24.8157 78.3345 24.8157H74.935ZM71.8394 26.79C71.8394 25.2841 73.2183 24.0465 74.935 24.0465H78.3345C80.0337 24.0465 81.4302 25.2686 81.4302 26.79V29.8028C81.4302 31.3229 80.0497 32.5463 78.3345 32.5463H74.935C73.2359 32.5463 71.8394 31.3242 71.8394 29.8028V26.79Z" fill="#66B0F0"/>
<path fill-rule="evenodd" clip-rule="evenodd" d="M73.2852 31.6356L79.3318 24.5076L80.0256 24.9698L73.9789 32.0978L73.2852 31.6356Z" fill="#66B0F0"/>
<path fill-rule="evenodd" clip-rule="evenodd" d="M72.1003 30.4165L77.3369 24.2628L78.0299 24.726L72.7933 30.8796L72.1003 30.4165Z" fill="#66B0F0"/>
<path fill-rule="evenodd" clip-rule="evenodd" d="M75.2668 31.9294L80.5035 25.7756L81.1965 26.2388L75.9598 32.3925L75.2668 31.9294Z" fill="#66B0F0"/>
<path fill-rule="evenodd" clip-rule="evenodd" d="M77.366 31.9299L80.6497 28.071L81.3427 28.5342L78.0589 32.3931L77.366 31.9299Z" fill="#66B0F0"/>
<path fill-rule="evenodd" clip-rule="evenodd" d="M71.9412 28.0961L75.2104 24.2628L75.9028 24.7266L72.6336 28.5599L71.9412 28.0961Z" fill="#66B0F0"/>
<path fill-rule="evenodd" clip-rule="evenodd" d="M71.072 209.977V202.913H71.94V209.977C71.94 213.6 68.621 216.541 64.5335 216.541H46.6538V215.772H64.5335C68.1417 215.772 71.072 213.175 71.072 209.977Z" fill="#66B0F0"/>
<path fill-rule="evenodd" clip-rule="evenodd" d="M77.7419 267.796V202.99H78.6099V267.796H77.7419Z" fill="#66B0F0"/>
<path fill-rule="evenodd" clip-rule="evenodd" d="M74.5157 268.181C58.8146 268.181 46.2351 277.386 46.2351 288.578H45.3672C45.3672 276.822 58.5079 267.412 74.5157 267.412H81.7196C97.7275 267.412 110.868 276.822 110.868 288.578H110C110 277.386 97.4207 268.181 81.7196 268.181H74.5157Z" fill="#66B0F0"/>
<path d="M147.74 203.977H42.7187C37.4531 203.977 33.2002 200.195 33.2002 195.542H150.228L147.74 203.977Z" fill="#FFCF2D"/>
<path d="M45.1648 302.321C49.447 302.321 52.9185 299.244 52.9185 295.449C52.9185 291.654 49.447 288.578 45.1648 288.578C40.8826 288.578 37.4111 291.654 37.4111 295.449C37.4111 299.244 40.8826 302.321 45.1648 302.321Z" fill="#FFCF2D"/>
<path d="M41.2146 217.913H56.7798C58.0527 217.913 59.0798 217.002 59.0798 215.874V215.721C59.0798 214.592 58.0527 213.682 56.7798 213.682H41.2146C39.9416 213.682 38.9146 214.592 38.9146 215.721V215.874C38.9146 217.002 39.9416 217.913 41.2146 217.913Z" fill="#FFCF2D"/>
<path fill-rule="evenodd" clip-rule="evenodd" d="M8.72142 136.172C6.7983 131.383 10.7973 126.351 16.5367 126.351H71.3186C76.6523 126.351 81.401 129.325 83.1985 133.772L83.1986 133.773L108.33 196.183H32.8954L8.72142 136.172ZM9.53897 135.914C7.81705 131.625 11.3981 127.12 16.5367 127.12H71.3186C76.2845 127.12 80.707 129.889 82.3813 134.032L107.099 195.413H33.5072L9.53911 135.914C9.53907 135.914 9.53902 135.914 9.53897 135.914Z" fill="#FFCF2D"/>
<path fill-rule="evenodd" clip-rule="evenodd" d="M11.04 128.646H66.5017C71.6617 128.646 76.2514 131.517 77.9911 135.824L77.9912 135.824L102.284 196.183H36.8903V195.413H101.052L77.1739 136.083C75.5575 132.082 71.2941 129.415 66.5017 129.415H11.04V128.646Z" fill="#FFCF2D"/>
<path d="M110.303 302.321C114.586 302.321 118.057 299.244 118.057 295.449C118.057 291.654 114.586 288.578 110.303 288.578C106.021 288.578 102.55 291.654 102.55 295.449C102.55 299.244 106.021 302.321 110.303 302.321Z" fill="#FFCF2D"/>
</svg>
