<svg width="602" height="551" viewBox="0 0 602 551" fill="none" xmlns="http://www.w3.org/2000/svg">
<path d="M378.301 15.9181L420.208 56.3535L462.326 284.295H67.2537L378.301 15.9181Z" fill="#FFCF2D"/>
<path d="M420.568 56.0359L378.534 15.4734L385.565 8.16959C395.92 -2.58497 414.575 -1.35708 425.332 8.97407C436.09 19.3264 437.974 37.9775 427.619 48.7321L420.568 56.0359Z" fill="white"/>
<path d="M420.589 56.925L377.645 15.4945L385.12 7.72497C390.16 2.47471 397.338 -0.256271 405.343 0.0189438C413.008 0.294159 420.462 3.38504 425.798 8.50828C431.134 13.6315 434.501 20.9776 435.052 28.6413C435.624 36.6226 433.146 43.9052 428.106 49.1555L420.589 56.925ZM379.424 15.4522L420.547 55.1255L427.153 48.2875C431.96 43.3124 434.29 36.3685 433.76 28.7472C433.231 21.3799 430.012 14.3513 424.888 9.43977C419.763 4.52824 412.627 1.56438 405.279 1.31034C397.656 1.03512 390.816 3.63908 386.031 8.61413L379.424 15.4522Z" fill="#FFCF2D"/>
<path d="M427.598 49.3671C427.429 49.3671 427.281 49.3036 427.153 49.1978L385.099 8.63528C384.845 8.38124 384.845 8.00017 385.078 7.74612C385.332 7.49208 385.734 7.49208 385.967 7.72495L428.022 48.2875C428.276 48.5415 428.276 48.9226 428.043 49.1766C427.937 49.3036 427.768 49.3671 427.598 49.3671Z" fill="#FFCF2D"/>
<path d="M508.828 283.194C508.743 283.194 508.658 283.173 508.574 283.131C508.256 282.983 508.108 282.602 508.256 282.284L567.23 150.773L451.929 10.4559V10.4348C449.748 7.47092 446.55 5.56558 442.908 5.03632C439.266 4.50706 435.645 5.45973 432.723 7.70379L428.022 11.3028C427.746 11.5145 427.344 11.4721 427.132 11.1757C426.921 10.9005 426.963 10.4983 427.259 10.2866L431.96 6.68761C435.158 4.25301 439.118 3.21567 443.099 3.78727C447.08 4.35887 450.574 6.43357 452.945 9.67264L568.712 150.583L568.543 150.943L509.399 282.813C509.294 283.046 509.061 283.194 508.828 283.194Z" fill="#3FB1B5"/>
<path d="M566.086 157.866C569.665 157.866 572.566 154.965 572.566 151.388C572.566 147.81 569.665 144.909 566.086 144.909C562.508 144.909 559.606 147.81 559.606 151.388C559.606 154.965 562.508 157.866 566.086 157.866Z" fill="white"/>
<path d="M566.086 158.501C562.169 158.501 558.971 155.304 558.971 151.388C558.971 147.471 562.169 144.274 566.086 144.274C570.004 144.274 573.201 147.471 573.201 151.388C573.201 155.304 570.004 158.501 566.086 158.501ZM566.086 145.545C562.868 145.545 560.242 148.17 560.242 151.388C560.242 154.606 562.868 157.231 566.086 157.231C569.305 157.231 571.931 154.606 571.931 151.388C571.931 148.17 569.305 145.545 566.086 145.545Z" fill="#FFCF2D"/>
<path d="M492.395 267.824H523.968C533.052 267.824 540.4 275.192 540.4 284.253V284.718H475.942V284.253C475.963 275.192 483.311 267.824 492.395 267.824Z" fill="white"/>
<path d="M541.036 285.354H475.307V284.253C475.328 274.853 482.993 267.189 492.395 267.189H523.968C533.37 267.189 541.036 274.853 541.036 284.253V285.354ZM476.577 284.083H539.765C539.68 275.446 532.629 268.46 523.968 268.46H492.395C483.756 268.46 476.683 275.446 476.577 284.083Z" fill="#FFCF2D"/>
<path d="M339.444 236.64H139.568C132.051 236.64 125.973 230.565 125.973 223.049V83.282C125.973 75.7666 132.051 69.6906 139.568 69.6906H339.444C346.961 69.6906 353.039 75.7666 353.039 83.282V223.028C353.06 230.543 346.961 236.64 339.444 236.64Z" fill="white"/>
<path d="M339.444 237.276H139.568C131.712 237.276 125.338 230.903 125.338 223.049V83.2821C125.338 75.4279 131.712 69.0556 139.568 69.0556H339.444C347.3 69.0556 353.674 75.4279 353.674 83.2821V223.028C353.695 226.817 352.213 230.395 349.524 233.084C346.835 235.794 343.256 237.276 339.444 237.276ZM139.568 70.3258C132.432 70.3258 126.609 76.1477 126.609 83.2821V223.049C126.609 230.184 132.432 236.005 139.568 236.005H339.444C342.917 236.005 346.178 234.65 348.634 232.195C351.07 229.739 352.425 226.479 352.404 223.028V83.2821C352.404 76.1477 346.58 70.3258 339.444 70.3258H139.568Z" fill="#3FB1B5"/>
<path d="M339.572 223.642H141.622C138.679 223.642 136.307 221.249 136.307 218.328V84.6156C136.307 81.6729 138.7 79.3018 141.622 79.3018H339.572C342.515 79.3018 344.887 81.6941 344.887 84.6156V218.307C344.908 221.249 342.515 223.642 339.572 223.642Z" fill="#66B0F0"/>
<path d="M339.572 224.277H141.622C138.34 224.277 135.672 221.609 135.672 218.328V84.6157C135.672 81.3342 138.34 78.6668 141.622 78.6668H339.572C342.854 78.6668 345.522 81.3342 345.522 84.6157V218.307C345.543 219.895 344.929 221.398 343.807 222.52C342.663 223.642 341.181 224.277 339.572 224.277ZM141.622 79.937C139.039 79.937 136.943 82.0329 136.943 84.6157V218.328C136.943 220.911 139.039 223.007 141.622 223.007H339.572C340.821 223.007 342.007 222.52 342.896 221.63C343.785 220.741 344.251 219.577 344.251 218.328V84.6157C344.251 82.0329 342.155 79.937 339.572 79.937H141.622Z" fill="#66B0F0"/>
<path d="M148.716 92.4278H145.582C144.206 92.4278 143.083 91.3058 143.083 89.9297V86.7965C143.083 85.4204 144.206 84.2984 145.582 84.2984H148.716C150.093 84.2984 151.215 85.4204 151.215 86.7965V89.9297C151.194 91.327 150.093 92.4278 148.716 92.4278ZM145.582 85.5686C144.905 85.5686 144.354 86.1191 144.354 86.7965V89.9297C144.354 90.6072 144.905 91.1576 145.582 91.1576H148.716C149.394 91.1576 149.923 90.6072 149.944 89.9086V86.7965C149.944 86.1191 149.394 85.5686 148.716 85.5686H145.582Z" fill="white"/>
<path d="M162.967 92.4278H159.833C158.457 92.4278 157.335 91.3058 157.335 89.9297V86.7965C157.335 85.4204 158.457 84.2984 159.833 84.2984H162.967C164.344 84.2984 165.466 85.4204 165.466 86.7965V89.9297C165.466 91.3058 164.344 92.4278 162.967 92.4278ZM159.833 85.5686C159.156 85.5686 158.605 86.1191 158.605 86.7965V89.9297C158.605 90.6072 159.156 91.1576 159.833 91.1576H162.967C163.645 91.1576 164.196 90.6072 164.196 89.9297V86.7965C164.196 86.1191 163.645 85.5686 162.967 85.5686H159.833Z" fill="white"/>
<path d="M177.219 92.4278H174.085C172.708 92.4278 171.586 91.3058 171.586 89.9297V86.7965C171.586 85.4204 172.708 84.2984 174.085 84.2984H177.219C178.595 84.2984 179.717 85.4204 179.717 86.7965V89.9297C179.717 91.3058 178.595 92.4278 177.219 92.4278ZM174.085 85.5686C173.407 85.5686 172.856 86.1191 172.856 86.7965V89.9297C172.856 90.6072 173.407 91.1576 174.085 91.1576H177.219C177.917 91.1576 178.447 90.6284 178.447 89.9297V86.7965C178.447 86.1191 177.896 85.5686 177.219 85.5686H174.085Z" fill="white"/>
<path d="M281.698 284.295H204.111L219.336 236.641H266.452L281.698 284.295Z" fill="white"/>
<path d="M282.566 284.931H203.243L218.87 236.006H266.918L282.566 284.931ZM204.979 283.66H280.83L265.986 237.276H219.802L204.979 283.66Z" fill="#3FB1B5"/>
<path d="M210.209 265.221L219.336 236.641H266.452L210.209 265.221Z" fill="#3FB1B5"/>
<path d="M328.052 123.781H290.338C286.463 123.781 283.308 120.627 283.308 116.753V92.4067C283.308 88.5325 286.463 85.3781 290.338 85.3781H328.052C331.927 85.3781 335.082 88.5325 335.082 92.4067V116.753C335.082 120.627 331.927 123.781 328.052 123.781ZM290.338 86.6484C287.162 86.6484 284.578 89.2312 284.578 92.4067V116.753C284.578 119.928 287.162 122.511 290.338 122.511H328.052C331.228 122.511 333.812 119.928 333.812 116.753V92.4067C333.812 89.2312 331.228 86.6484 328.052 86.6484H290.338Z" fill="white"/>
<path d="M323.499 95.3284H294.721C294.361 95.3284 294.086 95.0532 294.086 94.6933C294.086 94.3334 294.361 94.0582 294.721 94.0582H323.499C323.859 94.0582 324.134 94.3334 324.134 94.6933C324.134 95.0532 323.859 95.3284 323.499 95.3284Z" fill="white"/>
<path d="M323.499 101.891H294.721C294.361 101.891 294.086 101.616 294.086 101.256C294.086 100.896 294.361 100.621 294.721 100.621H323.499C323.859 100.621 324.134 100.896 324.134 101.256C324.134 101.616 323.859 101.891 323.499 101.891Z" fill="white"/>
<path d="M323.499 108.454H294.721C294.361 108.454 294.086 108.179 294.086 107.819C294.086 107.459 294.361 107.184 294.721 107.184H323.499C323.859 107.184 324.134 107.459 324.134 107.819C324.134 108.179 323.859 108.454 323.499 108.454Z" fill="white"/>
<path d="M323.499 115.017H294.721C294.361 115.017 294.086 114.741 294.086 114.381C294.086 114.022 294.361 113.746 294.721 113.746H323.499C323.859 113.746 324.134 114.022 324.134 114.381C324.134 114.741 323.859 115.017 323.499 115.017Z" fill="white"/>
<path d="M338.47 223.642H188.569L179.781 236.238C169.849 250.465 148.864 250.676 138.658 236.64L85.126 163.031C87.3706 165.825 97.6407 162.713 107.424 156.277C117.355 149.736 123.771 141.501 121.76 138.452L158.88 185.747L170.252 165.677C173.365 160.363 178.531 156.553 184.545 155.155L223.233 146.963H256.584L293.345 155.071C299.74 156.532 305.161 160.702 308.232 166.482L338.47 223.642Z" fill="white"/>
<path d="M159.071 247.67C150.706 247.67 143.083 243.796 138.149 237.001L84.6174 163.391L85.6338 162.629C87.4338 164.852 96.9839 162.396 107.085 155.749C111.786 152.658 115.873 149.08 118.583 145.65C121.039 142.559 122.035 139.998 121.23 138.791L122.268 138.05L158.795 184.604L169.701 165.36C172.898 159.898 178.256 155.96 184.397 154.542L223.169 146.328H256.648L256.711 146.349L293.472 154.457C300.036 155.96 305.627 160.237 308.782 166.186L339.508 224.277H188.886L180.289 236.598C175.439 243.542 167.795 247.586 159.304 247.67C159.24 247.67 159.155 247.67 159.071 247.67ZM87.0738 164.619L139.187 236.26C143.93 242.78 151.257 246.485 159.325 246.4C167.393 246.316 174.656 242.484 179.272 235.879L188.251 223.007H337.432L307.681 166.778C304.695 161.147 299.422 157.103 293.218 155.685L256.521 147.598H223.296L184.672 155.77C178.87 157.125 173.809 160.851 170.802 165.995L158.965 186.89L122.67 140.654C122.373 142.242 121.336 144.232 119.557 146.455C116.762 149.969 112.569 153.653 107.762 156.807C101.05 161.211 92.9818 164.682 88.1749 164.682C87.7937 164.682 87.4126 164.661 87.0738 164.619Z" fill="#3FB1B5"/>
<path d="M297.326 223.409C297.093 223.409 296.881 223.282 296.754 223.071L286.103 202.049C285.955 201.731 286.061 201.35 286.378 201.202C286.696 201.054 287.077 201.159 287.225 201.477L297.877 222.499C298.025 222.817 297.919 223.198 297.601 223.346C297.517 223.388 297.432 223.409 297.326 223.409Z" fill="#3FB1B5"/>
<path d="M187.721 225.378C187.615 225.378 187.531 225.357 187.425 225.315C187.107 225.166 186.98 224.764 187.149 224.468L197.695 203.657C197.843 203.34 198.246 203.213 198.542 203.382C198.86 203.53 198.987 203.933 198.817 204.229L188.272 225.039C188.166 225.251 187.954 225.378 187.721 225.378Z" fill="#3FB1B5"/>
<path d="M168.6 198.915C168.409 198.915 168.218 198.83 168.091 198.661L143.93 167.774C143.718 167.498 143.761 167.096 144.036 166.884C144.311 166.673 144.714 166.715 144.925 166.99L169.087 197.878C169.298 198.153 169.256 198.555 168.981 198.767C168.875 198.873 168.727 198.915 168.6 198.915Z" fill="#3FB1B5"/>
<path d="M252.878 168.853L243.582 157.527C243.349 157.252 243.392 156.85 243.667 156.638C243.942 156.405 244.345 156.448 244.556 156.723L253.048 167.033L272.466 150.562C272.741 150.329 273.143 150.372 273.355 150.626C273.588 150.901 273.546 151.303 273.292 151.515L252.878 168.853Z" fill="#3FB1B5"/>
<path d="M228.738 169.256L206.356 151.536C206.08 151.324 206.038 150.922 206.25 150.647C206.462 150.372 206.864 150.329 207.139 150.541L228.505 167.456L236.743 156.934C236.954 156.659 237.357 156.617 237.632 156.829C237.907 157.04 237.95 157.442 237.738 157.718L228.738 169.256Z" fill="#3FB1B5"/>
<path d="M95.3112 174.463C93.2995 174.463 92.2407 173.849 91.7113 173.172C91.4996 172.897 91.5419 172.494 91.8172 172.283C92.0925 172.071 92.4948 172.113 92.7066 172.388C93.5959 173.511 96.497 173.447 100.457 172.261C104.671 170.991 109.753 168.493 114.369 165.423C119.091 162.29 123.199 158.67 125.931 155.198C128.409 152.065 129.404 149.482 128.599 148.254C128.409 147.958 128.493 147.577 128.79 147.365C129.086 147.175 129.467 147.259 129.679 147.556C130.823 149.313 129.848 152.298 126.947 155.981C124.131 159.538 119.917 163.264 115.089 166.461C110.303 169.636 105.242 172.134 100.838 173.468C98.4451 174.188 96.6452 174.463 95.3112 174.463Z" fill="#3FB1B5"/>
<path d="M122.48 153.907C120.807 153.907 119.451 152.552 119.451 150.879C119.451 149.207 120.807 147.852 122.48 147.852C124.152 147.852 125.508 149.207 125.508 150.879C125.508 152.552 124.152 153.907 122.48 153.907ZM122.48 149.122C121.505 149.122 120.722 149.906 120.722 150.879C120.722 151.853 121.505 152.637 122.48 152.637C123.454 152.637 124.237 151.853 124.237 150.879C124.237 149.906 123.454 149.122 122.48 149.122Z" fill="#3FB1B5"/>
<path d="M240.639 168.938C238.966 168.938 237.611 167.583 237.611 165.91C237.611 164.238 238.966 162.883 240.639 162.883C242.312 162.883 243.667 164.238 243.667 165.91C243.667 167.583 242.312 168.938 240.639 168.938ZM240.639 164.153C239.665 164.153 238.881 164.937 238.881 165.91C238.881 166.884 239.665 167.668 240.639 167.668C241.613 167.668 242.396 166.884 242.396 165.91C242.396 164.937 241.613 164.153 240.639 164.153Z" fill="#3FB1B5"/>
<path d="M240.639 188.203C238.966 188.203 237.611 186.848 237.611 185.175C237.611 183.503 238.966 182.148 240.639 182.148C242.312 182.148 243.667 183.503 243.667 185.175C243.667 186.848 242.312 188.203 240.639 188.203ZM240.639 183.418C239.665 183.418 238.881 184.202 238.881 185.175C238.881 186.149 239.665 186.933 240.639 186.933C241.613 186.933 242.396 186.149 242.396 185.175C242.396 184.202 241.613 183.418 240.639 183.418Z" fill="#3FB1B5"/>
<path d="M179.018 237.255L188.568 223.642V237.255H179.018Z" fill="#3FB1B5"/>
<path d="M107.19 155.643C97.4072 162.079 87.1371 165.191 84.8925 162.396C84.8501 162.354 84.8289 162.311 84.7866 162.248C84.3207 161.549 84.3631 160.597 84.7866 159.432C86.2477 155.6 92.2827 149.673 99.9483 144.634C106.047 140.612 112.061 137.817 116.232 136.949C118.646 136.462 120.446 136.611 121.314 137.542L121.526 137.796C123.517 140.845 117.122 149.101 107.19 155.643Z" fill="#FE5244"/>
<path d="M107.191 155.643C101.621 159.305 95.8828 161.909 91.5629 162.925L72.2297 135.658C69.5404 131.847 70.4298 126.576 74.2625 123.887L91.6688 111.65L81.801 94.8624C80.3611 92.4278 81.1869 89.2734 83.6433 87.8549C84.448 87.3892 85.3162 87.1775 86.1843 87.1775C87.8572 87.1775 89.5089 88.0031 90.483 89.5274L121.336 137.5L121.548 137.838C123.517 140.844 117.122 149.101 107.191 155.643Z" fill="#E57281"/>
<path d="M97.1322 135.975C96.8569 135.975 96.5816 135.954 96.3063 135.89C95.2476 135.679 94.337 135.044 93.7653 134.154L83.5798 118.912C83.3893 118.615 83.4739 118.234 83.7492 118.023C84.0457 117.832 84.4269 117.917 84.6386 118.192L94.824 133.435C95.2264 134.049 95.8405 134.472 96.5604 134.62C97.2804 134.768 98.0216 134.62 98.6356 134.218L101.028 132.651C102.299 131.826 102.659 130.132 101.854 128.862L91.076 112.158C90.8854 111.862 90.9701 111.481 91.2665 111.29C91.563 111.1 91.9442 111.185 92.1348 111.481L102.913 128.184C104.099 130.047 103.548 132.524 101.706 133.71L99.3132 135.277C98.678 135.742 97.9157 135.975 97.1322 135.975Z" fill="#9A3B82"/>
<path d="M89.2337 141.035C87.9209 141.035 86.6292 140.4 85.8457 139.235C85.6551 138.939 85.7398 138.558 86.0362 138.346C86.3327 138.156 86.7138 138.24 86.9256 138.537C87.7514 139.786 89.4455 140.146 90.716 139.341L92.8971 137.965C93.5112 137.563 93.9559 136.949 94.1041 136.208C94.2523 135.467 94.1253 134.726 93.723 134.112C93.5324 133.816 93.6171 133.435 93.9135 133.223C94.21 133.032 94.5912 133.117 94.8029 133.413C95.3958 134.324 95.6076 135.403 95.3746 136.483C95.1417 137.542 94.5064 138.452 93.5959 139.045L91.4148 140.421C90.7372 140.823 89.9749 141.035 89.2337 141.035Z" fill="#9A3B82"/>
<path d="M81.4836 145.777C80.2131 145.777 78.9637 145.184 78.1802 144.062L72.3993 135.912C72.1876 135.615 72.2723 135.234 72.5476 135.023C72.8228 134.811 73.2252 134.896 73.4369 135.171L79.2179 143.321C80.0861 144.528 81.7166 144.846 82.9447 144.062L82.9871 144.041L84.9988 142.919C85.634 142.517 86.0576 141.903 86.227 141.183C86.3964 140.442 86.2481 139.701 85.8458 139.066L75.8721 124.247C75.6815 123.95 75.7451 123.569 76.0415 123.358C76.338 123.167 76.7191 123.231 76.9309 123.527L86.9046 138.346C87.5187 139.278 87.7093 140.379 87.4763 141.437C87.2434 142.496 86.6081 143.406 85.6764 143.978L85.6552 143.999L83.6435 145.121C82.9447 145.587 82.2036 145.777 81.4836 145.777Z" fill="#9A3B82"/>
<path d="M114.136 126.322L109.075 118.467C107.402 115.864 103.908 115.144 101.346 116.88L88.7888 125.39C88.7888 125.39 92.431 131.932 101.282 126.745L104.247 131.466C98.1908 135.298 96.4544 143.364 100.393 149.355L114.136 126.322Z" fill="#E57281"/>
<path d="M100.393 149.99C100.181 149.99 99.9908 149.884 99.8637 149.694C97.8732 146.645 97.1745 143.004 97.9579 139.447C98.6779 136.102 100.605 133.223 103.379 131.275L101.071 127.592C98.0215 129.264 95.2475 129.751 92.7911 129.095C89.6783 128.248 88.2807 125.792 88.2172 125.707L87.9419 125.199L100.308 116.562C101.706 115.63 103.358 115.292 104.988 115.63C106.619 115.969 108.016 116.922 108.927 118.34L113.988 126.194C114.178 126.491 114.094 126.872 113.797 127.062C113.501 127.253 113.12 127.168 112.929 126.872L107.868 119.018C107.148 117.896 106.047 117.133 104.734 116.879C103.442 116.604 102.108 116.879 101.028 117.62L89.6571 125.559C90.1653 126.216 91.3088 127.401 93.1299 127.888C95.3745 128.502 98.0003 127.93 100.944 126.216L101.473 125.898L105.094 131.678L104.565 132.016C101.791 133.773 99.8637 136.526 99.1649 139.743C98.4662 142.961 99.0802 146.264 100.901 149.016C101.092 149.312 101.007 149.694 100.711 149.905C100.626 149.948 100.52 149.99 100.393 149.99Z" fill="#9A3B82"/>
<path d="M107.191 155.643C101.621 159.305 95.8828 161.909 91.5629 162.926L86.7561 156.151C89.4454 152.637 94.2522 148.403 99.9485 144.656C106.047 140.633 112.061 137.839 116.232 136.971C118.646 136.484 120.446 136.632 121.315 137.563L121.526 137.818C121.548 137.86 121.569 137.881 121.59 137.923C121.611 137.945 121.611 137.966 121.632 138.008C121.653 138.05 121.675 138.072 121.696 138.114C123.136 141.353 116.804 149.292 107.191 155.643Z" fill="#9A3B82"/>
<path d="M256.563 128.333V146.942C256.563 152.34 249.067 156.701 239.856 156.701C230.623 156.701 223.148 152.34 223.148 146.942V128.333H256.563Z" fill="#E57281"/>
<path d="M228.039 153.843C225.011 152.086 223.126 149.631 223.126 146.942V128.333H256.562V133.499C256.562 138.855 253.301 143.66 248.346 145.672L228.039 153.843Z" fill="#9A3B82"/>
<path d="M265.88 127.232V127.55C265.88 130.768 263.275 133.372 260.057 133.372H256.224C254.932 138.58 250.231 142.454 244.598 142.454H235.112C229.5 142.454 224.778 138.601 223.508 133.372H219.675C216.456 133.372 213.852 130.768 213.852 127.55V127.232C213.852 124.015 216.456 121.411 219.675 121.411H223.148V116.817C223.148 111.905 226.769 107.84 231.491 107.163C232.528 108.899 235.662 113.048 242.057 112.815C245.064 112.71 247.86 112.138 250.168 111.46C252.942 110.656 255.716 112.35 256.414 114.996C256.52 115.589 256.584 116.181 256.584 116.795V121.389H260.057C263.254 121.389 265.88 124.015 265.88 127.232Z" fill="#E57281"/>
<path d="M259.231 121.389H256.562V116.287C256.562 115.843 256.499 115.398 256.393 114.996C255.694 112.349 252.92 110.656 250.146 111.46C247.838 112.138 245.064 112.709 242.036 112.815C235.641 113.048 232.507 108.899 231.469 107.163C226.747 107.84 223.126 111.905 223.126 116.816V121.41H219.802C219.802 121.41 215.99 107.628 218.849 103.733C221.665 99.9012 225.053 101.574 225.053 101.574C225.053 101.574 223.02 90.0993 234.37 90.311C245.699 90.5227 260.438 103.67 261.518 106.083C263.212 109.788 259.231 121.389 259.231 121.389Z" fill="#9A3B82"/>
<path d="M257.855 128.841C257.558 128.841 257.325 128.608 257.325 128.312C257.325 125.771 259.4 123.697 261.941 123.697C262.238 123.697 262.471 123.929 262.471 124.226C262.471 124.522 262.238 124.755 261.941 124.755C259.972 124.755 258.384 126.343 258.384 128.312C258.384 128.608 258.151 128.841 257.855 128.841Z" fill="#9A3B82"/>
<path d="M221.898 128.841C221.602 128.841 221.369 128.608 221.369 128.312C221.369 126.343 219.781 124.755 217.811 124.755C217.515 124.755 217.282 124.522 217.282 124.226C217.282 123.929 217.515 123.697 217.811 123.697C220.352 123.697 222.428 125.771 222.428 128.312C222.428 128.608 222.195 128.841 221.898 128.841Z" fill="#9A3B82"/>
<path d="M251.227 117.346C251.121 117.346 251.015 117.303 250.909 117.24C250.803 117.155 248.071 115.228 244.578 116.689C244.302 116.795 244.006 116.668 243.879 116.393C243.773 116.118 243.9 115.821 244.175 115.694C248.241 114.022 251.396 116.266 251.523 116.372C251.756 116.541 251.82 116.88 251.629 117.113C251.544 117.261 251.396 117.346 251.227 117.346Z" fill="#9A3B82"/>
<path d="M228.272 117.346C228.103 117.346 227.955 117.261 227.849 117.134C227.679 116.901 227.722 116.563 227.955 116.393C228.082 116.288 231.258 114.043 235.303 115.716C235.578 115.822 235.705 116.139 235.599 116.415C235.493 116.69 235.175 116.817 234.9 116.711C231.385 115.25 228.611 117.24 228.569 117.261C228.484 117.304 228.378 117.346 228.272 117.346Z" fill="#9A3B82"/>
<path d="M241.189 135.171C240.364 135.171 239.411 135.002 238.331 134.599C238.055 134.494 237.907 134.197 238.013 133.922C238.119 133.647 238.415 133.499 238.691 133.604C243.138 135.256 244.599 132.334 244.662 132.207C244.789 131.953 245.107 131.826 245.361 131.953C245.615 132.08 245.742 132.398 245.615 132.652C245.594 132.694 244.387 135.171 241.189 135.171Z" fill="#9A3B82"/>
<path d="M239.686 131.191C239.199 131.191 238.669 131.191 238.225 131.149C237.928 131.128 237.716 130.874 237.738 130.577C237.759 130.281 238.013 130.069 238.309 130.09C239.559 130.175 241.486 130.09 241.507 130.09C241.803 130.069 242.036 130.302 242.057 130.598C242.079 130.895 241.846 131.128 241.549 131.149C241.507 131.149 240.639 131.191 239.686 131.191Z" fill="#9A3B82"/>
<path d="M247.817 125.644C248.402 125.644 248.876 124.848 248.876 123.866C248.876 122.884 248.402 122.088 247.817 122.088C247.233 122.088 246.759 122.884 246.759 123.866C246.759 124.848 247.233 125.644 247.817 125.644Z" fill="#9A3B82"/>
<path d="M232.634 125.644C233.219 125.644 233.693 124.848 233.693 123.866C233.693 122.884 233.219 122.088 232.634 122.088C232.049 122.088 231.575 122.884 231.575 123.866C231.575 124.848 232.049 125.644 232.634 125.644Z" fill="#9A3B82"/>
<path d="M235.154 130.387H228.484C226.917 130.387 225.625 129.095 225.625 127.529V120.86C225.625 119.293 226.917 118.002 228.484 118.002H235.154C236.721 118.002 238.013 119.293 238.013 120.86V127.529C238.034 128.27 237.738 128.989 237.208 129.519C236.658 130.09 235.938 130.387 235.154 130.387ZM228.484 119.06C227.489 119.06 226.684 119.865 226.684 120.86V127.529C226.684 128.524 227.489 129.328 228.484 129.328H235.154C235.641 129.328 236.107 129.138 236.446 128.778C236.785 128.439 236.954 127.994 236.954 127.529V120.86C236.954 119.865 236.149 119.06 235.154 119.06H228.484Z" fill="white"/>
<path d="M251.48 130.387H244.81C243.243 130.387 241.951 129.095 241.951 127.529V120.86C241.951 119.293 243.243 118.002 244.81 118.002H251.48C253.047 118.002 254.339 119.293 254.339 120.86V127.529C254.339 129.095 253.047 130.387 251.48 130.387ZM244.81 119.06C243.815 119.06 243.01 119.865 243.01 120.86V127.529C243.01 128.524 243.815 129.328 244.81 129.328H251.48C252.475 129.328 253.28 128.524 253.28 127.529V120.86C253.28 119.865 252.475 119.06 251.48 119.06H244.81Z" fill="white"/>
<path d="M242.481 122.405H237.505V123.464H242.481V122.405Z" fill="white"/>
<path d="M253.239 216.063H230.094C227.637 216.063 225.647 214.073 225.647 211.617V199.317C225.647 196.861 227.637 194.871 230.094 194.871H253.239C255.695 194.871 257.686 196.861 257.686 199.317V211.617C257.686 214.073 255.695 216.063 253.239 216.063ZM230.094 196.142C228.336 196.142 226.918 197.56 226.918 199.317V211.617C226.918 213.374 228.336 214.793 230.094 214.793H253.239C254.996 214.793 256.415 213.374 256.415 211.617V199.317C256.415 197.56 254.996 196.142 253.239 196.142H230.094Z" fill="#66B0F0"/>
<path d="M242.248 210.474H234.413C233.164 210.474 232.148 209.458 232.148 208.209V202.726C232.148 201.477 233.164 200.461 234.413 200.461H242.248C243.498 200.461 244.514 201.477 244.514 202.726V208.209C244.514 209.458 243.498 210.474 242.248 210.474Z" fill="#66B0F0"/>
<path d="M249.872 210.326L247.458 208.717C246.801 208.272 246.399 207.51 246.399 206.685V204.271C246.399 203.446 246.801 202.683 247.458 202.239L249.872 200.63C250.443 200.249 251.185 200.672 251.185 201.392V209.585C251.206 210.284 250.443 210.707 249.872 210.326Z" fill="#66B0F0"/>
<path d="M562.783 285.354H0.635267C0.275282 285.354 0 285.079 0 284.719C0 284.359 0.275282 284.084 0.635267 284.084H562.783C563.143 284.084 563.418 284.359 563.418 284.719C563.418 285.079 563.143 285.354 562.783 285.354Z" fill="#3FB1B5"/>
<path d="M181.623 288.423V549.793H166.864V500.043C166.864 495.406 163.094 491.638 158.457 491.638H52.8121C48.1746 491.638 44.4054 495.406 44.4054 500.043V549.793H29.646V288.423H181.623Z" fill="white"/>
<path d="M182.258 550.428H166.228V500.043C166.228 495.766 162.734 492.273 158.457 492.273H52.8121C48.5346 492.273 45.0407 495.766 45.0407 500.043V550.428H29.0107V287.788H182.258V550.428ZM167.499 549.158H180.988V289.059H30.2813V549.158H43.7701V500.043C43.7701 495.068 47.8358 491.003 52.8121 491.003H158.457C163.433 491.003 167.499 495.068 167.499 500.043V549.158Z" fill="#3FB1B5"/>
<path d="M182.068 288.423V357.778L29.646 483.255L29.6672 288.423H182.068Z" fill="#D0F0E4"/>
<path d="M158.902 364.319H52.3885C47.6452 364.319 43.7913 360.466 43.7913 355.724V308.324C43.7913 303.581 47.6452 299.728 52.3885 299.728H158.902C163.645 299.728 167.499 303.581 167.499 308.324V355.724C167.499 360.466 163.645 364.319 158.902 364.319ZM52.3885 300.999C48.344 300.999 45.0618 304.28 45.0618 308.324V355.724C45.0618 359.768 48.344 363.049 52.3885 363.049H158.902C162.946 363.049 166.228 359.768 166.228 355.724V308.324C166.228 304.28 162.946 300.999 158.902 300.999H52.3885Z" fill="#3FB1B5"/>
<path d="M132.728 399.589H80.2975L78.1165 384.579H130.568L132.728 399.589Z" fill="#FFCF2D"/>
<path d="M160.702 375.921C154.158 375.921 148.864 381.213 148.864 387.755V399.589H104.248V387.755C104.248 381.213 109.541 375.921 116.085 375.921H160.702Z" fill="white"/>
<path d="M149.5 400.225H103.612V387.755C103.612 380.875 109.203 375.286 116.085 375.286H160.702V376.556C154.518 376.556 149.5 381.573 149.5 387.755V400.225ZM104.883 398.954H148.229V387.755C148.229 382.844 151.088 378.588 155.217 376.556H116.085C109.901 376.556 104.883 381.573 104.883 387.755V398.954Z" fill="#3FB1B5"/>
<path d="M171.819 384.58H127.202C125.826 379.583 121.231 375.921 115.789 375.921H160.405C165.848 375.921 170.422 379.583 171.819 384.58Z" fill="white"/>
<path d="M172.667 385.215H126.737L126.61 384.749C125.276 379.922 120.829 376.556 115.81 376.556V375.286H160.427C165.996 375.286 170.951 379.033 172.455 384.41L172.667 385.215ZM127.669 383.945H170.951C169.363 379.562 165.128 376.556 160.406 376.556H121.274C124.259 378.017 126.631 380.663 127.669 383.945Z" fill="#3FB1B5"/>
<path d="M158.902 463.545H52.3885C47.6452 463.545 43.7913 459.692 43.7913 454.95V407.549C43.7913 402.807 47.6452 398.954 52.3885 398.954H158.902C163.645 398.954 167.499 402.807 167.499 407.549V454.95C167.499 459.692 163.645 463.545 158.902 463.545ZM52.3885 400.224C48.344 400.224 45.0618 403.506 45.0618 407.549V454.95C45.0618 458.993 48.344 462.275 52.3885 462.275H158.902C162.946 462.275 166.228 458.993 166.228 454.95V407.549C166.228 403.506 162.946 400.224 158.902 400.224H52.3885Z" fill="#3FB1B5"/>
<path d="M127.477 331.717C127.117 331.717 126.842 331.442 126.842 331.082C126.842 327.652 124.068 324.879 120.637 324.879H90.6737C87.2433 324.879 84.4693 327.652 84.4693 331.082C84.4693 331.442 84.194 331.717 83.834 331.717C83.474 331.717 83.1987 331.442 83.1987 331.082C83.1987 326.953 86.5445 323.608 90.6737 323.608H120.637C124.766 323.608 128.112 326.953 128.112 331.082C128.112 331.442 127.837 331.717 127.477 331.717Z" fill="#3FB1B5"/>
<path d="M127.477 430.942C127.117 430.942 126.842 430.667 126.842 430.307C126.842 426.878 124.068 424.104 120.637 424.104H90.6737C87.2433 424.104 84.4693 426.878 84.4693 430.307C84.4693 430.667 84.194 430.942 83.834 430.942C83.474 430.942 83.1987 430.667 83.1987 430.307C83.1987 426.179 86.5445 422.834 90.6737 422.834H120.637C124.766 422.834 128.112 426.179 128.112 430.307C128.112 430.667 127.837 430.942 127.477 430.942Z" fill="#3FB1B5"/>
<path d="M540.4 288.423H524.667V550.365H540.4V288.423Z" fill="white"/>
<path d="M541.035 551H524.031V287.788H541.035V551ZM525.302 549.73H539.765V289.059H525.302V549.73Z" fill="#3FB1B5"/>
<path d="M601.365 551H273.017C272.657 551 272.381 550.725 272.381 550.365C272.381 550.005 272.657 549.73 273.017 549.73H601.365C601.725 549.73 602 550.005 602 550.365C602 550.725 601.725 551 601.365 551Z" fill="#3FB1B5"/>
<path d="M74.3262 248.792H64.8184C64.8184 248.792 51.2449 192.246 39.3231 190.404C27.4012 188.562 26.7871 210.326 26.7871 210.326C26.7871 210.326 26.9989 177.236 56.7929 181.767C86.6081 186.297 74.3262 248.792 74.3262 248.792Z" fill="white"/>
<path d="M74.8562 249.427H64.3319L64.2049 248.941C64.1625 248.792 60.7533 234.651 55.9464 220.488C47.9844 197.052 42.4576 191.526 39.2389 191.039C37.0366 190.701 35.0885 191.209 33.4792 192.564C27.8676 197.221 27.4441 210.22 27.4441 210.347L26.1736 210.326C26.1736 210.156 26.2159 206.282 27.4653 201.328C28.6299 196.734 31.0863 190.32 36.232 185.916C41.4623 181.449 48.4079 179.84 56.9205 181.153C62.4261 181.979 66.8942 184.815 70.2187 189.536C75.555 197.137 77.9902 209.437 77.4184 226.14C76.9949 238.525 75.0044 248.814 74.9832 248.919L74.8562 249.427ZM65.3272 248.157H73.8186C74.2209 245.934 75.7879 236.789 76.1479 226.076C76.5291 214.793 75.6185 199.444 69.1811 190.277C66.0683 185.832 61.8756 183.185 56.7299 182.423C48.6197 181.195 41.9917 182.698 37.0578 186.911C35.5755 188.181 34.305 189.642 33.2462 191.188C35.0461 189.917 37.1213 189.473 39.4506 189.833C44.6387 190.637 50.6102 200.841 57.1746 220.149C61.4732 232.83 64.6707 245.532 65.3272 248.157Z" fill="#3FB1B5"/>
<path d="M70.1548 248.581C69.816 248.581 69.5196 248.305 69.5196 247.946C68.8208 205.795 59.8847 190.913 52.5156 185.874C46.9252 182.042 42.0337 183.778 41.9913 183.799C41.6525 183.926 41.2925 183.757 41.1655 183.418C41.0384 183.079 41.2078 182.72 41.5466 182.593C41.7796 182.508 47.0946 180.624 53.2355 184.815C57.9789 188.076 61.854 194.046 64.7339 202.599C68.4396 213.607 70.4725 228.85 70.7901 247.924C70.7901 248.284 70.5148 248.581 70.1548 248.581Z" fill="#3FB1B5"/>
<path d="M100.224 247.946H55.5649V284.295H100.224V247.946Z" fill="#FE5244"/>
<path d="M109.626 266.131C106.789 267.359 103.401 267.21 100.246 265.834C97.9162 264.818 95.714 263.146 93.9352 260.859C91.4789 257.684 89.8272 253.344 89.8272 247.945C89.8272 234.862 79.4088 226.648 75.1313 243.965C74.8349 245.172 74.5596 246.485 74.3267 247.945V247.903V247.818C74.3267 247.776 74.3267 247.712 74.3479 247.649V247.564C74.4326 246.485 74.7502 243.288 75.7243 239.435C76.4442 236.577 77.5242 233.401 79.1335 230.459C79.9382 228.998 80.8699 227.601 81.9711 226.351C84.8086 223.091 88.7049 220.805 94.0199 220.805C103.803 220.805 110.96 232.322 113.692 243.796C116.085 253.767 115.111 263.738 109.626 266.131Z" fill="white"/>
<path d="M105.455 267.592C103.655 267.592 101.77 267.189 99.9914 266.406C97.4715 265.305 95.2057 263.527 93.427 261.24C90.653 257.663 89.1919 253.047 89.1919 247.945C89.1919 241.975 86.5661 235.243 82.6486 234.777C79.8111 234.439 77.3124 237.847 75.7454 244.114C75.4277 245.426 75.1736 246.696 74.9407 248.051L73.6702 247.945V247.818C73.6702 247.776 73.6702 247.67 73.6913 247.564V247.501C73.776 246.315 74.1149 243.14 75.0889 239.266C75.9571 235.836 77.1218 232.766 78.5617 230.141C79.4723 228.511 80.4252 227.114 81.4839 225.928C84.8085 222.096 89.0224 220.17 94.0199 220.17C104.184 220.17 111.532 231.962 114.306 243.648C115.534 248.792 115.873 253.852 115.238 257.895C114.539 262.447 112.676 265.474 109.88 266.702C108.525 267.295 107.022 267.592 105.455 267.592ZM82.2674 233.486C82.458 233.486 82.6274 233.507 82.7968 233.528C87.0319 234.036 90.4624 240.515 90.4624 247.967C90.4624 252.793 91.8388 257.133 94.4434 260.499C96.0951 262.617 98.1915 264.268 100.5 265.284C103.528 266.597 106.768 266.702 109.372 265.58C114.115 263.506 115.619 254.635 113.078 243.987C111.659 237.995 109.139 232.47 106.005 228.426C102.469 223.875 98.3397 221.482 94.0199 221.482C89.4248 221.482 85.5285 223.282 82.458 226.817C81.4628 227.96 80.5522 229.252 79.7052 230.819C78.6464 232.766 77.7359 234.947 76.9947 237.36C77.3547 236.767 77.7147 236.238 78.0959 235.772C79.5993 233.931 81.124 233.486 82.2674 233.486Z" fill="#3FB1B5"/>
<path d="M107.36 267.168C107.043 267.168 106.767 266.935 106.725 266.597C103.633 237.572 96.5819 228.596 91.2245 226.182C86.4388 224.023 82.3943 226.839 82.3519 226.86C82.0766 227.072 81.6743 226.987 81.4625 226.712C81.2508 226.436 81.3355 226.034 81.6108 225.823C81.8013 225.695 86.2906 222.562 91.7327 225.018C95.3325 226.648 98.4665 230.332 101.029 236.005C104.247 243.098 106.577 253.344 107.974 266.449C108.017 266.787 107.763 267.105 107.403 267.147C107.403 267.168 107.381 267.168 107.36 267.168Z" fill="#3FB1B5"/>
<path d="M26.1518 210.326C26.1518 213.819 25.7495 227.177 38.4972 227.791C51.2449 228.405 52.5154 209.161 52.5154 209.161C52.5154 209.161 46.2474 192.14 39.323 190.404C27.6129 187.462 26.1518 210.326 26.1518 210.326Z" fill="#3FB1B5"/>
<path d="M89.8267 247.946H74.3262C77.9048 225.526 89.8267 233.952 89.8267 247.946Z" fill="#3FB1B5"/>
<path opacity="0.4" d="M353.06 83.2821V223.028C353.06 230.543 346.962 236.619 339.466 236.619H179.484C169.447 250.444 148.758 250.507 138.637 236.619L138.615 236.598C134.592 236.323 131.035 234.269 128.748 231.242L132.432 228.067L226.452 146.941L315.982 69.6906H339.466C346.962 69.6906 353.06 75.7877 353.06 83.2821Z" fill="white"/>
<path opacity="0.4" d="M109.626 266.766C106.81 268.036 103.4 267.846 100.245 266.47V284.295H67.2749L93.9561 261.283L100.266 255.842L105.073 251.693L114.369 243.796C117.08 255.355 115.576 264.035 109.626 266.766Z" fill="white"/>
<path d="M390.392 360.826V478.66H363.161L345.818 430.244L320.979 360.826H390.392Z" fill="#A0505A"/>
<path d="M320.979 360.826H390.392V398.657L329.237 383.88L320.979 360.826Z" fill="#73325A"/>
<path d="M391.028 479.295H362.716L344.654 428.867L346.136 429.672C346.178 429.693 349.693 431.577 356.851 432.509C363.457 433.377 374.638 433.567 390.245 429.608L391.028 429.418V479.295ZM363.606 478.025H389.757V431.048C374.299 434.88 363.203 434.647 356.575 433.779C351.769 433.144 348.592 432.106 346.919 431.429L363.606 478.025Z" fill="white"/>
<path d="M359.985 442.247C357.931 442.247 356.258 440.575 356.258 438.521C356.258 436.468 357.931 434.795 359.985 434.795C362.039 434.795 363.712 436.468 363.712 438.521C363.712 440.575 362.039 442.247 359.985 442.247ZM359.985 436.065C358.629 436.065 357.528 437.166 357.528 438.521C357.528 439.876 358.629 440.977 359.985 440.977C361.34 440.977 362.441 439.876 362.441 438.521C362.441 437.166 361.34 436.065 359.985 436.065Z" fill="white"/>
<path d="M374.723 452.218C372.669 452.218 370.996 450.546 370.996 448.493C370.996 446.439 372.669 444.766 374.723 444.766C376.777 444.766 378.45 446.439 378.45 448.493C378.45 450.546 376.777 452.218 374.723 452.218ZM374.723 446.037C373.368 446.037 372.267 447.138 372.267 448.493C372.267 449.847 373.368 450.948 374.723 450.948C376.078 450.948 377.179 449.847 377.179 448.493C377.179 447.138 376.078 446.037 374.723 446.037Z" fill="white"/>
<path d="M385.692 441.146C383.638 441.146 381.965 439.474 381.965 437.42C381.965 435.367 383.638 433.694 385.692 433.694C387.746 433.694 389.419 435.367 389.419 437.42C389.419 439.474 387.746 441.146 385.692 441.146ZM385.692 434.964C384.337 434.964 383.235 436.065 383.235 437.42C383.235 438.775 384.337 439.876 385.692 439.876C387.047 439.876 388.148 438.775 388.148 437.42C388.148 436.065 387.047 434.964 385.692 434.964Z" fill="white"/>
<path d="M381.351 463.82C379.297 463.82 377.624 462.147 377.624 460.094C377.624 458.04 379.297 456.368 381.351 456.368C383.405 456.368 385.078 458.04 385.078 460.094C385.078 462.147 383.405 463.82 381.351 463.82ZM381.351 457.638C379.996 457.638 378.895 458.739 378.895 460.094C378.895 461.449 379.996 462.549 381.351 462.549C382.706 462.549 383.807 461.449 383.807 460.094C383.807 458.739 382.706 457.638 381.351 457.638Z" fill="white"/>
<path d="M363.077 458.189C361.023 458.189 359.35 456.516 359.35 454.463C359.35 452.409 361.023 450.736 363.077 450.736C365.131 450.736 366.803 452.409 366.803 454.463C366.803 456.516 365.131 458.189 363.077 458.189ZM363.077 452.007C361.721 452.007 360.62 453.108 360.62 454.463C360.62 455.817 361.721 456.918 363.077 456.918C364.432 456.918 365.533 455.817 365.533 454.463C365.533 453.108 364.432 452.007 363.077 452.007Z" fill="white"/>
<path d="M368.116 475.125C366.062 475.125 364.389 473.452 364.389 471.399C364.389 469.345 366.062 467.673 368.116 467.673C370.17 467.673 371.843 469.345 371.843 471.399C371.843 473.452 370.17 475.125 368.116 475.125ZM368.116 468.943C366.761 468.943 365.66 470.044 365.66 471.399C365.66 472.754 366.761 473.855 368.116 473.855C369.471 473.855 370.572 472.754 370.572 471.399C370.572 470.044 369.471 468.943 368.116 468.943Z" fill="white"/>
<path d="M403.267 500.635L384.59 539.399C381.943 545.644 375.824 549.709 369.026 549.709H345.204C339.105 549.709 335.4 543.527 337.729 537.895L361.678 480.143C363.013 476.628 365.363 473.707 368.306 471.653C371.271 469.6 374.828 468.435 378.577 468.435C383.786 468.435 388.953 471.971 392.383 475.887L400.684 484.842C404.517 489.203 405.512 495.322 403.267 500.635Z" fill="#66B0F0"/>
<path d="M403.267 500.635L384.59 539.398C381.943 545.644 375.824 549.708 369.026 549.708H343.7C341.35 549.708 340.016 548.248 339.232 546.236H344.865C351.662 546.236 357.782 542.172 360.429 535.926L381.965 491.024C383.976 486.832 388.233 484.144 392.891 484.144C398.969 484.144 403.585 488.589 404.432 494.221C404.517 496.38 404.135 498.561 403.267 500.635Z" fill="white"/>
<path d="M369.026 550.344H343.7C341.35 550.344 339.635 549.031 338.639 546.469C338.555 546.279 338.597 546.046 338.703 545.877C338.83 545.707 339.02 545.601 339.232 545.601H344.865C351.408 545.601 357.295 541.706 359.836 535.672C359.836 535.672 359.836 535.651 359.857 535.651L381.393 490.749C383.51 486.345 388.021 483.509 392.891 483.509C399.011 483.509 404.135 487.975 405.067 494.136C405.067 494.157 405.067 494.178 405.067 494.2C405.152 496.486 404.749 498.751 403.86 500.889C403.86 500.889 403.86 500.911 403.839 500.911L385.162 539.652C382.409 546.152 376.078 550.344 369.026 550.344ZM340.227 546.872C341.032 548.375 342.154 549.073 343.7 549.073H369.026C375.569 549.073 381.456 545.178 383.997 539.144C383.997 539.144 383.997 539.123 384.019 539.123L402.695 500.381C403.5 498.434 403.881 496.38 403.797 494.284C402.95 488.78 398.376 484.779 392.891 484.779C388.508 484.779 384.442 487.34 382.536 491.299L361.001 536.181C358.248 542.68 351.916 546.872 344.865 546.872H340.227Z" fill="#66B0F0"/>
<path d="M398.969 482.979C396.724 481.751 394.014 480.862 391.642 480.862C387.089 480.862 382.875 483.509 380.906 487.616L358.608 534.106C355.771 540.817 349.206 545.157 341.901 545.157H337.793C337.581 544.755 337.433 544.331 337.284 543.887H341.901C348.698 543.887 354.797 539.843 357.444 533.598L357.465 533.577L379.784 487.065C381.965 482.514 386.623 479.592 391.663 479.592C393.273 479.592 395.2 480.121 396.851 480.693L398.969 482.979Z" fill="white"/>
<path d="M320.979 360.826L315.664 430.244L313.292 461.343C313.292 461.343 297.813 478.576 280.195 467.948L272.042 430.265L253.386 344.038C248.347 320.729 264.271 298.056 287.924 294.901L320.979 360.826Z" fill="#A0505A"/>
<path d="M292.117 472.881C288.326 472.881 284.155 471.929 279.877 469.346L279.644 469.198L271.216 429.355L272.233 429.672C292.286 435.685 315.283 429.715 315.515 429.651L316.384 429.418L313.927 462.465L313.779 462.635C313.61 462.804 309.756 467.059 303.636 470.065C300.566 471.547 296.585 472.881 292.117 472.881ZM280.766 468.393C287.797 472.542 295.293 472.712 303.043 468.922C308.295 466.34 311.937 462.698 312.678 461.915L314.965 431.07C313.038 431.514 308.041 432.594 301.582 433.187C294.149 433.885 283.244 434.055 272.868 431.176L280.766 468.393Z" fill="white"/>
<path d="M291.333 450.081C289.279 450.081 287.606 448.408 287.606 446.355C287.606 444.301 289.279 442.629 291.333 442.629C293.387 442.629 295.06 444.301 295.06 446.355C295.06 448.408 293.387 450.081 291.333 450.081ZM291.333 443.899C289.977 443.899 288.876 445 288.876 446.355C288.876 447.709 289.977 448.81 291.333 448.81C292.688 448.81 293.789 447.709 293.789 446.355C293.789 445 292.688 443.899 291.333 443.899Z" fill="white"/>
<path d="M310.984 445.339C308.93 445.339 307.257 443.666 307.257 441.613C307.257 439.559 308.93 437.887 310.984 437.887C313.038 437.887 314.711 439.559 314.711 441.613C314.711 443.666 313.038 445.339 310.984 445.339ZM310.984 439.157C309.629 439.157 308.527 440.258 308.527 441.613C308.527 442.968 309.629 444.068 310.984 444.068C312.339 444.068 313.44 442.968 313.44 441.613C313.44 440.258 312.339 439.157 310.984 439.157Z" fill="white"/>
<path d="M279.475 441.147C277.421 441.147 275.748 439.474 275.748 437.421C275.748 435.367 277.421 433.695 279.475 433.695C281.529 433.695 283.202 435.367 283.202 437.421C283.202 439.474 281.529 441.147 279.475 441.147ZM279.475 434.965C278.119 434.965 277.018 436.066 277.018 437.421C277.018 438.776 278.119 439.876 279.475 439.876C280.83 439.876 281.931 438.776 281.931 437.421C281.931 436.066 280.83 434.965 279.475 434.965Z" fill="white"/>
<path d="M288.242 466.911C286.187 466.911 284.515 465.238 284.515 463.185C284.515 461.131 286.187 459.459 288.242 459.459C290.296 459.459 291.968 461.131 291.968 463.185C291.968 465.238 290.296 466.911 288.242 466.911ZM288.242 460.729C286.886 460.729 285.785 461.83 285.785 463.185C285.785 464.54 286.886 465.641 288.242 465.641C289.597 465.641 290.698 464.54 290.698 463.185C290.698 461.83 289.597 460.729 288.242 460.729Z" fill="white"/>
<path d="M302.662 460.729C300.608 460.729 298.935 459.057 298.935 457.003C298.935 454.95 300.608 453.277 302.662 453.277C304.716 453.277 306.389 454.95 306.389 457.003C306.389 459.057 304.716 460.729 302.662 460.729ZM302.662 454.547C301.306 454.547 300.205 455.648 300.205 457.003C300.205 458.358 301.306 459.459 302.662 459.459C304.017 459.459 305.118 458.358 305.118 457.003C305.118 455.648 304.017 454.547 302.662 454.547Z" fill="white"/>
<path d="M333.705 468.753L313.292 550.365H306.855C306.558 550.365 306.283 550.344 305.987 550.323C301.116 549.878 297.008 545.771 295.97 540.923L280.174 467.906C297.792 478.555 313.292 461.322 313.292 461.322L333.705 468.753Z" fill="#66B0F0"/>
<path d="M334.743 510.629C339.041 487.934 340.227 470.595 332.816 469.198C325.404 467.801 312.212 482.853 307.913 505.548C303.615 528.242 305.859 548.312 313.271 549.709C320.682 551.128 330.444 533.344 334.743 510.629Z" fill="white"/>
<path d="M314.118 550.429C313.8 550.429 313.462 550.408 313.144 550.344C309.29 549.624 306.601 544.416 305.563 535.694C304.568 527.289 305.182 516.535 307.278 505.442C309.269 494.962 313.313 485.203 318.671 477.962C323.583 471.336 328.92 467.822 332.922 468.584C336.776 469.304 338.682 473.665 338.788 481.921C338.872 488.653 337.75 498.074 335.357 510.755C333.663 519.689 331.101 528.094 327.946 535.059C324.833 541.939 321.424 546.766 318.099 549.031C316.744 549.942 315.41 550.429 314.118 550.429ZM331.821 469.748C328.433 469.748 323.88 473.093 319.708 478.725C314.457 485.817 310.497 495.386 308.528 505.674C306.452 516.662 305.838 527.268 306.812 535.546C307.765 543.548 310.158 548.481 313.377 549.095C314.605 549.328 315.96 548.947 317.4 547.973C323.901 543.548 330.783 528.157 334.108 510.522C336.501 497.947 337.602 488.59 337.517 481.942C337.432 474.49 335.802 470.426 332.689 469.833C332.414 469.769 332.117 469.748 331.821 469.748Z" fill="#66B0F0"/>
<path d="M304.949 505.187C302.725 516.958 302.069 528.326 303.128 537.218C303.89 543.611 305.499 548.163 307.702 550.365H306.855C306.558 550.365 306.283 550.344 305.986 550.322C303.996 547.697 302.577 543.294 301.857 537.366C300.777 528.369 301.434 516.852 303.7 504.954C305.838 493.692 310.158 483.128 315.897 475.189C319.327 470.447 322.927 467.123 326.209 465.62L328.115 466.255C320.555 468.499 309.078 483.403 304.949 505.187Z" fill="white"/>
<path d="M287.924 294.88L384.527 284.93L481.088 312.007L480.262 324.837C478.949 345.076 461.5 360.826 441.214 360.826H321L287.924 294.88Z" fill="#FE5244"/>
<path d="M436.958 352.571H316.744C316.384 352.571 316.109 352.296 316.109 351.936C316.109 351.576 316.384 351.301 316.744 351.301H436.958C446.148 351.301 455.783 346.453 463.406 337.963C470.627 329.918 474.947 319.862 474.947 311.077C474.947 310.717 475.222 310.442 475.582 310.442C475.942 310.442 476.217 310.717 476.217 311.077C476.217 320.18 471.77 330.554 464.359 338.831C456.481 347.553 446.508 352.571 436.958 352.571Z" fill="white"/>
<path d="M427.492 341.985H311.874C311.514 341.985 311.238 341.71 311.238 341.35C311.238 340.99 311.514 340.715 311.874 340.715H427.492C435.518 340.715 443.818 336.947 450.828 330.087C457.413 323.652 462.029 315.353 463.491 307.308C463.554 306.969 463.893 306.736 464.232 306.8C464.571 306.863 464.803 307.202 464.74 307.541C461.754 323.821 445.724 341.985 427.492 341.985Z" fill="white"/>
<path d="M417.306 331.188H305.732C305.372 331.188 305.097 330.913 305.097 330.553C305.097 330.193 305.372 329.918 305.732 329.918H417.306C432.553 329.918 445.788 316.2 450.51 303.307C450.637 302.968 450.997 302.799 451.314 302.926C451.653 303.053 451.823 303.413 451.696 303.73C449.07 310.907 444.326 317.66 438.313 322.741C431.769 328.267 424.506 331.188 417.306 331.188Z" fill="white"/>
<path d="M411.801 319.544H300.227C299.867 319.544 299.592 319.269 299.592 318.909C299.592 318.549 299.867 318.274 300.227 318.274H411.801C422.304 318.274 433.315 311.436 440.557 300.449C440.748 300.152 441.15 300.068 441.447 300.258C441.743 300.449 441.828 300.851 441.637 301.147C434.141 312.495 422.728 319.544 411.801 319.544Z" fill="white"/>
<path d="M406.507 308.959H294.933C294.573 308.959 294.298 308.684 294.298 308.324C294.298 307.964 294.573 307.689 294.933 307.689H406.507C414.596 307.689 422.749 303.963 429.461 297.21C429.715 296.956 430.118 296.956 430.351 297.21C430.605 297.464 430.605 297.866 430.351 298.099C423.405 305.106 414.935 308.959 406.507 308.959Z" fill="white"/>
<path d="M400.79 298.162H289.216C288.856 298.162 288.58 297.887 288.58 297.527C288.58 297.167 288.856 296.892 289.216 296.892H400.79C405.554 296.892 410.34 295.537 415.041 292.891C415.337 292.722 415.74 292.827 415.909 293.124C416.078 293.42 415.973 293.822 415.676 293.992C410.784 296.765 405.766 298.162 400.79 298.162Z" fill="white"/>
<path d="M320.768 361.462C320.535 361.462 320.302 361.335 320.196 361.102L287.141 295.156C286.992 294.839 287.12 294.458 287.416 294.309C287.734 294.161 288.115 294.288 288.263 294.585L321.318 360.53C321.466 360.848 321.339 361.229 321.043 361.377C320.958 361.441 320.873 361.462 320.768 361.462Z" fill="white"/>
<path d="M486.381 223.642C477.276 226.225 468.319 225.463 467.366 222.69C466.476 220.043 470.5 215.513 478.652 212.507C479.055 212.358 479.478 212.21 479.902 212.062C482.358 211.236 484.814 210.707 487.123 210.432C493.962 209.564 499.531 210.792 500.23 212.867C501.183 215.64 496.016 220.911 486.381 223.642Z" fill="white"/>
<path d="M475.539 225.865C470.923 225.865 467.429 224.827 466.751 222.901C465.608 219.514 470.626 214.793 478.419 211.914C478.821 211.765 479.245 211.617 479.668 211.469H479.69C482.082 210.664 484.56 210.114 487.037 209.818C494.047 208.928 499.976 210.156 500.823 212.676C501.119 213.501 500.971 214.517 500.42 215.576C498.642 218.963 493.2 222.393 486.55 224.277C482.718 225.336 478.843 225.865 475.539 225.865ZM491.463 210.791C490.171 210.791 488.753 210.876 487.207 211.067C484.814 211.363 482.421 211.892 480.113 212.676C479.69 212.824 479.266 212.972 478.885 213.12C475.2 214.475 472.066 216.275 470.076 218.201C468.403 219.81 467.62 221.419 467.98 222.499C468.678 224.552 476.831 225.695 486.212 223.049C491.4 221.588 497.456 218.519 499.298 214.983C499.679 214.242 499.806 213.586 499.637 213.078C499.256 211.956 496.249 210.791 491.463 210.791Z" fill="#3FB1B5"/>
<path d="M480.621 285.375H477.127L467.958 223.494V223.451L467.725 221.906C468.17 219.09 472.574 215.11 480.346 212.528C484.221 211.236 488.075 210.665 491.357 210.601L494.703 219.768L495.02 220.636L505.608 249.66C511.961 266.999 499.107 285.375 480.621 285.375Z" fill="#A0505A"/>
<path d="M494.914 220.424C492.691 221.821 489.811 223.113 486.381 224.087C478.503 226.309 470.52 225.399 467.958 223.494V223.451L467.725 221.906C468.17 219.09 472.574 215.11 480.346 212.528C484.221 211.236 488.075 210.665 491.357 210.601L494.914 220.424Z" fill="#73325A"/>
<path d="M367.205 234.46L356.088 262.109C350.604 275.764 337.348 284.719 322.609 284.719H173.174V271.043C173.174 267.74 175.206 264.776 178.298 263.612L193.65 257.79C195.048 257.261 196.509 256.985 197.991 256.985H215.419L314.055 247.035L331.08 208.061L367.205 234.46Z" fill="#A0505A"/>
<path d="M173.809 276.822C173.449 276.822 173.174 276.547 173.174 276.187C173.174 273.414 174.846 270.979 177.451 269.984L189.034 265.602C189.352 265.475 189.733 265.644 189.86 265.962C189.987 266.279 189.818 266.66 189.5 266.787L177.917 271.17C175.821 271.974 174.444 273.943 174.444 276.187C174.444 276.547 174.169 276.822 173.809 276.822Z" fill="#73325A"/>
<path d="M173.809 283.808C173.449 283.808 173.174 283.533 173.174 283.173C173.174 280.4 174.846 277.965 177.451 276.97L189.034 272.588C189.352 272.461 189.733 272.63 189.86 272.948C189.987 273.265 189.818 273.646 189.5 273.773L177.917 278.156C175.821 278.96 174.444 280.929 174.444 283.173C174.444 283.533 174.169 283.808 173.809 283.808Z" fill="#73325A"/>
<path d="M177.684 284.719C177.43 284.719 177.175 284.549 177.091 284.295C176.964 283.957 177.133 283.597 177.472 283.491L189.055 279.32C189.394 279.193 189.754 279.363 189.86 279.701C189.987 280.04 189.817 280.4 189.478 280.506L177.895 284.676C177.832 284.698 177.747 284.719 177.684 284.719Z" fill="#73325A"/>
<path d="M188.06 260.14C188.06 260.14 198.902 232.47 202.375 232.936C205.848 233.402 192.761 258.362 192.761 258.362L188.06 260.14Z" fill="#FE5244"/>
<path d="M331.079 208.082L328.581 213.777L360.577 250.931L367.205 234.46L331.079 208.082Z" fill="#73325A"/>
<path d="M467.958 223.515L481.087 312.007L384.548 284.93L367.205 234.439L322.44 201.731L338.152 183.016C352.17 166.313 372.859 156.659 394.67 156.659H425.692C452.67 156.659 477.509 171.393 490.447 195.062L500.505 212.464C500.505 212.464 497.477 208.018 481.151 212.485C466.773 216.444 467.958 223.515 467.958 223.515Z" fill="#3FB1B5"/>
<path d="M367.205 234.672C367.163 234.672 367.099 234.672 367.057 234.651C366.718 234.566 366.506 234.227 366.591 233.888L371.61 212.125C371.694 211.786 372.033 211.575 372.372 211.659C372.711 211.744 372.922 212.083 372.838 212.422L367.819 234.185C367.756 234.481 367.502 234.672 367.205 234.672Z" fill="white"/>
<path d="M478.652 291.98C478.355 291.98 478.08 291.768 478.017 291.451L461.69 189.981C461.627 189.642 461.86 189.304 462.22 189.261C462.558 189.198 462.897 189.431 462.939 189.791L479.266 291.26C479.329 291.599 479.097 291.938 478.737 291.98C478.715 291.98 478.694 291.98 478.652 291.98Z" fill="white"/>
<path d="M480.876 312.642C480.812 312.642 480.77 312.642 480.706 312.621L384.357 285.142C384.019 285.036 383.828 284.697 383.913 284.358C384.018 284.02 384.357 283.829 384.696 283.914L481.045 311.393C481.384 311.499 481.574 311.838 481.49 312.176C481.405 312.452 481.151 312.642 480.876 312.642Z" fill="white"/>
<path d="M389.736 142.517V156.743L414.85 156.531V131.423L389.736 142.517Z" fill="#A0505A"/>
<path d="M416.883 127.041V127.422C416.883 131.233 414.003 134.324 410.192 134.324H408.709C407.756 138.092 399.286 142.496 393.272 142.496H386.263C378.598 142.496 372.732 135.615 373.981 128.036L374.32 125.983L372.245 124.818C371.059 124.141 370.72 122.595 371.546 121.495L376.035 115.567L377.01 109.724C377.793 104.918 380.948 101.002 385.141 99.0751C386.793 117.684 403.225 119.886 407.566 120.14H409.98C413.792 120.14 416.883 123.231 416.883 127.041Z" fill="#A0505A"/>
<path d="M405.766 129.497C405.406 129.497 405.131 129.222 405.131 128.862C405.131 125.517 407.863 122.786 411.208 122.786C411.568 122.786 411.844 123.061 411.844 123.421C411.844 123.781 411.568 124.056 411.208 124.056C408.561 124.056 406.401 126.216 406.401 128.862C406.401 129.222 406.126 129.497 405.766 129.497Z" fill="#73325A"/>
<path d="M382.812 120.33C383.408 120.33 383.892 119.212 383.892 117.832C383.892 116.452 383.408 115.334 382.812 115.334C382.215 115.334 381.732 116.452 381.732 117.832C381.732 119.212 382.215 120.33 382.812 120.33Z" fill="#73325A"/>
<path d="M387.216 114.678C387.026 114.678 386.835 114.593 386.708 114.424C383.892 110.528 381.266 110.74 381.223 110.74C380.863 110.782 380.567 110.528 380.525 110.168C380.482 109.83 380.736 109.512 381.096 109.47C381.223 109.449 384.484 109.195 387.724 113.661C387.936 113.937 387.873 114.339 387.576 114.551C387.47 114.635 387.343 114.678 387.216 114.678Z" fill="#73325A"/>
<path d="M407.566 120.14H409.98C413.792 120.14 416.883 123.231 416.883 127.041V127.422C416.883 131.233 414.003 134.324 410.192 134.324L408.561 135.467C401.7 139.871 392.214 157.188 394.543 169.446C397.169 183.228 409.175 186.297 420.271 184.18C431.367 182.063 439.457 175.606 436.831 161.803C436.534 160.173 436.047 158.543 435.433 156.934C435.624 156.998 435.793 157.061 435.984 157.125C449.324 160.766 464.994 161.189 469.314 150.773C473.634 140.358 472.66 130.048 459.679 124.67C452.141 121.537 441.892 121.558 433.951 123.718C437.953 109.809 430.838 94.3331 417.773 92.7877C397.254 90.3531 385.48 98.8213 385.162 99.0541C385.141 101.51 386.814 118.933 407.566 120.14Z" fill="#73325A"/>
<path d="M435.984 157.781C435.687 157.781 435.412 157.569 435.37 157.273C433.125 145.523 423.511 139.045 423.405 138.981C423.236 138.876 423.13 138.664 423.13 138.452C423.13 138.24 423.236 138.05 423.405 137.923C429.97 133.287 432.807 126.597 433.909 123.04C434.014 122.701 434.374 122.511 434.692 122.617C435.031 122.723 435.221 123.082 435.116 123.4C434.014 126.999 431.219 133.604 424.845 138.431C427.238 140.23 434.629 146.539 436.619 157.019C436.683 157.357 436.45 157.696 436.111 157.76C436.068 157.781 436.026 157.781 435.984 157.781Z" fill="white"/>
<path d="M440.24 123.4H434.629C434.269 123.4 433.993 123.125 433.993 122.765V117.155C433.993 113.873 436.662 111.206 439.944 111.206H440.24C443.522 111.206 446.191 113.873 446.191 117.155V117.451C446.212 119.018 445.598 120.521 444.475 121.643C443.353 122.765 441.85 123.4 440.24 123.4ZM435.264 122.13H440.24C441.511 122.13 442.675 121.643 443.565 120.732C444.433 119.843 444.92 118.679 444.92 117.451V117.155C444.92 114.572 442.824 112.476 440.24 112.476H439.944C437.36 112.476 435.264 114.572 435.264 117.155V122.13Z" fill="#FE5244"/>
<path d="M443.374 131.995C441.108 131.995 438.927 130.894 437.635 128.862L434.035 123.146C433.845 122.849 433.929 122.447 434.226 122.278L439.943 118.679C441.468 117.726 443.289 117.409 445.047 117.811C446.804 118.213 448.308 119.272 449.282 120.796L449.621 121.325C450.595 122.849 450.891 124.67 450.489 126.427C450.087 128.184 449.028 129.688 447.503 130.661L446.974 131C445.873 131.656 444.623 131.995 443.374 131.995ZM435.454 122.998L438.715 128.184C440.325 130.725 443.734 131.487 446.317 129.878L446.847 129.539C448.096 128.756 448.943 127.549 449.261 126.11C449.578 124.67 449.324 123.209 448.541 121.96L448.202 121.431C447.418 120.182 446.211 119.335 444.771 119.018C443.331 118.7 441.87 118.954 440.621 119.737L435.454 122.998Z" fill="#FE5244"/>
<path d="M408.688 148.932C408.54 148.932 408.392 148.932 408.243 148.91C406.655 148.783 405.215 148.064 404.178 146.857L403.987 146.624C402.95 145.439 402.441 143.914 402.547 142.348C402.653 140.76 403.373 139.299 404.58 138.262L408.561 134.451C408.688 134.324 408.858 134.261 409.027 134.282C409.196 134.282 409.366 134.366 409.472 134.493L413.389 138.918C414.427 140.125 414.956 141.67 414.829 143.258C414.702 144.846 413.982 146.285 412.775 147.323L412.521 147.513C411.483 148.424 410.128 148.932 408.688 148.932ZM408.985 135.806L405.469 139.172L405.448 139.193C404.495 140.019 403.924 141.162 403.839 142.432C403.754 143.681 404.157 144.867 404.961 145.798C404.961 145.798 404.961 145.82 404.982 145.82L405.173 146.052C405.978 146.984 407.1 147.556 408.349 147.661C409.599 147.746 410.806 147.344 411.759 146.539L412.013 146.328C412.944 145.523 413.516 144.401 413.622 143.152C413.707 141.903 413.304 140.696 412.5 139.744L408.985 135.806Z" fill="#FE5244"/>
<path d="M416.798 146.603C413.834 146.603 411.102 144.634 410.255 141.649L408.455 135.15C408.371 134.811 408.561 134.472 408.9 134.366L415.401 132.567C417.137 132.08 418.958 132.313 420.525 133.181C422.092 134.07 423.236 135.51 423.723 137.246L423.892 137.86C424.379 139.596 424.146 141.416 423.278 142.983C422.389 144.549 420.949 145.693 419.212 146.18L418.598 146.349C417.984 146.539 417.391 146.603 416.798 146.603ZM411.483 141.31C412.309 144.211 415.337 145.947 418.238 145.142L418.853 144.973C420.271 144.571 421.436 143.66 422.156 142.39C422.876 141.12 423.045 139.638 422.664 138.219L422.495 137.606C422.092 136.187 421.182 135.023 419.911 134.303C418.641 133.583 417.158 133.414 415.74 133.795L409.853 135.425L411.483 141.31Z" fill="#FE5244"/>
<path d="M316.193 550.344C316.15 550.344 316.108 550.344 316.066 550.323C315.727 550.259 315.494 549.921 315.579 549.561L352.467 376.958C352.53 376.62 352.869 376.387 353.229 376.471C353.568 376.535 353.801 376.874 353.716 377.234L316.807 549.836C316.743 550.132 316.489 550.344 316.193 550.344Z" fill="#FFCF2D"/>
<path d="M484.369 550.344C484.073 550.344 483.818 550.132 483.755 549.836L446.867 377.234C446.804 376.895 447.015 376.556 447.354 376.471C447.693 376.408 448.032 376.62 448.117 376.958L485.004 549.561C485.068 549.899 484.856 550.238 484.517 550.323C484.454 550.344 484.411 550.344 484.369 550.344Z" fill="#FFCF2D"/>
<path d="M475.687 512.025H324.367C324.007 512.025 323.732 511.75 323.732 511.39C323.732 511.03 324.007 510.755 324.367 510.755H475.687C476.047 510.755 476.323 511.03 476.323 511.39C476.323 511.75 476.047 512.025 475.687 512.025Z" fill="#FFCF2D"/>
<path d="M476.513 377.106H324.028C322.101 377.106 320.534 375.54 320.534 373.613V364.319C320.534 362.393 322.101 360.826 324.028 360.826H476.513C478.44 360.826 480.007 362.393 480.007 364.319V373.613C480.007 375.54 478.44 377.106 476.513 377.106Z" fill="white"/>
<path d="M476.513 377.741H324.028C321.741 377.741 319.898 375.9 319.898 373.613V364.319C319.898 362.033 321.741 360.191 324.028 360.191H476.513C478.8 360.191 480.642 362.033 480.642 364.319V373.613C480.642 375.9 478.8 377.741 476.513 377.741ZM324.028 361.461C322.461 361.461 321.169 362.753 321.169 364.319V373.613C321.169 375.18 322.461 376.471 324.028 376.471H476.513C478.08 376.471 479.372 375.18 479.372 373.613V364.319C479.372 362.753 478.08 361.461 476.513 361.461H324.028Z" fill="#66B0F0"/>
</svg>
