<svg width="143" height="37" viewBox="0 0 143 37" fill="none" xmlns="http://www.w3.org/2000/svg">
<path d="M130.525 19.7L124.325 11.6C123.925 11.2 123.425 11 122.925 11C122.425 11 121.925 11.2 121.525 11.6C120.825 12.4 120.825 13.6 121.525 14.4L126.425 21L121.525 27.6C120.825 28.4 120.825 29.6 121.525 30.4C121.925 30.8 122.425 31 122.925 31C123.425 31 123.925 30.8 124.325 30.4L130.525 22.3C131.225 21.7 131.225 20.5 130.525 19.7Z" fill="#FF3F3A"/>
<path d="M133.168 19.7L139.368 11.6C139.768 11.2 140.268 11 140.768 11C141.268 11 141.768 11.2 142.168 11.6C142.868 12.4 142.868 13.6 142.168 14.4L137.268 21L142.168 27.6C142.868 28.4 142.868 29.6 142.168 30.4C141.768 30.8 141.268 31 140.768 31C140.268 31 139.768 30.8 139.368 30.4L133.168 22.3C132.468 21.7 132.468 20.5 133.168 19.7Z" fill="#FF3F3A"/>
<g clip-path="url(#clip0_38_3630)">
<path d="M19.1865 0.11305C19.2308 0.0847844 19.2529 0.0565186 19.2972 0.0565186C19.3636 0.0565186 19.43 0.0847844 19.5185 0.169582C19.607 0.25438 19.6734 0.282645 19.7177 0.282645C19.5849 1.30022 19.43 2.31779 19.2972 3.33536C19.1423 4.55079 19.0759 5.59663 19.0759 6.41634C19.0759 7.26431 19.1423 7.99922 19.2972 8.64934C19.5406 8.6776 19.8062 8.6776 20.0717 8.6776C21.134 8.6776 22.506 8.47974 24.1879 8.11229C23.8117 8.6776 23.1256 9.10159 22.0855 9.38425C21.82 9.38425 21.3995 9.44078 20.802 9.55384C20.2045 9.66691 19.7619 9.72344 19.4964 9.72344C19.0316 9.72344 18.6333 9.61038 18.3235 9.35598C18.3456 9.21465 18.3899 7.66003 18.5227 4.74865C18.589 2.85484 18.8103 1.30022 19.1865 0.11305Z" fill="black"/>
<path d="M28.5917 1.44156C28.6802 1.58289 28.7244 1.75248 28.7244 1.97861C28.7244 2.233 28.6802 2.4026 28.5917 2.51566C28.5031 3.36364 28.1269 4.15508 27.463 4.86173C26.8877 5.39878 26.2902 5.9641 25.7148 6.50115C25.1173 7.15126 24.8075 7.80138 24.8075 8.50802C24.8075 9.10161 25.0066 9.77999 25.3828 10.5432C25.9361 10.3453 26.5336 9.86478 27.1754 9.10161C27.7286 8.45149 28.2818 7.80138 28.8351 7.17953C28.3482 8.08403 27.8614 8.96028 27.3745 9.86478C26.7328 10.8824 26.0689 11.3911 25.3386 11.3911C25.1837 11.3911 25.0288 11.3629 24.8517 11.3346C24.4091 10.9389 24.1878 10.3453 24.1878 9.55386C24.1878 9.29947 24.21 8.87548 24.2764 8.33843C24.3427 7.77311 24.3649 7.34912 24.3649 7.06646C24.2985 7.00993 24.1657 6.98167 23.9223 7.00993C23.6567 7.06646 23.4797 7.06646 23.3912 7.00993C23.2363 6.92513 23.1477 6.72727 23.1699 6.41635C23.878 6.41635 24.4755 5.99236 24.9624 5.11612C25.3607 4.29641 25.7591 3.4767 26.1574 2.68526C26.6664 1.80902 27.2417 1.35676 27.9278 1.35676C28.1269 1.3285 28.3482 1.38503 28.5917 1.44156ZM26.7991 4.40947C27.2639 3.92895 27.6401 3.30711 27.8835 2.54393C27.5294 2.54393 27.1975 2.74179 26.9319 3.10924C26.6885 3.4767 26.4451 3.84416 26.2016 4.21161C26.0246 4.43774 25.9582 4.60733 25.9582 4.74866C25.9582 4.97479 26.0689 5.03132 26.3123 4.97479C26.5557 4.88999 26.7328 4.69213 26.7991 4.40947Z" fill="black"/>
<path d="M29.8088 5.2009C30.2293 4.15507 30.8489 3.27882 31.6677 2.62871C32.4865 1.97859 33.3053 1.6394 34.1463 1.6394C34.7438 1.6394 35.2749 1.809 35.7396 2.14819C35.806 2.31778 35.8281 2.45911 35.8281 2.60044C35.8281 2.82657 35.6953 3.08096 35.4298 3.33536C35.1642 3.58975 35.0093 3.87241 35.0093 4.1268C34.8101 4.83345 34.611 5.54009 34.4118 6.24674C34.2126 7.06645 34.102 7.80136 34.102 8.47974C34.102 8.81893 34.1241 9.15812 34.1684 9.49731C34.3676 9.55384 34.5889 9.41252 34.8544 9.15812C35.12 8.87546 35.3634 8.73413 35.5847 8.73413C35.6068 8.81893 35.6289 8.90373 35.6289 9.01679C35.6289 9.32772 35.474 9.66691 35.1642 10.0061C34.9208 10.2605 34.6774 10.4866 34.4118 10.741C34.3454 10.7693 34.279 10.7693 34.2126 10.7693C33.9028 10.7693 33.593 10.5714 33.3496 10.1474C33.3496 9.35598 33.416 8.39494 33.5709 7.26431C33.6815 6.3598 33.8143 5.48356 33.9471 4.60732C33.593 4.91824 32.8406 5.79448 31.6677 7.17951C30.7383 8.31015 29.9416 9.04506 29.2556 9.41251C29.1671 9.15812 29.1228 8.90373 29.1228 8.56454C29.1228 8.16882 29.2335 7.6035 29.4326 6.89685C29.6318 5.93581 29.7646 5.39876 29.8088 5.2009ZM34.1463 3.0527C34.1241 2.74177 33.9913 2.60044 33.7701 2.60044C33.593 2.60044 33.3275 2.71351 32.9955 2.91137C32.73 3.0527 32.4865 3.22229 32.221 3.36362C31.6456 3.87241 31.1587 4.49426 30.7604 5.2857C30.3621 6.04888 30.0965 6.84032 29.9637 7.66003C30.5834 7.15125 31.3136 6.41633 32.1324 5.42703C33.4381 3.84414 34.102 3.08096 34.1463 3.0527Z" fill="black"/>
<path d="M37.5321 1.52636C38.0189 1.44157 38.2845 1.78076 38.2845 2.5722C38.2845 2.657 38.2845 2.77006 38.2845 2.91139C38.2845 3.05272 38.2845 3.16578 38.2845 3.25058C38.2845 3.61804 38.3288 3.87243 38.3952 4.04202C38.5722 3.98549 38.9484 3.75937 39.5016 3.30711C39.9885 2.93966 40.409 2.74179 40.7409 2.74179C40.9622 2.74179 41.1835 2.79833 41.4048 2.93966C41.6261 3.27885 41.7367 3.7311 41.7367 4.23989C41.7367 4.35295 41.7367 4.49428 41.7146 4.63561C41.6704 4.66387 41.6261 4.66387 41.5818 4.66387C41.3827 4.66387 41.2056 4.46601 41.0286 4.07029C40.8737 3.67457 40.7188 3.47671 40.586 3.47671C40.4532 3.47671 40.2762 3.61804 40.077 3.87243C39.391 4.18335 38.882 4.74867 38.5279 5.54011C38.3509 5.93584 38.1296 6.72728 37.8862 7.85791C37.6649 8.84722 37.4436 9.55387 37.178 10.0061C37.1338 9.92132 37.0674 9.86479 36.9567 9.86479C36.7797 9.89306 36.6912 9.89306 36.669 9.89306C36.5805 9.5256 36.5363 9.12988 36.5363 8.73416C36.5363 8.08404 36.7576 7.17953 37.178 5.99237C37.5985 4.8052 37.8198 3.90069 37.8198 3.22231C37.8198 2.60047 37.7313 2.06341 37.5321 1.52636Z" fill="black"/>
<path d="M43.662 2.09163C43.5292 2.85481 43.4407 3.39186 43.3964 3.73105C43.4186 3.56146 43.5071 3.0244 43.662 2.09163C43.5292 3.0244 43.2858 4.46596 42.9539 6.38804C42.976 6.47284 42.9981 6.52937 43.0424 6.52937C43.0645 6.52937 43.0866 6.5011 43.1309 6.44457C43.1751 6.38804 43.2194 6.35978 43.2637 6.35978C43.2858 6.35978 43.3079 6.35978 43.3079 6.38804C44.0382 4.55076 45.1226 3.30706 46.5831 2.65695C46.8044 3.16573 46.9151 3.75932 46.9151 4.49423C46.9151 4.77689 46.8929 5.20088 46.8487 5.79446C46.8044 6.35978 46.7823 6.81203 46.7823 7.09469C46.7823 7.85787 46.9151 8.50798 47.1585 9.01677C47.6232 9.01677 48.1765 8.64931 48.774 7.94266C49.2387 7.34908 49.7034 6.7555 50.1681 6.19018C49.5928 8.02746 48.8846 9.27116 48.0216 9.89301C47.8445 10.0061 47.6675 10.0626 47.4683 10.0626C47.1585 10.0626 46.8929 9.94954 46.6495 9.69515C46.4282 9.44075 46.2954 9.1581 46.2954 8.79064C46.2291 8.25359 46.1848 7.40561 46.1848 6.30324C46.1848 5.17261 46.1405 4.32463 46.052 3.75932C44.5029 5.11608 43.1751 7.37735 42.0908 10.5149C41.958 10.4866 41.7588 10.4018 41.4933 10.2039C41.7367 9.41249 42.0244 7.97093 42.3563 5.87926C42.644 4.04198 42.9538 2.65695 43.3079 1.75244C43.3301 1.83724 43.3964 1.89377 43.485 1.89377C43.5735 1.89377 43.6399 1.97857 43.662 2.09163Z" fill="black"/>
<path d="M19.0537 23.0649C19.1865 25.1566 20.1381 26.6264 21.8421 26.6264C22.7272 26.6264 23.701 26.2024 24.1436 25.3262H29.2555C28.149 29.2834 25.1394 31.1207 21.8642 31.1207C17.2612 31.1207 13.809 27.644 13.809 21.5386C13.809 16.1963 16.8629 11.8434 21.3995 11.8434C27.1089 11.8434 29.5653 15.9137 29.5653 23.0649H19.0537ZM24.3206 19.4186C24.3206 17.7227 23.3248 16.3377 21.9084 16.3377C20.2708 16.3377 19.3414 17.44 19.0758 19.4186H24.3206Z" fill="black"/>
<path d="M32.1324 12.2956H37.4215V14.6417H37.4878C38.5058 12.8044 39.9885 11.8434 42.1572 11.8434C44.7243 11.8434 47.0922 13.8503 47.0922 18.0619V30.6402H41.604V21.0298C41.604 18.9098 41.4048 17.4118 39.8115 17.4118C38.8599 17.4118 37.6206 18.0053 37.6206 20.945V30.6402H32.1324V12.2956Z" fill="black"/>
<path d="M64.9509 28.2941C64.9509 31.9404 64.1984 37.0565 57.471 37.0565C54.063 37.0565 50.4559 35.8976 49.969 30.9511H55.3908C55.4572 31.1207 55.59 31.3751 55.7006 31.6012C56.0326 32.2513 56.6079 32.958 57.3161 32.958C59.0865 32.958 59.4848 30.2727 59.4848 28.7464V27.0504H59.4184C58.5332 28.6898 57.2054 29.5943 55.5678 29.5943C51.3411 29.5943 49.4158 25.5523 49.4158 20.6623C49.4158 15.8854 51.5402 11.8999 55.6342 11.8999C57.2497 11.8999 58.7545 12.7196 59.3963 14.5852H59.4627V12.3522H64.9509V28.2941ZM57.3825 25.0718C59.3963 25.0718 59.6176 22.5844 59.6176 20.5493C59.6176 18.5424 58.843 16.9312 57.2276 16.9312C55.6785 16.9312 54.904 18.6272 54.904 20.5775C54.904 22.6692 55.4129 25.0718 57.3825 25.0718Z" fill="black"/>
<path d="M68.1154 5.3988H73.6035V30.6402H68.1154V5.3988Z" fill="black"/>
<path d="M82.5661 10.3171H77.0779V5.3988H82.5661V10.3171ZM77.0779 12.2957H82.5661V30.6402H77.0779V12.2957Z" fill="black"/>
<path d="M94.2506 17.6379C94.2285 17.0443 93.9629 16.5638 93.6088 16.2529C93.2769 15.8854 92.8343 15.7158 92.3917 15.7158C91.6172 15.7158 90.732 15.9419 90.732 17.1291C90.732 17.6661 91.0639 17.9205 91.3737 18.0901C92.2811 18.5989 94.3613 18.7403 96.198 19.5034C98.0348 20.2383 99.6281 21.6234 99.6281 24.6195C99.6281 29.7074 95.7997 31.0924 92.3253 31.0924C88.9395 31.0924 85.2438 29.3682 85.1553 24.6195H90.3779C90.4 25.2697 90.6213 25.7785 91.0418 26.259C91.3295 26.5699 91.8385 26.796 92.5024 26.796C93.2326 26.796 94.3613 26.4286 94.3613 25.3827C94.3613 24.3086 93.8965 23.9977 91.3516 23.4324C87.1691 22.4996 85.4872 20.8037 85.4872 17.6661C85.4872 13.0305 89.3821 11.8434 92.2589 11.8434C95.3571 11.8434 99.097 12.9458 99.2298 17.6379H94.2506Z" fill="black"/>
<path d="M102.085 5.3988H107.551V14.2743H107.617C108.569 12.861 109.786 11.8434 112.109 11.8434C114.676 11.8434 117.044 13.8503 117.044 18.0619V30.6402H111.556V21.0298C111.556 18.9099 111.357 17.4118 109.764 17.4118C108.812 17.4118 107.573 18.0054 107.573 20.945V30.6402H102.085V5.3988Z" fill="black"/>
</g>
<defs>
<clipPath id="clip0_38_3630">
<rect width="117" height="37" fill="white"/>
</clipPath>
</defs>
</svg>
