<svg width="315" height="310" viewBox="0 0 315 310" fill="none" xmlns="http://www.w3.org/2000/svg">
<path d="M112.662 34.5964H209.899C229.559 34.5964 247.925 44.399 259.044 60.7816L303.591 127.243C307.269 132.647 303.941 140.011 297.457 140.011H247.877L228.071 113.801C225.736 110.481 220.582 111.939 220.255 116.019L216.263 165.387H110.219L101.29 115.198C100.745 111.277 95.7365 110.076 93.474 113.311L75.2777 137.033H15.9824L62.2475 62.7788C73.1847 45.22 92.2158 34.5964 112.662 34.5964Z" fill="white"/>
<path d="M216.589 165.73H109.904L109.855 165.424L100.914 115.21C100.684 113.556 99.5472 112.282 97.9381 111.89C96.3169 111.498 94.7199 112.11 93.752 113.483L93.7399 113.495L75.4347 137.364H15.3046L61.9205 62.546C67.3286 53.883 74.8539 46.6903 83.698 41.7523C92.5421 36.8142 102.56 34.192 112.65 34.192H209.887C229.644 34.192 248.13 44.0436 259.321 60.5365L303.869 126.998C305.732 129.743 305.974 133.223 304.486 136.078C303.094 138.749 300.457 140.342 297.432 140.342H247.695L227.768 113.973C226.595 112.294 224.792 112.086 223.51 112.441C222.215 112.809 220.775 113.924 220.606 115.995L216.589 165.73ZM110.509 164.995H215.912L219.88 115.97C220.037 113.948 221.392 112.306 223.316 111.767C225.252 111.228 227.188 111.914 228.361 113.568L248.058 139.631H297.468C300.227 139.631 302.622 138.185 303.881 135.759C305.236 133.149 305.018 129.963 303.3 127.439L258.753 60.9776C247.695 44.6808 229.438 34.9517 209.911 34.9517H112.674C102.705 34.9517 92.8083 37.5371 84.0731 42.4139C75.3379 47.303 67.8972 54.3976 62.5496 62.9503L16.6354 136.629H75.0838L93.1591 113.054C94.2964 111.424 96.1838 110.701 98.1075 111.179C100.007 111.645 101.362 113.152 101.628 115.1L110.509 164.995Z" fill="#3FB1B5"/>
<path d="M171.91 60.2302L187.662 113.238H148.729L166.018 60.2302H171.91Z" fill="#FE5244"/>
<g opacity="0.2">
<g opacity="0.2">
<g opacity="0.2">
<path opacity="0.2" d="M159.351 80.7178V113.238H158.298V83.9036L158.649 82.8253L159.351 80.7178Z" fill="white"/>
</g>
<g opacity="0.2">
<path opacity="0.2" d="M170.433 60.3524H169.392V113.237H170.433V60.3524Z" fill="white"/>
</g>
<g opacity="0.2">
<path opacity="0.2" d="M181.528 92.603V113.237H180.488V89.0863L181.528 92.603Z" fill="white"/>
</g>
</g>
<g opacity="0.2">
<g opacity="0.2">
<path opacity="0.2" d="M185.629 106.375H150.954L151.305 105.297H185.302L185.629 106.375Z" fill="white"/>
</g>
<g opacity="0.2">
<path opacity="0.2" d="M182.277 95.1396H154.632L154.983 94.0613H181.951L182.277 95.1396Z" fill="white"/>
</g>
<g opacity="0.2">
<path opacity="0.2" d="M178.951 83.9033H158.298L158.649 82.825H178.624L178.951 83.9033Z" fill="white"/>
</g>
<g opacity="0.2">
<path opacity="0.2" d="M175.599 72.6668H161.976L162.327 71.5885H175.285L175.599 72.6668Z" fill="white"/>
</g>
<g opacity="0.2">
<path opacity="0.2" d="M172.248 61.4307H165.654L165.993 60.3524H171.957L172.248 61.4307Z" fill="white"/>
</g>
</g>
</g>
<path d="M178.95 59.6786L185.302 66.5895L205.785 34.5963H187.637L178.95 59.6786Z" fill="white"/>
<path d="M185.363 67.1767L178.539 59.7513L187.383 34.2156H206.451L185.363 67.1767ZM179.362 59.592L185.254 66.0004L205.108 34.963H187.891L179.362 59.592Z" fill="#3FB1B5"/>
<path d="M160.112 59.6786L153.736 66.5895L131.547 34.5963H151.401L160.112 59.6786Z" fill="white"/>
<path d="M153.7 67.1645L130.858 34.2156H151.668L160.536 59.7513L153.7 67.1645ZM132.249 34.963L153.773 66.0127L159.701 59.592L151.147 34.963H132.249Z" fill="#3FB1B5"/>
<path d="M311.382 146.088C311.382 158.611 302.574 170.472 288.867 172.506L232.705 180.875L220.376 182.713V134.349L224.175 133.442L278.97 120.27C289.544 117.734 300.566 122.035 306.712 131.102C309.918 135.783 311.382 140.99 311.382 146.088Z" fill="#A0505A"/>
<path d="M232.705 180.876L220.376 182.714V134.35L224.175 133.443L232.705 180.876Z" fill="#73325A"/>
<path d="M220.376 195.077H102.318V123.322C102.318 117.747 106.782 113.238 112.275 113.238H210.407C215.912 113.238 220.364 117.759 220.364 123.322V195.077H220.376Z" fill="#FFCF2D"/>
<path d="M168.63 160.192H154.063C152.418 160.192 151.075 158.832 151.075 157.165V150.977C151.075 149.311 152.418 147.951 154.063 147.951H168.63C170.276 147.951 171.619 149.311 171.619 150.977V157.165C171.607 158.844 170.276 160.192 168.63 160.192ZM154.063 148.588C152.757 148.588 151.68 149.666 151.68 151.002V157.19C151.68 158.513 152.745 159.604 154.063 159.604H168.63C169.937 159.604 171.014 158.525 171.014 157.19V151.002C171.014 149.679 169.949 148.588 168.63 148.588H154.063Z" fill="white"/>
<path d="M143.78 194.293L268.759 175.361C293.077 171.612 315 190.69 315 215.625C315 238.122 297.009 256.343 274.796 256.343H144.603L143.78 194.293Z" fill="#0096A0"/>
<path d="M126.89 267.444L51.6733 282.148C42.0912 284.206 32.4607 276.119 32.0373 265.655L30.9242 237.852C30.3556 223.773 43.6761 215.306 56.2345 221.335L126.89 267.444Z" fill="white"/>
<path d="M48.6488 282.834C45.1402 282.834 41.6074 281.596 38.6311 279.244C34.4208 275.935 31.8801 270.985 31.6744 265.667L30.5613 237.864C30.4283 234.446 31.0695 231.272 32.485 228.442C33.8038 225.795 35.8 223.528 38.2319 221.898C43.4706 218.394 50.2579 218.063 56.3919 221.004L56.4282 221.028L127.846 267.628L51.7339 282.503C50.7176 282.723 49.6893 282.834 48.6488 282.834ZM47.8503 219.754C44.5594 219.754 41.3654 220.685 38.619 222.523C33.6949 225.832 31.009 231.407 31.2752 237.852L32.3882 265.655C32.5939 270.752 35.0257 275.494 39.0667 278.68C42.7567 281.584 47.3179 282.724 51.5766 281.805L125.923 267.272L56.0531 221.666C53.3793 220.379 50.5845 219.754 47.8503 219.754Z" fill="#FE5244"/>
<path d="M53.8997 281.805C50.4879 281.805 47.0519 280.591 44.1482 278.312C40.0347 275.078 37.5545 270.262 37.3246 265.067L36.1632 238.073C35.8849 231.566 38.5587 225.93 43.5312 222.597C48.5763 219.215 55.158 218.909 61.1105 221.788L60.7959 222.45C55.0733 219.681 48.7699 219.962 43.9305 223.21C39.1878 226.395 36.6229 231.799 36.8891 238.036L38.0506 265.03C38.2683 270.005 40.6518 274.624 44.5959 277.724C48.165 280.53 52.5689 281.645 56.6824 280.775L56.8276 281.498C55.8597 281.707 54.8797 281.805 53.8997 281.805Z" fill="#FE5244"/>
<path d="M56.2225 221.322L126.89 267.443L110.775 270.58L56.2225 221.322Z" fill="#FE5244"/>
<path d="M54.6258 263.168L53.9603 262.874L64.6071 238.086C64.6676 237.951 64.8007 237.865 64.9459 237.865C65.0911 237.865 65.2242 237.951 65.2725 238.086L74.1771 259.419L83.1301 241.358L83.7834 241.688L74.4796 260.46C74.4191 260.583 74.286 260.669 74.1408 260.669C73.9957 260.669 73.8747 260.571 73.8142 260.448L64.9338 239.164L54.6258 263.168Z" fill="#FE5244"/>
<path d="M64.1959 261.501H64.1838C64.0386 261.501 63.9176 261.403 63.8571 261.269L53.4281 234.924L54.1056 234.655L64.2201 260.227L74.0563 239.936C74.1167 239.813 74.2498 239.727 74.3829 239.727C74.5281 239.727 74.6491 239.813 74.7096 239.948L82.6221 257.495L81.9566 257.801L74.3587 240.965L64.4983 261.305C64.462 261.416 64.329 261.501 64.1959 261.501Z" fill="#FE5244"/>
<path d="M185.302 232.976C181.128 229.508 169.066 237.399 158.347 250.596C147.627 263.793 142.316 277.32 146.478 280.788C145.861 280.408 67.5102 230.648 18.8859 196.682C6.52116 188.055 0 174.234 0 160.241C0 150.487 3.18194 140.66 9.75149 132.438C26.2298 111.853 56.7546 110.468 74.9992 129.473L185.302 232.976Z" fill="#3FB1B5"/>
<path d="M173.392 263.155C184.109 249.958 189.416 236.445 185.247 232.971C181.077 229.498 169.009 237.38 158.292 250.577C147.575 263.774 142.267 277.287 146.437 280.76C150.607 284.234 162.675 276.351 173.392 263.155Z" fill="#FE5244"/>
<path d="M149.018 281.941C147.893 281.941 146.949 281.646 146.223 281.046C144.07 279.257 144.154 275.042 146.465 269.185C148.715 263.45 152.829 256.76 158.031 250.352C163.234 243.943 168.932 238.564 174.05 235.219C179.289 231.8 183.354 230.906 185.495 232.695C187.649 234.484 187.564 238.699 185.253 244.556C183.003 250.291 178.889 256.981 173.687 263.389C168.485 269.798 162.786 275.177 157.668 278.522C154.208 280.789 151.244 281.941 149.018 281.941ZM182.712 232.523C180.644 232.523 177.788 233.651 174.449 235.832C169.392 239.14 163.754 244.458 158.6 250.805C153.434 257.165 149.369 263.781 147.143 269.442C145.001 274.907 144.832 278.926 146.695 280.47C148.558 282.014 152.418 281.083 157.293 277.897C162.351 274.589 167.989 269.271 173.143 262.924C178.309 256.564 182.374 249.947 184.6 244.286C186.741 238.822 186.911 234.802 185.048 233.259C184.455 232.768 183.668 232.523 182.712 232.523Z" fill="white"/>
<path d="M219.808 276.415L205.858 300.395C198.78 312.537 182.798 312.758 175.478 300.799L151.995 262.495C154.003 259.126 156.484 255.609 159.339 252.092C164.505 245.733 169.986 240.611 174.752 237.388L212.125 251.786C221.272 255.327 225.034 267.397 219.808 276.415Z" fill="white"/>
<path d="M190.529 310C187.601 310 184.697 309.24 182.12 307.794C179.314 306.226 176.966 303.935 175.164 300.982L151.571 262.482L151.692 262.286C153.725 258.88 156.205 255.363 159.073 251.834C164.069 245.671 169.574 240.426 174.559 237.057L174.716 236.946L174.885 237.008L212.258 251.405C216.529 253.059 219.904 256.698 221.526 261.367C223.28 266.452 222.772 271.991 220.11 276.573L206.16 300.553C204.406 303.555 202.107 305.92 199.313 307.562C196.687 309.105 193.723 309.939 190.71 309.975C190.662 310 190.602 310 190.529 310ZM152.43 262.482L175.793 300.602C177.523 303.444 179.773 305.638 182.483 307.157C185.012 308.566 187.855 309.302 190.723 309.265C193.602 309.228 196.445 308.432 198.962 306.949C201.648 305.368 203.862 303.089 205.555 300.197L219.505 276.218C222.046 271.831 222.542 266.513 220.86 261.637C219.312 257.164 216.093 253.696 212.016 252.116L174.813 237.78C169.925 241.112 164.541 246.259 159.641 252.3C156.834 255.755 154.415 259.174 152.43 262.482Z" fill="#FE5244"/>
<path d="M187.36 305.871C184.601 305.871 181.867 305.148 179.423 303.763C176.761 302.256 174.547 300.05 172.841 297.22L173.458 296.84C175.104 299.56 177.233 301.668 179.774 303.114C182.157 304.461 184.843 305.16 187.541 305.123C190.251 305.086 192.925 304.314 195.284 302.905C197.813 301.386 199.894 299.205 201.466 296.436L214.618 273.436C217.098 269.086 217.618 263.732 216.009 259.112C214.593 255.056 211.774 252.03 208.048 250.559L208.314 249.873C212.234 251.417 215.21 254.603 216.687 258.867C218.368 263.683 217.824 269.27 215.247 273.804L202.096 296.803C200.45 299.683 198.285 301.95 195.647 303.53C193.179 305.013 190.384 305.822 187.553 305.858C187.493 305.858 187.42 305.871 187.36 305.871Z" fill="#FE5244"/>
<path d="M175.623 276.328C175.551 276.328 175.478 276.304 175.406 276.255C175.285 276.169 175.236 276.01 175.273 275.875L180.79 253.452L162.484 262.838L162.158 262.176L181.165 252.422C181.286 252.361 181.443 252.373 181.552 252.459C181.661 252.545 181.709 252.692 181.673 252.839L176.18 275.164L198.151 261.514L198.526 262.139L175.793 276.267C175.756 276.316 175.696 276.328 175.623 276.328Z" fill="#FE5244"/>
<path d="M183.197 285.346L182.483 285.187L188.23 258.916L169.526 268.253C169.405 268.314 169.26 268.302 169.151 268.216C169.042 268.131 168.981 267.996 169.006 267.861L171.982 249.91L172.696 250.033L169.84 267.273L188.593 257.912C188.714 257.85 188.871 257.863 188.98 257.948C189.089 258.034 189.138 258.181 189.113 258.316L183.197 285.346Z" fill="#FE5244"/>
<path d="M197.667 38.9339C197.57 40.5391 196.868 41.9727 195.779 43.002C194.69 44.0313 193.251 44.6562 191.654 44.6562H186.173L185.822 50.5132C185.52 55.341 180.789 60.2668 175.841 60.2668H161.964C157.052 60.2668 152.285 55.341 151.982 50.5132L151.632 44.6562H146.078C144.493 44.6562 143.029 44.0313 141.953 43.002C140.864 41.9727 140.162 40.5391 140.065 38.9094C139.872 35.3928 142.715 32.4765 146.199 32.4765H150.893L150.373 23.5562C150.276 21.6692 151.74 20.0885 153.604 20.0885H184.225C186.088 20.0885 187.552 21.6692 187.455 23.5562L186.935 32.4765H191.678C195.114 32.501 197.86 35.4418 197.667 38.9339Z" fill="#A0505A"/>
<path d="M186.924 32.4763H191.908C191.908 32.4763 196.675 14.9542 192.078 10.4573C187.492 5.96037 159.29 -4.39359 150.18 2.06385C143.526 6.79359 147.155 32.4763 147.155 32.4763H150.833C150.833 32.4763 165.654 21.718 167.977 22.6493C170.312 23.5805 161.275 28.1019 163.089 28.9842C169.865 32.2803 182.048 20.3334 184.855 20.3334C187.662 20.3334 186.924 32.4763 186.924 32.4763Z" fill="#73325A"/>
<path d="M180.644 37.0708C180.596 37.0708 180.536 37.0585 180.487 37.0217C180.451 36.9972 177.293 34.4731 173.313 36.1273C173.192 36.1763 173.047 36.115 172.998 35.9925C172.95 35.8699 173.01 35.7229 173.131 35.6739C177.39 33.9094 180.765 36.6174 180.802 36.6419C180.911 36.7277 180.923 36.887 180.838 36.985C180.778 37.0463 180.705 37.0708 180.644 37.0708Z" fill="#73325A"/>
<path d="M180.644 37.3164C180.536 37.3164 180.427 37.2796 180.342 37.2061C180.318 37.1816 177.245 34.7555 173.409 36.3484C173.168 36.4464 172.877 36.3361 172.78 36.0788C172.684 35.8338 172.792 35.5397 173.047 35.4417C177.438 33.6159 180.923 36.4097 180.959 36.4464C181.056 36.5322 181.116 36.6425 181.14 36.7773C181.153 36.912 181.116 37.0346 181.032 37.1326C180.923 37.2551 180.79 37.3164 180.644 37.3164ZM180.62 36.814C180.632 36.8263 180.644 36.8263 180.644 36.8263C180.644 36.8263 180.632 36.8263 180.62 36.814Z" fill="#73325A"/>
<path d="M169.671 53.833C168.824 53.833 167.844 53.6615 166.707 53.2449C166.586 53.1959 166.513 53.0611 166.562 52.9263C166.61 52.8038 166.743 52.7302 166.876 52.7792C169.018 53.5757 170.893 53.5267 172.296 52.62C173.349 51.946 173.772 51.0515 173.772 51.0393C173.833 50.9167 173.978 50.8677 174.099 50.9167C174.22 50.978 174.268 51.125 174.22 51.2476C174.196 51.2843 172.974 53.833 169.671 53.833Z" fill="#73325A"/>
<path d="M169.671 54.0783C168.727 54.0783 167.699 53.87 166.622 53.4779C166.501 53.4289 166.405 53.3431 166.344 53.2206C166.296 53.0981 166.284 52.9633 166.332 52.8408C166.38 52.7182 166.465 52.6202 166.586 52.5589C166.707 52.5099 166.84 52.4977 166.961 52.5467C169.03 53.3186 170.82 53.2696 172.163 52.4119C173.143 51.787 173.555 50.9415 173.555 50.9293C173.603 50.8067 173.712 50.721 173.833 50.6719C173.954 50.6229 174.087 50.6352 174.208 50.6842C174.45 50.7945 174.559 51.0886 174.438 51.3336C174.414 51.3949 173.131 54.0783 169.671 54.0783ZM166.792 53.0123C167.893 53.4167 168.933 53.6127 169.865 53.5882C168.921 53.6127 167.893 53.4289 166.792 53.0123Z" fill="#73325A"/>
<path d="M168.074 50.3894C167.541 50.3894 166.985 50.3771 166.501 50.3404C165.581 50.2791 165.388 48.2573 165.146 44.6916C164.988 42.4125 164.807 39.8271 164.263 38.6876C162.387 34.791 156.036 36.1634 155.975 36.1756C155.842 36.2002 155.721 36.1266 155.685 35.9918C155.648 35.8571 155.733 35.7345 155.866 35.6978C155.939 35.6855 157.572 35.3179 159.472 35.465C162.036 35.661 163.839 36.7025 164.698 38.467C165.279 39.6801 165.46 42.2042 165.63 44.6426C165.726 46.0395 165.823 47.3628 165.981 48.3553C166.21 49.7522 166.489 49.838 166.537 49.838C167.916 49.936 170.034 49.838 170.058 49.838C170.191 49.8257 170.3 49.936 170.312 50.0708C170.324 50.2056 170.215 50.3159 170.082 50.3281C170.021 50.3404 169.102 50.3894 168.074 50.3894Z" fill="#73325A"/>
<path d="M168.074 50.6354C167.456 50.6354 166.912 50.6232 166.489 50.5864C165.363 50.5007 165.17 48.5156 164.904 44.7049C164.746 42.4503 164.565 39.8894 164.045 38.7988C162.254 35.0861 156.084 36.4095 156.023 36.4217C155.902 36.4462 155.769 36.4217 155.66 36.3604C155.551 36.2869 155.479 36.1766 155.443 36.0541C155.406 35.9316 155.443 35.7968 155.503 35.6865C155.576 35.5762 155.685 35.5027 155.806 35.466C155.878 35.4537 157.548 35.0861 159.484 35.2331C162.145 35.4415 164.02 36.5197 164.904 38.37C165.509 39.632 165.678 42.1807 165.859 44.6436C165.956 46.0405 166.053 47.3516 166.21 48.3318C166.368 49.2998 166.537 49.5572 166.585 49.6184C167.94 49.7042 170.009 49.6184 170.034 49.6184C170.167 49.6062 170.288 49.6552 170.384 49.741C170.481 49.8267 170.542 49.9493 170.542 50.084C170.554 50.3536 170.348 50.5864 170.082 50.5987C169.985 50.5987 169.078 50.6354 168.074 50.6354ZM166.513 50.0963C166.948 50.1331 167.469 50.1453 168.074 50.1453C169.066 50.1453 169.949 50.1085 170.07 50.0963C169.973 50.1085 167.892 50.1943 166.513 50.0963ZM164.504 38.6273C165.049 39.8281 165.23 42.4013 165.388 44.6681C165.4 44.8397 165.412 45.0235 165.424 45.195C165.412 45.0235 165.4 44.8397 165.388 44.6681C165.218 42.291 165.049 39.8281 164.504 38.6273ZM158.516 35.6988C160.246 35.6988 162.423 36.0419 163.779 37.5368C162.835 36.4952 161.359 35.8703 159.459 35.7233C157.596 35.5762 155.987 35.9316 155.927 35.9438C155.951 35.9438 157.064 35.6988 158.516 35.6988Z" fill="#73325A"/>
<path d="M176.192 43.6635C176.833 43.6635 177.353 42.7857 177.353 41.7029C177.353 40.6202 176.833 39.7424 176.192 39.7424C175.551 39.7424 175.031 40.6202 175.031 41.7029C175.031 42.7857 175.551 43.6635 176.192 43.6635Z" fill="#73325A"/>
<path d="M161.105 43.6635C161.746 43.6635 162.266 42.7857 162.266 41.7029C162.266 40.6202 161.746 39.7424 161.105 39.7424C160.463 39.7424 159.943 40.6202 159.943 41.7029C159.943 42.7857 160.463 43.6635 161.105 43.6635Z" fill="#73325A"/>
<path d="M149.696 40.0855C149.575 40.0855 149.466 39.9874 149.454 39.8527C149.309 37.5245 147.397 35.7111 145.099 35.7111C144.966 35.7111 144.857 35.6008 144.857 35.466C144.857 35.3312 144.966 35.2209 145.099 35.2209C147.652 35.2209 149.781 37.2427 149.926 39.8281C149.938 39.9629 149.829 40.0855 149.696 40.0855Z" fill="#73325A"/>
<path d="M149.696 40.3311C149.442 40.3311 149.225 40.135 149.213 39.8655C149.079 37.6721 147.277 35.9567 145.099 35.9567C144.833 35.9567 144.615 35.7361 144.615 35.4666C144.615 35.197 144.833 34.9764 145.099 34.9764C147.785 34.9764 150.011 37.0962 150.168 39.8042C150.18 39.939 150.132 40.0615 150.047 40.1595C149.963 40.2576 149.842 40.3188 149.709 40.3188C149.709 40.3311 149.709 40.3311 149.696 40.3311ZM148.027 36.5449C148.983 37.3413 149.612 38.5176 149.696 39.8532V40.0983V39.8532C149.612 38.5176 148.983 37.3413 148.027 36.5449Z" fill="#73325A"/>
<path d="M187.783 40.2193H187.771C187.638 40.207 187.541 40.0968 187.541 39.962C187.698 37.2295 189.924 35.0852 192.622 35.0852C192.755 35.0852 192.864 35.1955 192.864 35.3303C192.864 35.4651 192.755 35.5753 192.622 35.5753C190.19 35.5753 188.17 37.5113 188.025 39.9987C188.025 40.109 187.916 40.2193 187.783 40.2193Z" fill="#73325A"/>
<path d="M187.782 40.4648C187.77 40.4648 187.758 40.4648 187.758 40.4648C187.492 40.4525 187.286 40.2197 187.298 39.9502C187.468 37.0829 189.803 34.8406 192.622 34.8406C192.888 34.8406 193.106 35.0611 193.106 35.3307C193.106 35.6003 192.888 35.8208 192.622 35.8208C190.311 35.8208 188.399 37.6588 188.266 40.0114C188.254 40.2565 188.049 40.4648 187.782 40.4648ZM187.782 39.9747V40.2197V39.9747Z" fill="#73325A"/>
</svg>
