<svg width="18" height="18" viewBox="0 0 18 18" fill="none" xmlns="http://www.w3.org/2000/svg">
<path d="M17.3291 17.3333L17.3333 17.3326V11.2201C17.3333 8.22982 16.6896 5.92635 13.1937 5.92635C11.5132 5.92635 10.3854 6.84857 9.92496 7.72288H9.87635V6.20551H6.56176V17.3326H10.0132V11.8229C10.0132 10.3722 10.2882 8.96941 12.0847 8.96941C13.8548 8.96941 13.8812 10.625 13.8812 11.9159V17.3333H17.3291Z" fill="white"/>
<path d="M0.941622 6.20621H4.39718V17.3333H0.941622V6.20621Z" fill="white"/>
<path d="M2.66801 0.666626C1.56315 0.666626 0.666626 1.56315 0.666626 2.66801C0.666626 3.77288 1.56315 4.68815 2.66801 4.68815C3.77288 4.68815 4.6694 3.77288 4.6694 2.66801C4.66871 1.56315 3.77218 0.666626 2.66801 0.666626Z" fill="white"/>
</svg>
