<svg width="20" height="20" viewBox="0 0 20 20" fill="none" xmlns="http://www.w3.org/2000/svg">
<path fill-rule="evenodd" clip-rule="evenodd" d="M10.0002 2.70835C8.38937 2.70835 7.08353 4.01419 7.08353 5.62502C7.08353 7.23585 8.38937 8.54169 10.0002 8.54169C11.611 8.54169 12.9169 7.23585 12.9169 5.62502C12.9169 4.01419 11.611 2.70835 10.0002 2.70835ZM5.41686 5.62502C5.41686 3.09372 7.46889 1.04169 10.0002 1.04169C12.5315 1.04169 14.5835 3.09372 14.5835 5.62502C14.5835 8.15633 12.5315 10.2084 10.0002 10.2084C7.46889 10.2084 5.41686 8.15633 5.41686 5.62502Z" fill="#424551"/>
<path fill-rule="evenodd" clip-rule="evenodd" d="M5.08691 12.7084C4.50914 12.7084 4.05756 12.9897 3.87424 13.3939C3.62053 13.9533 3.39078 14.6193 3.33656 15.251C3.31233 15.5334 3.43007 15.7415 3.5923 15.8423C4.44993 16.375 6.43719 17.2917 10.0002 17.2917C13.5632 17.2917 15.5505 16.375 16.4081 15.8423C16.5703 15.7415 16.6881 15.5334 16.6638 15.251C16.6096 14.6193 16.3799 13.9533 16.1261 13.3939C15.9428 12.9897 15.4912 12.7084 14.9135 12.7084H5.08691ZM2.35639 12.7055C2.86301 11.5884 3.99429 11.0417 5.08691 11.0417H14.9135C16.0061 11.0417 17.1374 11.5884 17.644 12.7055C17.935 13.3471 18.2472 14.2096 18.3244 15.1085C18.3946 15.927 18.0544 16.7816 17.2876 17.258C16.1596 17.9587 13.8665 18.9584 10.0002 18.9584C6.13386 18.9584 3.84078 17.9587 2.71283 17.258C1.94595 16.7816 1.60575 15.927 1.676 15.1085C1.75315 14.2096 2.0654 13.3471 2.35639 12.7055Z" fill="#424551"/>
</svg>
