<svg width="16" height="16" viewBox="0 0 16 16" fill="none" xmlns="http://www.w3.org/2000/svg">
<path d="M8 0C3.58055 0 0 3.67169 0 8.20364C0 11.736 2.2027 14.8694 5.46924 15.9844C5.87229 16.0565 6.02226 15.8114 6.02226 15.5951C6.02226 15.4029 6.0082 14.7541 6.0082 14.0668C4.00234 14.4465 3.48213 13.567 3.32279 13.1056C3.22906 12.8702 2.84007 12.1397 2.50264 11.9474C2.22144 11.7936 1.82308 11.414 2.48858 11.4044C3.12127 11.3899 3.57118 11.9955 3.72115 12.2454C4.44288 13.4853 5.5911 13.1345 6.05038 12.9182C6.12068 12.3848 6.33158 12.0291 6.56122 11.8225C4.78032 11.6158 2.91974 10.9094 2.91974 7.77111C2.91974 6.88203 3.22906 6.14192 3.7399 5.57002C3.66022 5.36337 3.37903 4.52234 3.81957 3.39295C3.81957 3.39295 4.48975 3.1815 6.02226 4.23398C6.6737 4.05136 7.34388 3.96005 8.01875 3.96005C8.6983 3.96005 9.37786 4.05136 10.0199 4.23398C11.5477 3.16708 12.2179 3.39776 12.2179 3.39776C12.6585 4.52234 12.3773 5.36337 12.2976 5.57002C12.8084 6.14192 13.1178 6.87241 13.1178 7.77111C13.1178 10.919 11.2478 11.6158 9.47159 11.8225C9.75747 12.0772 10.0105 12.5722 10.0105 13.3411C10.0105 14.4369 10.0012 15.3212 10.0012 15.5951C10.0012 15.8114 10.1511 16.0661 10.5495 15.9844C13.8067 14.8598 15.9953 11.7264 16 8.20364C16 3.67169 12.4194 0 8 0Z" fill="white"/>
</svg>
