<svg width="315" height="310" viewBox="0 0 315 310" fill="none" xmlns="http://www.w3.org/2000/svg">
<path d="M315 295.811H0L56.5454 250.95H259.32L315 295.811Z" fill="#D0F0E4"/>
<path d="M180.604 76.4981H123.933V32.473C123.933 29.492 125.731 27.0757 127.95 27.0757H176.587C178.805 27.0757 180.604 29.492 180.604 32.473V76.4981Z" fill="white"/>
<path fill-rule="evenodd" clip-rule="evenodd" d="M127.95 27.4144C125.871 27.4144 124.185 29.6791 124.185 32.473V76.1593H180.352V32.473C180.352 29.6791 178.666 27.4144 176.587 27.4144H127.95ZM180.604 76.4981H180.856V32.473C180.856 29.305 178.945 26.7369 176.587 26.7369H127.95C125.592 26.7369 123.681 29.305 123.681 32.473V76.8368H180.604V76.4981Z" fill="#66B0F0"/>
<path d="M176.326 73.63H128.446C127.185 73.63 126.16 72.2525 126.16 70.5588V32.823C126.16 31.1293 127.185 29.7517 128.446 29.7517H176.326C177.587 29.7517 178.613 31.1293 178.613 32.823V70.5701C178.613 72.2638 177.587 73.63 176.326 73.63Z" fill="#66B0F0"/>
<path d="M190.539 86.8296C192.707 88.7266 192.203 92.4415 189.639 92.4415H112.436C110.276 92.4415 109.536 88.5234 111.654 86.728L190.539 86.8296Z" fill="#66B0F0"/>
<path fill-rule="evenodd" clip-rule="evenodd" d="M111.581 86.3892L190.613 86.491L190.676 86.5457C191.83 87.5556 192.31 89.088 192.11 90.414C191.907 91.7605 191.022 92.7802 189.639 92.7802H112.435C111.222 92.7802 110.406 91.6698 110.194 90.3283C109.982 88.9856 110.371 87.4148 111.519 86.4415L111.581 86.3892ZM111.728 87.0668C110.806 87.8903 110.522 89.1448 110.687 90.1876C110.855 91.254 111.488 92.1027 112.435 92.1027H189.639C190.819 92.1027 191.468 91.2649 191.616 90.2797C191.764 89.2946 191.429 88.0524 190.462 87.1682L111.728 87.0668Z" fill="#66B0F0"/>
<path d="M189.639 89.8559H112.435C111.057 89.8559 110.51 87.6767 111.653 86.7282L123.949 76.4982H180.444L190.529 86.8298C191.538 87.8573 190.95 89.8559 189.639 89.8559Z" fill="white"/>
<path fill-rule="evenodd" clip-rule="evenodd" d="M123.878 76.1595H180.53L190.682 86.56C191.28 87.1693 191.413 88.0892 191.189 88.8529C190.965 89.6113 190.397 90.1948 189.639 90.1948H112.435C111.638 90.1948 111.061 89.5574 110.86 88.7558C110.658 87.9487 110.846 87.0003 111.521 86.4403L111.521 86.4401M111.521 86.4401L123.878 76.1595L111.521 86.4401ZM124.021 76.837L111.786 87.0163L111.786 87.0165C111.318 87.405 111.208 88.0203 111.338 88.5399C111.469 89.065 111.854 89.5173 112.435 89.5173H189.639C190.192 89.5173 190.573 89.1014 190.72 88.6037C190.865 88.1112 190.788 87.518 190.377 87.0998L180.359 76.837H124.021Z" fill="#66B0F0"/>
<path d="M180.73 86.7735H121.344C120.285 86.7735 119.865 85.091 120.739 84.3684L129.278 76.4983H173.654L181.411 84.4474C182.193 85.2378 181.739 86.7735 180.73 86.7735Z" fill="white"/>
<path fill-rule="evenodd" clip-rule="evenodd" d="M129.2 76.1595H173.739L181.563 84.1768C181.563 84.177 181.563 84.1773 181.563 84.1775C182.047 84.6675 182.158 85.4121 181.976 86.0312C181.796 86.6448 181.337 87.1122 180.73 87.1122H121.344C120.706 87.1122 120.24 86.5981 120.078 85.9501C119.914 85.2991 120.064 84.5331 120.601 84.0845L129.2 76.1595ZM129.356 76.837L120.877 84.6525L120.871 84.6569C120.539 84.9316 120.463 85.3651 120.556 85.7337C120.649 86.1076 120.923 86.4347 121.344 86.4347H180.73C181.132 86.4347 181.404 86.1342 181.507 85.7825C181.609 85.4365 181.556 85.0184 181.259 84.7181L181.259 84.7174L181.258 84.7168L173.568 76.837H129.356Z" fill="#66B0F0"/>
<path fill-rule="evenodd" clip-rule="evenodd" d="M177.402 87.0148L169.636 76.7397L169.99 76.257L177.756 86.5321L177.402 87.0148Z" fill="#66B0F0"/>
<path fill-rule="evenodd" clip-rule="evenodd" d="M172.348 86.9992L165.507 76.724L165.882 76.2723L172.724 86.5475L172.348 86.9992Z" fill="#66B0F0"/>
<path fill-rule="evenodd" clip-rule="evenodd" d="M167.58 86.9813L161.646 76.7062L162.045 76.2909L167.978 86.566L167.58 86.9813Z" fill="#66B0F0"/>
<path fill-rule="evenodd" clip-rule="evenodd" d="M162.349 86.9594L157.332 76.6842L157.753 76.3126L162.771 86.5878L162.349 86.9594Z" fill="#66B0F0"/>
<path fill-rule="evenodd" clip-rule="evenodd" d="M156.176 86.8769L153.73 76.6017L154.211 76.3954L156.656 86.6705L156.176 86.8769Z" fill="#66B0F0"/>
<path fill-rule="evenodd" clip-rule="evenodd" d="M124.941 86.5322L132.706 76.2571L133.06 76.7398L125.295 87.0149L124.941 86.5322Z" fill="#66B0F0"/>
<path fill-rule="evenodd" clip-rule="evenodd" d="M129.973 86.5476L136.814 76.2725L137.19 76.7241L130.349 86.9993L129.973 86.5476Z" fill="#66B0F0"/>
<path fill-rule="evenodd" clip-rule="evenodd" d="M134.718 86.5662L140.652 76.291L141.05 76.7063L135.117 86.9814L134.718 86.5662Z" fill="#66B0F0"/>
<path fill-rule="evenodd" clip-rule="evenodd" d="M139.926 86.5879L144.943 76.3127L145.365 76.6844L140.347 86.9596L139.926 86.5879Z" fill="#66B0F0"/>
<path fill-rule="evenodd" clip-rule="evenodd" d="M146.04 86.6704L148.486 76.3953L148.966 76.6016L146.52 86.8768L146.04 86.6704Z" fill="#66B0F0"/>
<path fill-rule="evenodd" clip-rule="evenodd" d="M151.399 76.4983V86.8977H150.894V76.4983H151.399Z" fill="#66B0F0"/>
<path fill-rule="evenodd" clip-rule="evenodd" d="M177.41 80.676H125.118V79.9985H177.41V80.676Z" fill="#66B0F0"/>
<path d="M172.343 73.6298H129.824L130.589 66.3469C131.06 61.8642 133.455 58.1832 136.691 56.9411L147.053 54.0505H155.113L165.476 56.9411C168.72 58.1719 171.115 61.8642 171.578 66.3469L172.343 73.6298Z" fill="#FFCF2D"/>
<path d="M153.954 62.3722L150.886 58.2056C150.819 58.1153 150.819 57.9685 150.886 57.8895C150.953 57.7992 151.062 57.7992 151.121 57.8895L153.937 61.7173L158.307 55.0667C158.366 54.9763 158.475 54.965 158.542 55.0441C158.61 55.1231 158.618 55.2699 158.559 55.3602L153.954 62.3722Z" fill="white"/>
<path d="M148.255 62.3724L143.649 55.3604C143.591 55.2701 143.591 55.1233 143.666 55.0443C143.733 54.9652 143.843 54.9652 143.902 55.0669L148.272 61.7175L151.087 57.8897C151.155 57.7994 151.255 57.7994 151.323 57.8897C151.39 57.98 151.39 58.1155 151.323 58.2059L148.255 62.3724Z" fill="white"/>
<path d="M151.155 65.0936C150.751 65.0936 150.424 64.6532 150.424 64.1113C150.424 63.5693 150.751 63.1289 151.155 63.1289C151.558 63.1289 151.886 63.5693 151.886 64.1113C151.886 64.6532 151.558 65.0936 151.155 65.0936ZM151.155 63.5806C150.936 63.5806 150.76 63.8177 150.76 64.1113C150.76 64.4048 150.936 64.6419 151.155 64.6419C151.373 64.6419 151.55 64.4048 151.55 64.1113C151.55 63.8177 151.373 63.5806 151.155 63.5806Z" fill="white"/>
<path d="M151.155 70.6263C150.751 70.6263 150.424 70.186 150.424 69.644C150.424 69.102 150.751 68.6616 151.155 68.6616C151.558 68.6616 151.886 69.102 151.886 69.644C151.886 70.186 151.558 70.6263 151.155 70.6263ZM151.155 69.1133C150.936 69.1133 150.76 69.3504 150.76 69.644C150.76 69.9375 150.936 70.1747 151.155 70.1747C151.373 70.1747 151.55 69.9375 151.55 69.644C151.55 69.3504 151.373 69.1133 151.155 69.1133Z" fill="white"/>
<path d="M147.003 73.393H133.271L129.606 58.7819L143.339 53.4976L147.003 73.393Z" fill="white"/>
<path fill-rule="evenodd" clip-rule="evenodd" d="M143.46 53.2158L147.218 73.6186H133.149L129.39 58.6298L143.46 53.2158ZM129.821 58.9338L133.391 73.167H146.788L143.217 53.779L129.821 58.9338Z" fill="#66B0F0"/>
<path d="M133.984 60.679H133.724C133.06 60.679 132.522 59.9564 132.522 59.0643V53.9945C132.522 53.6332 132.74 53.3396 133.009 53.3396H134.144C134.413 53.3396 134.631 53.6332 134.631 53.9945V59.7983C134.64 60.2838 134.346 60.679 133.984 60.679Z" fill="white"/>
<path fill-rule="evenodd" clip-rule="evenodd" d="M133.009 53.5652C132.833 53.5652 132.69 53.7577 132.69 53.9943V59.0641C132.69 59.8314 133.153 60.4529 133.724 60.4529H133.984C134.254 60.4529 134.469 60.159 134.463 59.8033L134.463 59.8007V53.9943C134.463 53.7576 134.32 53.5652 134.144 53.5652H133.009ZM132.354 53.9943C132.354 53.5082 132.648 53.1135 133.009 53.1135H134.144C134.506 53.1135 134.799 53.5082 134.799 53.9943V59.7956C134.809 60.4096 134.437 60.9046 133.984 60.9046H133.724C132.967 60.9046 132.354 60.0808 132.354 59.0641V53.9943Z" fill="#66B0F0"/>
<path d="M139.515 60.679H139.775C140.439 60.679 140.977 59.9564 140.977 59.0643V53.9945C140.977 53.6332 140.759 53.3396 140.49 53.3396H139.347C139.078 53.3396 138.859 53.6332 138.859 53.9945V59.7983C138.859 60.2838 139.153 60.679 139.515 60.679Z" fill="white"/>
<path d="M136.094 61.2659H135.489C135.018 61.2659 134.64 60.7578 134.64 60.1254V54.0055C134.64 53.6442 134.858 53.3506 135.127 53.3506H136.262C136.531 53.3506 136.749 53.6442 136.749 54.0055V60.3851C136.749 60.8707 136.455 61.2659 136.094 61.2659Z" fill="white"/>
<path d="M138.212 61.492H137.707C137.178 61.492 136.749 60.9161 136.749 60.2048V53.9945C136.749 53.6332 136.968 53.3396 137.237 53.3396H138.371C138.64 53.3396 138.859 53.6332 138.859 53.9945V60.6113C138.859 61.0968 138.565 61.492 138.212 61.492Z" fill="white"/>
<path fill-rule="evenodd" clip-rule="evenodd" d="M138.691 53.9943C138.691 53.5082 138.984 53.1135 139.346 53.1135H140.489C140.851 53.1135 141.145 53.5082 141.145 53.9943V59.0641C141.145 60.0808 140.532 60.9046 139.775 60.9046H139.514C139.06 60.9046 138.691 60.4083 138.691 59.798V53.9943ZM139.346 53.5652C139.17 53.5652 139.027 53.7577 139.027 53.9943V59.798C139.027 60.1588 139.246 60.4529 139.514 60.4529H139.775C140.346 60.4529 140.809 59.8314 140.809 59.0641V53.9943C140.809 53.7576 140.665 53.5652 140.489 53.5652H139.346Z" fill="#66B0F0"/>
<path fill-rule="evenodd" clip-rule="evenodd" d="M135.127 53.5765C134.951 53.5765 134.808 53.769 134.808 54.0056V60.1255C134.808 60.6331 135.111 61.0402 135.489 61.0402H136.094C136.362 61.0402 136.581 60.7461 136.581 60.3853V54.0056C136.581 53.769 136.438 53.5765 136.262 53.5765H135.127ZM134.472 54.0056C134.472 53.5196 134.765 53.1249 135.127 53.1249H136.262C136.624 53.1249 136.917 53.5196 136.917 54.0056V60.3853C136.917 60.9955 136.548 61.4918 136.094 61.4918H135.489C134.925 61.4918 134.472 60.8826 134.472 60.1255V54.0056Z" fill="#66B0F0"/>
<path fill-rule="evenodd" clip-rule="evenodd" d="M137.237 53.5652C137.061 53.5652 136.918 53.7576 136.918 53.9943V60.2045C136.918 60.7912 137.271 61.2659 137.708 61.2659H138.212C138.471 61.2659 138.691 60.9737 138.691 60.611V53.9943C138.691 53.7577 138.548 53.5652 138.372 53.5652H137.237ZM136.582 53.9943C136.582 53.5082 136.875 53.1135 137.237 53.1135H138.372C138.733 53.1135 139.027 53.5082 139.027 53.9943V60.611C139.027 61.2194 138.659 61.7176 138.212 61.7176H137.708C137.085 61.7176 136.582 61.0406 136.582 60.2045V53.9943Z" fill="#66B0F0"/>
<path d="M155.122 47.4113V55.654C155.122 57.0767 153.315 58.2397 151.088 58.2397C148.86 58.2397 147.053 57.0767 147.053 55.654V47.4113H155.122Z" fill="white"/>
<path d="M155.121 47.4113C155.121 53.6328 152.154 55.4846 149.305 55.1572C149.297 55.1572 149.288 55.1572 149.28 55.1572C148.019 54.9991 147.061 53.5538 147.061 51.8601V47.4226H155.121V47.4113Z" fill="#66B0F0"/>
<path d="M156.996 45.2883V45.7061C156.996 46.632 156.441 47.3772 155.752 47.3772H155.113L155.122 47.5692C155.122 50.234 153.516 52.3906 151.533 52.3906H150.65C148.667 52.3906 147.062 50.234 147.062 47.5692L147.07 47.3772H146.431C145.742 47.3772 145.188 46.632 145.188 45.7061V45.2883C145.188 44.3624 145.742 43.6172 146.431 43.6172H147.247L147.339 41.5735C147.339 41.2573 147.373 40.9524 147.44 40.6702C149.844 41.4718 152.659 39.3942 153.415 38.7732C154.256 39.2023 154.853 40.2862 154.853 41.5622L154.945 43.6059H155.76C156.441 43.6172 156.996 44.3624 156.996 45.2883Z" fill="white"/>
<path d="M155.811 43.6173H154.937L154.844 41.5736C154.844 40.2977 154.248 39.2137 153.407 38.7846C152.651 39.3944 149.835 41.472 147.432 40.6816C147.364 40.9639 147.331 41.2687 147.331 41.5849L147.238 43.6286H146.692C146.692 43.6286 145.574 36.357 146.675 35.0246C147.49 34.0422 154.954 36.1876 155.777 37.7119C156.24 38.5814 155.811 43.6173 155.811 43.6173Z" fill="#E57281"/>
<path d="M153.71 43.1771C153.684 43.1771 153.651 43.1658 153.626 43.132C153.617 43.1207 153.071 42.5222 152.197 42.5222C152.13 42.5222 152.071 42.4432 152.071 42.3528C152.071 42.2625 152.13 42.1835 152.197 42.1835C153.163 42.1835 153.76 42.8384 153.785 42.8723C153.836 42.9287 153.844 43.0416 153.802 43.1094C153.785 43.1545 153.743 43.1771 153.71 43.1771Z" fill="#66B0F0"/>
<path d="M150.516 46.6773C150.499 46.6773 150.482 46.6773 150.474 46.6661C150.407 46.6322 150.373 46.5306 150.398 46.4515C150.634 45.616 150.575 44.5659 150.247 43.64C150.054 43.0754 149.776 42.6689 149.533 42.556C148.995 42.3076 148.238 42.6576 148.23 42.6576C148.163 42.6915 148.096 42.6463 148.07 42.556C148.045 42.4657 148.079 42.3753 148.146 42.3415C148.18 42.3302 148.986 41.9576 149.608 42.2398C149.919 42.3866 150.239 42.8496 150.466 43.5045C150.819 44.5094 150.877 45.6611 150.625 46.587C150.617 46.6322 150.567 46.6773 150.516 46.6773Z" fill="#66B0F0"/>
<path d="M152.172 48.4728C152.18 48.5632 152.122 48.6422 152.054 48.6535H152.046C151.979 48.6535 151.928 48.5858 151.92 48.4954C151.912 48.3825 151.895 48.2696 151.87 48.168C151.508 48.4051 151.18 48.4841 150.911 48.4841C150.382 48.4841 150.063 48.1906 150.046 48.168C149.987 48.1115 149.978 48.0099 150.012 47.9309C150.054 47.8518 150.13 47.8405 150.189 47.8857C150.205 47.897 150.474 48.1454 150.911 48.1454C151.147 48.1454 151.432 48.0776 151.76 47.8631C151.71 47.7502 151.659 47.6824 151.659 47.6824C151.609 47.6147 151.617 47.5018 151.668 47.4453C151.718 47.3889 151.802 47.3889 151.844 47.4566C151.861 47.4905 152.147 47.9196 152.172 48.4728Z" fill="#66B0F0"/>
<path d="M152.626 45.2457C152.741 45.236 152.824 44.9758 152.809 44.6646C152.795 44.3534 152.689 44.109 152.573 44.1187C152.457 44.1284 152.375 44.3885 152.39 44.6997C152.404 45.0109 152.51 45.2554 152.626 45.2457Z" fill="#66B0F0"/>
<path d="M149.194 45.2006C149.301 45.1917 149.377 44.9524 149.363 44.666C149.35 44.3797 149.253 44.1549 149.146 44.1638C149.04 44.1727 148.964 44.412 148.977 44.6984C148.991 44.9847 149.088 45.2096 149.194 45.2006Z" fill="#66B0F0"/>
<path d="M146.843 45.8304C146.776 45.8304 146.717 45.7514 146.717 45.6611C146.717 45.1642 146.415 44.769 146.053 44.769C145.986 44.769 145.927 44.69 145.927 44.5997C145.927 44.5093 145.986 44.4303 146.053 44.4303C146.558 44.4303 146.969 44.9836 146.969 45.6611C146.969 45.7627 146.911 45.8304 146.843 45.8304Z" fill="#66B0F0"/>
<path d="M155.298 45.8304C155.231 45.8304 155.172 45.7514 155.172 45.6611C155.172 44.9836 155.584 44.4303 156.088 44.4303C156.155 44.4303 156.214 44.5093 156.214 44.5997C156.214 44.69 156.155 44.769 156.088 44.769C155.718 44.769 155.424 45.1755 155.424 45.6611C155.424 45.7627 155.374 45.8304 155.298 45.8304Z" fill="#66B0F0"/>
<path fill-rule="evenodd" clip-rule="evenodd" d="M41.9317 135.91C42.6604 132.525 44.961 130.2 47.578 130.2H266.052C268.642 130.2 270.934 132.476 271.681 135.804L271.681 135.805M42.4161 136.098L8.06699 295.905L7.58252 295.717L41.9316 135.91L41.9317 135.91M42.4161 136.098C42.4161 136.098 42.4161 136.098 42.4161 136.098C43.0826 133.002 45.1859 130.878 47.578 130.878H266.052C268.421 130.878 270.516 132.96 271.198 136L271.198 136L307.195 295.909L307.677 295.713L271.681 135.805" fill="#66B0F0"/>
<path fill-rule="evenodd" clip-rule="evenodd" d="M202.985 76.8372H107.426V76.1597H202.985V76.8372Z" fill="#66B0F0"/>
<path d="M140.59 100.798H163.165V126.847H140.59C140.59 126.847 140.59 99.8155 140.59 100.798Z" fill="#FFCF2D"/>
<path d="M225.005 221.83L214.508 186.714H231.409L225.005 221.83Z" fill="#9A3B82"/>
<path d="M196.203 139.844C198.455 134.119 202.884 130.54 207.7 130.54H220.702L229.535 139.844H196.203Z" fill="#9A3B82"/>
<path d="M245.495 180.956H212.743L225.072 221.164C224.215 219.29 219.08 221.243 213.642 225.726C208.272 230.152 204.641 235.482 205.38 237.424L178.805 175.299C171.914 159.626 180.318 139.844 193.866 139.844H267.263L267.422 140.521C272.213 160.507 261.119 180.956 245.495 180.956Z" fill="#3FB1B5"/>
<path d="M268.532 151.372C268.414 155.042 267.809 158.587 266.784 161.873L228.291 139.855H266.498L267.389 143.355C268.011 145.456 268.355 148.403 268.532 151.372Z" fill="#E6E6E6"/>
<path d="M225.081 221.164C225.938 223.038 222.189 228.153 216.76 232.636C211.322 237.119 206.271 239.366 205.414 237.491C204.557 235.617 208.213 230.321 213.651 225.839C219.08 221.356 224.215 219.29 225.081 221.164Z" fill="#66B0F0"/>
<path fill-rule="evenodd" clip-rule="evenodd" d="M249.654 142.708C249.79 142.669 249.924 142.786 249.952 142.969C251.28 151.423 246.479 159.378 240.049 159.378H193.496C189.849 159.378 187.557 164.654 189.337 168.922C189.337 168.923 189.337 168.923 189.338 168.923L213.239 225.695C213.308 225.858 213.265 226.064 213.144 226.156C213.023 226.249 212.869 226.191 212.8 226.028L188.898 169.255L188.898 169.254C186.93 164.535 189.462 158.7 193.496 158.7H240.049C246.158 158.7 250.72 151.141 249.459 143.109C249.43 142.926 249.517 142.746 249.654 142.708Z" fill="white"/>
<path fill-rule="evenodd" clip-rule="evenodd" d="M221.491 220.904C219.548 221.555 216.952 223.15 213.777 225.635C210.965 227.838 208.643 230.416 207.135 232.667C206.38 233.793 205.837 234.826 205.536 235.677C205.386 236.102 205.301 236.469 205.274 236.771C205.248 237.073 205.283 237.288 205.351 237.438C205.424 237.598 205.387 237.806 205.269 237.904C205.15 238.002 204.995 237.953 204.922 237.793C204.776 237.475 204.739 237.094 204.774 236.693C204.808 236.293 204.916 235.852 205.081 235.386C205.411 234.453 205.988 233.366 206.76 232.213C208.307 229.905 210.671 227.284 213.523 225.049L213.523 225.049C216.711 222.555 219.356 220.921 221.369 220.247C222.375 219.91 223.242 219.807 223.949 219.973C224.664 220.142 225.22 220.589 225.572 221.346C225.645 221.505 225.609 221.714 225.491 221.813C225.373 221.912 225.218 221.864 225.144 221.705C224.882 221.141 224.463 220.782 223.862 220.641C223.253 220.497 222.463 220.579 221.491 220.904Z" fill="white"/>
<path fill-rule="evenodd" clip-rule="evenodd" d="M209.83 171.441C209.958 171.368 210.106 171.45 210.16 171.622L225.775 221.643C225.829 221.815 225.769 222.014 225.64 222.086C225.512 222.159 225.364 222.078 225.31 221.905L209.695 171.884C209.641 171.712 209.701 171.513 209.83 171.441Z" fill="white"/>
<path fill-rule="evenodd" clip-rule="evenodd" d="M231.048 139.81H192.95V139.132H231.048V139.81Z" fill="white"/>
<path d="M214.499 240.077L212.23 235.922L209.103 230.208C210.381 228.763 211.919 227.261 213.642 225.839C217.071 223.016 220.374 221.141 222.567 220.622L224.088 224.698L225.988 229.779C224.643 236.204 214.499 240.077 214.499 240.077Z" fill="#E57281"/>
<path d="M224.096 224.698C222.684 227.013 220.029 229.937 216.759 232.636C215.188 233.935 213.649 235.041 212.238 235.922L209.111 230.208C210.389 228.763 211.927 227.261 213.65 225.839C217.079 223.016 220.381 221.141 222.575 220.622L224.096 224.698Z" fill="#9A3B82"/>
<path d="M236.376 252.17L213.315 274.426C211.356 276.255 208.314 277.779 208.717 271.163C209.28 262.039 210.785 248.467 214.5 240.066C214.659 240.01 224.644 236.137 225.989 229.768L236.503 239.806C239.528 242.968 239.461 249.133 236.376 252.17Z" fill="white"/>
<path fill-rule="evenodd" clip-rule="evenodd" d="M225.843 229.214L236.653 239.534L236.657 239.539C239.814 242.838 239.745 249.273 236.525 252.444L236.524 252.445L213.46 274.702L213.458 274.704C212.958 275.171 212.384 275.623 211.806 275.933C211.233 276.24 210.631 276.419 210.088 276.295C209.525 276.167 209.053 275.72 208.76 274.862C208.475 274.027 208.363 272.814 208.465 271.135L208.465 271.134C208.748 266.563 209.266 260.873 210.18 255.271C211.093 249.672 212.405 244.139 214.282 239.893L214.335 239.774L214.435 239.738C214.435 239.738 214.436 239.738 214.437 239.737L214.445 239.735C214.452 239.732 214.461 239.729 214.472 239.724C214.495 239.715 214.527 239.703 214.567 239.686C214.648 239.654 214.763 239.607 214.907 239.546C215.196 239.423 215.601 239.243 216.088 239.01C217.061 238.542 218.357 237.858 219.688 236.98C221.02 236.101 222.38 235.031 223.487 233.795C224.596 232.556 225.429 231.174 225.745 229.676L225.843 229.214ZM226.121 230.311C225.707 231.813 224.852 233.152 223.809 234.316C222.66 235.599 221.262 236.696 219.91 237.588C217.482 239.19 215.176 240.152 214.665 240.354C212.855 244.495 211.572 249.898 210.672 255.416C209.765 260.98 209.249 266.638 208.968 271.19C208.869 272.82 208.986 273.897 209.219 274.58C209.444 275.24 209.779 275.538 210.172 275.627C210.584 275.721 211.084 275.59 211.62 275.303C212.15 275.019 212.689 274.596 213.168 274.149C213.169 274.149 213.17 274.148 213.17 274.148L236.227 251.897C236.227 251.897 236.228 251.896 236.228 251.896C239.175 248.993 239.24 243.103 236.352 240.078L226.121 230.311Z" fill="#FFCF2D"/>
<path fill-rule="evenodd" clip-rule="evenodd" d="M227.216 230.696C227.35 230.747 227.428 230.934 227.39 231.114C226.974 233.084 225.997 234.857 224.76 236.396C223.521 237.936 222.008 239.259 220.495 240.324C218.981 241.389 217.459 242.202 216.197 242.721C215.566 242.98 214.997 243.167 214.523 243.275C214.058 243.38 213.66 243.416 213.385 243.346C213.248 243.311 213.158 243.134 213.184 242.951C213.209 242.767 213.341 242.646 213.478 242.68C213.661 242.726 213.985 242.71 214.439 242.607C214.886 242.505 215.433 242.326 216.049 242.073C217.281 241.567 218.774 240.77 220.261 239.724C221.748 238.677 223.22 237.387 224.417 235.899C225.615 234.409 226.523 232.737 226.905 230.929C226.943 230.749 227.082 230.645 227.216 230.696Z" fill="#FFCF2D"/>
<path d="M210.952 272.134C210.952 272.134 226.005 244.041 236.712 245.621C248.369 247.326 201.422 288.517 210.952 272.134Z" fill="#FFCF2D"/>
<path fill-rule="evenodd" clip-rule="evenodd" d="M210.031 271.496C210.031 271.496 210.031 271.496 209.826 271.298L210.031 271.496L210.028 271.502L210.025 271.507C209.202 272.923 209.136 273.987 209.331 274.643C209.529 275.306 210.022 275.666 210.508 275.623C210.647 275.611 210.767 275.753 210.776 275.94C210.785 276.126 210.679 276.287 210.54 276.299C209.858 276.359 209.149 275.855 208.863 274.895C208.576 273.929 208.744 272.612 209.625 271.095L209.625 271.094L209.634 271.078C209.642 271.064 209.653 271.042 209.668 271.015C209.698 270.959 209.743 270.877 209.802 270.77C209.921 270.556 210.095 270.242 210.321 269.844C210.772 269.048 211.43 267.914 212.253 266.558C213.9 263.847 216.212 260.247 218.876 256.698C221.538 253.15 224.558 249.643 227.618 247.125C230.673 244.611 233.802 243.054 236.672 243.478C237.603 243.612 238.254 244.197 238.609 245.006C238.961 245.807 239.005 246.788 238.784 247.682C238.74 247.86 238.597 247.955 238.465 247.896C238.333 247.837 238.261 247.645 238.305 247.468C238.487 246.736 238.443 245.961 238.175 245.35C237.91 244.748 237.41 244.266 236.618 244.152L236.618 244.152C233.912 243.752 230.901 245.218 227.881 247.703C224.868 250.183 221.879 253.65 219.231 257.179C216.584 260.706 214.283 264.287 212.644 266.986C211.824 268.336 211.171 269.464 210.722 270.255C210.497 270.65 210.324 270.961 210.208 271.173C210.149 271.279 210.105 271.36 210.075 271.415C210.06 271.442 210.049 271.462 210.042 271.476L210.033 271.492L210.031 271.496Z" fill="#FFCF2D"/>
<path d="M268.616 153.664C263.287 151.97 250.025 147.51 234.897 142.813C227.787 140.611 221.836 134.107 218.769 125.21L204.994 85.1705L213.331 67.4204C215.895 61.9554 220.265 58.4776 225.064 58.0824L233.267 57.405C241.537 56.7275 248.176 63.6604 250.697 74.263L267.38 139.843C269.213 145.986 268.616 153.664 268.616 153.664Z" fill="white"/>
<path fill-rule="evenodd" clip-rule="evenodd" d="M233.282 57.7431C233.281 57.7431 233.281 57.7431 233.281 57.7431L225.079 58.4206C220.361 58.8091 216.064 62.2283 213.544 67.601L205.28 85.1955L218.997 125.067C222.032 133.87 227.919 140.305 234.953 142.483L234.953 142.483C245.405 145.728 254.97 148.862 261.64 151.047C264.457 151.969 266.756 152.722 268.389 153.244C268.401 153.028 268.416 152.726 268.428 152.353C268.455 151.545 268.472 150.403 268.433 149.071C268.353 146.401 268.047 142.989 267.146 139.969L267.143 139.961L250.458 74.3726L250.458 74.3694L250.457 74.3661C247.966 63.8923 241.422 57.0763 233.282 57.7431ZM268.615 153.664L268.866 153.699L268.836 154.082L268.557 153.994C266.907 153.469 264.499 152.68 261.512 151.702C254.844 149.517 245.289 146.388 234.84 143.143C227.654 140.918 221.64 134.344 218.54 125.352L218.539 125.352L204.707 85.1455L213.117 67.2399C215.724 61.6826 220.168 58.1463 225.048 57.7444C225.048 57.7444 225.048 57.7444 225.048 57.7444L233.251 57.0669C241.649 56.3789 248.384 63.427 250.936 74.1564C250.937 74.1576 250.937 74.1588 250.937 74.1599L267.616 139.726C268.546 142.846 268.856 146.341 268.937 149.044C268.977 150.399 268.959 151.56 268.932 152.384C268.918 152.795 268.902 153.123 268.889 153.348C268.882 153.461 268.877 153.548 268.873 153.607C268.872 153.622 268.871 153.635 268.87 153.646C268.869 153.657 268.868 153.667 268.868 153.675L268.867 153.693L268.866 153.697L268.866 153.699L268.866 153.699C268.866 153.699 268.866 153.699 268.615 153.664Z" fill="#FE5244"/>
<path fill-rule="evenodd" clip-rule="evenodd" d="M212.034 87.5998C212.034 87.5996 212.034 87.5994 212.246 87.4175C212.459 87.2356 212.459 87.2355 212.459 87.2355L212.459 87.2355L212.459 87.2363L212.461 87.2403C212.463 87.244 212.466 87.25 212.47 87.258C212.478 87.2742 212.49 87.2989 212.507 87.3316C212.54 87.3969 212.59 87.4944 212.658 87.6199C212.794 87.8709 213.001 88.234 213.28 88.6772C213.839 89.5638 214.689 90.7699 215.849 92.04C218.166 94.5795 221.721 97.3742 226.664 98.3853L226.589 99.0551C221.539 98.0225 217.904 95.1659 215.53 92.565C214.343 91.2649 213.472 90.0285 212.896 89.1151C212.608 88.6584 212.394 88.2822 212.251 88.0189C212.179 87.8872 212.126 87.7837 212.09 87.7125C212.072 87.6769 212.058 87.6493 212.049 87.6303C212.044 87.6208 212.04 87.6134 212.038 87.6083L212.035 87.6022L212.034 87.6004L212.034 87.5998Z" fill="#FE5244"/>
<path d="M218.163 70.5708C217.71 69.9159 216.911 70.0966 216.634 70.8983C216.323 71.8016 216.886 72.8065 217.617 72.6598C218.365 72.513 218.676 71.3048 218.163 70.5708Z" fill="#FFCF2D"/>
<path fill-rule="evenodd" clip-rule="evenodd" d="M216.405 70.7556C216.757 69.7388 217.77 69.5071 218.347 70.3396C218.999 71.2731 218.603 72.8083 217.654 72.9949C216.725 73.1809 216.009 71.905 216.405 70.7561L216.405 70.7556L216.405 70.7556ZM216.862 71.0408C216.636 71.6984 217.046 72.4319 217.58 72.3248L217.58 72.3246L217.58 72.3246C218.127 72.2174 218.353 71.337 217.979 70.8027L217.979 70.8017L217.979 70.8017C217.648 70.3251 217.065 70.4547 216.862 71.0408Z" fill="#FE5244"/>
<path d="M239.099 89.8678C238.645 89.2129 237.847 89.3936 237.57 90.1953C237.259 91.0986 237.822 92.1035 238.553 91.9567C239.301 91.81 239.612 90.6018 239.099 89.8678Z" fill="#FFCF2D"/>
<path fill-rule="evenodd" clip-rule="evenodd" d="M237.341 90.0523C237.693 89.0355 238.706 88.8038 239.283 89.6364C239.935 90.5698 239.539 92.105 238.59 92.2917C237.661 92.4776 236.945 91.2017 237.341 90.0529L237.341 90.0523L237.341 90.0523ZM237.798 90.3376C237.572 90.9951 237.982 91.7286 238.516 91.6215L238.516 91.6214L238.516 91.6214C239.063 91.5141 239.289 90.6338 238.915 90.0995L238.915 90.0985L238.915 90.0985C238.584 89.6218 238.001 89.7514 237.798 90.3376Z" fill="#FE5244"/>
<path d="M245.73 97.7718C245.276 97.1169 244.478 97.2975 244.201 98.0992C243.89 99.0025 244.453 100.007 245.184 99.8607C245.924 99.7252 246.235 98.517 245.73 97.7718Z" fill="#FFCF2D"/>
<path fill-rule="evenodd" clip-rule="evenodd" d="M243.972 97.9563C244.324 96.9393 245.337 96.7077 245.915 97.5408L245.917 97.5437C246.551 98.4811 246.168 100.02 245.219 100.196C244.291 100.381 243.576 99.1052 243.972 97.9568L243.972 97.9563L243.972 97.9563ZM244.429 98.2415C244.203 98.8991 244.613 99.6326 245.147 99.5255L245.15 99.5249C245.679 99.428 245.917 98.5536 245.545 98.0009C245.214 97.526 244.632 97.656 244.429 98.2415Z" fill="#FE5244"/>
<path d="M258.446 142.497C257.992 141.842 257.193 142.023 256.916 142.824C256.605 143.728 257.168 144.733 257.899 144.586C258.639 144.439 258.95 143.242 258.446 142.497Z" fill="#FFCF2D"/>
<path fill-rule="evenodd" clip-rule="evenodd" d="M256.688 142.682C257.039 141.665 258.053 141.433 258.63 142.266L258.632 142.269C259.27 143.211 258.88 144.734 257.937 144.921C257.008 145.107 256.292 143.831 256.687 142.682L256.688 142.682L256.688 142.682ZM257.145 142.967C256.919 143.625 257.329 144.358 257.862 144.251L257.863 144.251C258.398 144.145 258.63 143.276 258.26 142.727C257.93 142.252 257.348 142.382 257.145 142.967Z" fill="#FE5244"/>
<path d="M251.328 121.122C250.874 120.467 250.075 120.648 249.798 121.45C249.487 122.353 250.05 123.358 250.781 123.211C251.529 123.064 251.84 121.856 251.328 121.122Z" fill="#FFCF2D"/>
<path fill-rule="evenodd" clip-rule="evenodd" d="M249.569 121.307C249.921 120.29 250.934 120.058 251.512 120.891C252.163 121.824 251.767 123.36 250.818 123.546C249.889 123.732 249.174 122.456 249.569 121.307L249.569 121.307L249.569 121.307ZM250.027 121.592C249.8 122.25 250.21 122.983 250.744 122.876L250.745 122.876L250.745 122.876C251.291 122.769 251.517 121.888 251.144 121.354L251.143 121.353L251.143 121.353C250.813 120.876 250.23 121.006 250.027 121.592Z" fill="#FE5244"/>
<path d="M254.277 105.743C253.622 105.856 253.26 106.838 253.588 107.606C253.958 108.476 254.891 108.442 255.227 107.55C255.572 106.646 255.017 105.608 254.277 105.743Z" fill="#FFCF2D"/>
<path fill-rule="evenodd" clip-rule="evenodd" d="M255.452 107.704C255.025 108.835 253.839 108.879 253.37 107.775C252.953 106.799 253.411 105.552 254.244 105.408C255.184 105.236 255.889 106.556 255.452 107.704ZM255.003 107.396C255.254 106.737 254.85 105.98 254.312 106.079L254.31 106.079C253.833 106.162 253.568 106.879 253.807 107.438L253.807 107.438C254.077 108.073 254.757 108.049 255.002 107.397L255.003 107.396Z" fill="#FE5244"/>
<path d="M259.648 128.552C258.992 128.665 258.631 129.647 258.959 130.415C259.329 131.284 260.261 131.25 260.598 130.358C260.942 129.455 260.396 128.416 259.648 128.552Z" fill="#FFCF2D"/>
<path fill-rule="evenodd" clip-rule="evenodd" d="M260.822 130.512C260.395 131.644 259.21 131.687 258.74 130.583C258.323 129.607 258.781 128.361 259.615 128.216C260.565 128.045 261.259 129.367 260.822 130.512ZM260.373 130.204C260.625 129.544 260.227 128.789 259.682 128.888L259.68 128.888C259.203 128.97 258.939 129.688 259.177 130.247L259.178 130.247C259.447 130.882 260.127 130.858 260.373 130.206L260.373 130.204Z" fill="#FE5244"/>
<path d="M237.376 103.948C236.922 103.293 236.124 103.474 235.846 104.275C235.535 105.179 236.098 106.184 236.83 106.037C237.569 105.89 237.88 104.693 237.376 103.948Z" fill="#FFCF2D"/>
<path fill-rule="evenodd" clip-rule="evenodd" d="M235.618 104.133C235.97 103.116 236.983 102.884 237.561 103.718L237.563 103.72C238.2 104.662 237.81 106.185 236.867 106.372C235.938 106.559 235.222 105.283 235.618 104.134L235.618 104.133L235.618 104.133ZM236.075 104.418C235.849 105.076 236.259 105.809 236.793 105.702L236.793 105.702C237.328 105.596 237.561 104.727 237.191 104.178C236.86 103.703 236.278 103.833 236.075 104.418Z" fill="#FE5244"/>
<path d="M232.745 116.741C232.291 116.086 231.493 116.267 231.216 117.069C230.905 117.972 231.468 118.977 232.199 118.83C232.947 118.683 233.258 117.475 232.745 116.741Z" fill="#FFCF2D"/>
<path fill-rule="evenodd" clip-rule="evenodd" d="M230.987 116.926C231.339 115.909 232.352 115.677 232.93 116.51C233.581 117.443 233.185 118.978 232.236 119.165C231.307 119.351 230.591 118.075 230.987 116.926L230.987 116.926L230.987 116.926ZM231.445 117.211C231.218 117.869 231.628 118.602 232.162 118.495L232.163 118.495L232.163 118.495C232.709 118.388 232.935 117.507 232.562 116.973L232.561 116.972L232.561 116.972C232.231 116.495 231.648 116.625 231.445 117.211Z" fill="#FE5244"/>
<path d="M224.459 112.27C224.946 111.66 224.812 110.588 224.215 110.215C223.543 109.797 222.795 110.554 222.904 111.536C223.013 112.53 223.904 112.947 224.459 112.27Z" fill="#FFCF2D"/>
<path fill-rule="evenodd" clip-rule="evenodd" d="M222.654 111.586C222.516 110.338 223.465 109.376 224.32 109.907L224.321 109.908C225.078 110.38 225.25 111.742 224.63 112.518L224.628 112.52C223.927 113.376 222.794 112.853 222.654 111.586ZM224.109 110.522C223.619 110.218 223.073 110.769 223.153 111.486L223.153 111.486C223.232 112.205 223.879 112.518 224.288 112.02C224.641 111.576 224.544 110.794 224.109 110.522Z" fill="#FE5244"/>
<path d="M231.812 134.288C232.3 133.679 232.165 132.606 231.568 132.233C230.896 131.815 230.148 132.572 230.257 133.554C230.367 134.559 231.266 134.977 231.812 134.288Z" fill="#FFCF2D"/>
<path fill-rule="evenodd" clip-rule="evenodd" d="M230.008 133.604C229.869 132.356 230.819 131.394 231.674 131.926L231.675 131.926C232.432 132.398 232.604 133.76 231.984 134.536C231.29 135.411 230.147 134.879 230.008 133.604ZM231.462 132.54C230.973 132.236 230.427 132.787 230.507 133.504L230.507 133.505L230.507 133.505C230.587 134.239 231.242 134.542 231.64 134.041L231.64 134.04L231.64 134.04C231.995 133.596 231.899 132.813 231.462 132.54Z" fill="#FE5244"/>
<path d="M244.192 115.398C244.679 114.788 244.545 113.715 243.948 113.343C243.276 112.925 242.528 113.681 242.637 114.664C242.746 115.657 243.646 116.086 244.192 115.398Z" fill="#FFCF2D"/>
<path fill-rule="evenodd" clip-rule="evenodd" d="M242.388 114.713C242.249 113.466 243.199 112.504 244.054 113.035L244.055 113.035C244.812 113.508 244.984 114.869 244.364 115.645C243.667 116.523 242.527 115.973 242.388 114.713ZM243.842 113.65C243.353 113.346 242.807 113.897 242.887 114.613L242.887 114.614C242.967 115.341 243.624 115.649 244.02 115.15L244.02 115.15L244.02 115.15C244.375 114.706 244.279 113.922 243.842 113.65Z" fill="#FE5244"/>
<path d="M248.42 139.042C248.907 138.432 248.772 137.359 248.176 136.987C247.503 136.569 246.755 137.325 246.865 138.308C246.966 139.313 247.865 139.73 248.42 139.042Z" fill="#FFCF2D"/>
<path fill-rule="evenodd" clip-rule="evenodd" d="M246.615 138.355C246.478 137.109 247.427 136.148 248.282 136.679L248.282 136.68C249.039 137.152 249.212 138.514 248.592 139.29L248.591 139.29L248.591 139.29C247.892 140.159 246.746 139.639 246.615 138.355ZM248.07 137.294C247.581 136.99 247.035 137.541 247.114 138.258C247.115 138.259 247.115 138.261 247.115 138.263C247.188 138.986 247.839 139.302 248.248 138.793C248.603 138.35 248.506 137.567 248.07 137.294Z" fill="#FE5244"/>
<path d="M223.071 91.1551C222.618 90.5002 221.819 90.6808 221.542 91.4825C221.231 92.3858 221.794 93.3908 222.525 93.244C223.273 93.0972 223.584 91.889 223.071 91.1551Z" fill="#FFCF2D"/>
<path fill-rule="evenodd" clip-rule="evenodd" d="M221.314 91.3394C221.665 90.3226 222.679 90.0909 223.256 90.9235C223.908 91.8569 223.512 93.3921 222.562 93.5787C221.634 93.7647 220.918 92.4888 221.313 91.34L221.314 91.3394L221.314 91.3394ZM221.771 91.6247C221.545 92.2822 221.955 93.0157 222.488 92.9086L222.489 92.9085L222.489 92.9085C223.036 92.8012 223.261 91.9209 222.888 91.3866L222.887 91.3856L222.887 91.3856C222.557 90.909 221.974 91.0385 221.771 91.6247Z" fill="#FE5244"/>
<path d="M224.576 61.8649C224.122 61.21 223.324 61.3907 223.046 62.1924C222.735 63.0957 223.299 64.1006 224.03 63.9538C224.778 63.807 225.089 62.5989 224.576 61.8649Z" fill="#FFCF2D"/>
<path fill-rule="evenodd" clip-rule="evenodd" d="M222.818 62.0498C223.17 61.033 224.183 60.8013 224.76 61.6338C225.412 62.5673 225.016 64.1025 224.067 64.2891C223.138 64.4751 222.422 63.1992 222.818 62.0503L222.818 62.0498L222.818 62.0498ZM223.275 62.335C223.049 62.9926 223.459 63.7261 223.992 63.619L223.993 63.6188L223.993 63.6188C224.54 63.5116 224.765 62.6312 224.392 62.0969L224.391 62.0959L224.391 62.0959C224.061 61.6193 223.478 61.7489 223.275 62.335Z" fill="#FE5244"/>
<path d="M239.099 61.8649C238.645 61.21 237.847 61.3907 237.57 62.1924C237.259 63.0957 237.822 64.1006 238.553 63.9538C239.301 63.807 239.612 62.5989 239.099 61.8649Z" fill="#FFCF2D"/>
<path fill-rule="evenodd" clip-rule="evenodd" d="M237.341 62.0498C237.693 61.033 238.706 60.8013 239.283 61.6338C239.935 62.5673 239.539 64.1025 238.59 64.2891C237.661 64.4751 236.945 63.1992 237.341 62.0503L237.341 62.0498L237.341 62.0498ZM237.798 62.335C237.572 62.9926 237.982 63.7261 238.516 63.619L238.516 63.6188L238.516 63.6188C239.063 63.5116 239.289 62.6312 238.915 62.0969L238.915 62.0959L238.915 62.0959C238.584 61.6193 238.001 61.7489 237.798 62.335Z" fill="#FE5244"/>
<path d="M239.124 74.5113C238.511 74.8388 238.334 75.9002 238.796 76.5438C239.309 77.2551 240.208 76.9277 240.376 75.9566C240.544 74.9743 239.822 74.1387 239.124 74.5113Z" fill="#FFCF2D"/>
<path fill-rule="evenodd" clip-rule="evenodd" d="M239.031 74.1967C239.918 73.7229 240.836 74.785 240.622 76.0327L240.622 76.0335C240.408 77.2681 239.266 77.682 238.615 76.7796L238.615 76.7791C238.027 75.9604 238.253 74.6122 239.031 74.1967M240.131 75.8805C240.253 75.1636 239.725 74.5549 239.217 74.8263L239.217 74.8263C238.769 75.0657 238.641 75.84 238.978 76.3085C239.353 76.8284 240.008 76.5876 240.131 75.8805Z" fill="#FE5244"/>
<path d="M230.871 67.3074C230.232 67.5558 229.988 68.5833 230.392 69.2834C230.854 70.0625 231.77 69.8479 232.005 68.9108C232.249 67.951 231.585 67.0251 230.871 67.3074Z" fill="#FFCF2D"/>
<path fill-rule="evenodd" clip-rule="evenodd" d="M230.8 66.9823C231.711 66.6228 232.553 67.8017 232.244 69.0197C231.944 70.2129 230.78 70.4812 230.195 69.4946C230.194 69.4933 230.193 69.4921 230.192 69.4908C229.681 68.6033 229.99 67.2981 230.8 66.9823ZM231.767 68.8014C231.945 68.1003 231.459 67.428 230.942 67.6324L230.941 67.6328L230.941 67.6328C230.475 67.814 230.296 68.5617 230.59 69.0742C230.929 69.6433 231.596 69.4824 231.767 68.8025L231.767 68.8014L231.767 68.8014Z" fill="#FE5244"/>
<path d="M229.652 98.5848C228.997 98.6864 228.627 99.6575 228.946 100.437C229.308 101.306 230.241 101.295 230.585 100.414C230.938 99.522 230.4 98.4719 229.652 98.5848Z" fill="#FFCF2D"/>
<path fill-rule="evenodd" clip-rule="evenodd" d="M230.808 100.572C231.257 99.436 230.57 98.1053 229.624 98.2481L229.624 98.2481L229.623 98.2482C228.788 98.3778 228.32 99.6121 228.725 100.6L228.726 100.602C229.184 101.703 230.369 101.693 230.808 100.572ZM229.681 98.9213C230.23 98.8388 230.619 99.6074 230.362 100.255L230.362 100.255L230.362 100.256C230.112 100.896 229.432 100.908 229.167 100.272C228.934 99.7022 229.206 98.9953 229.681 98.9213Z" fill="#FE5244"/>
<path d="M222.45 122.105C221.794 122.206 221.424 123.177 221.744 123.957C222.105 124.826 223.038 124.815 223.383 123.934C223.736 123.042 223.198 121.992 222.45 122.105Z" fill="#FFCF2D"/>
<path fill-rule="evenodd" clip-rule="evenodd" d="M223.606 124.092C224.055 122.956 223.368 121.625 222.422 121.768L222.422 121.768L222.421 121.768C221.586 121.898 221.118 123.132 221.523 124.12L221.524 124.121C221.982 125.223 223.167 125.213 223.606 124.092ZM222.478 122.441C223.028 122.359 223.416 123.127 223.16 123.775L223.16 123.775L223.16 123.776C222.909 124.416 222.229 124.428 221.964 123.792C221.731 123.222 222.003 122.515 222.478 122.441Z" fill="#FE5244"/>
<path d="M224.87 76.6343C224.231 76.8827 223.987 77.9102 224.391 78.6103C224.853 79.3894 225.769 79.1749 226.005 78.2377C226.248 77.2892 225.593 76.3633 224.87 76.6343Z" fill="#FFCF2D"/>
<path fill-rule="evenodd" clip-rule="evenodd" d="M226.243 78.3471C226.554 77.1363 225.717 75.9651 224.802 76.308L224.8 76.3089C223.989 76.6244 223.68 77.93 224.192 78.8177C224.192 78.8189 224.193 78.8202 224.194 78.8215C224.779 79.8079 225.943 79.5399 226.243 78.3471ZM224.939 76.9602C225.469 76.7627 225.943 77.4419 225.766 78.1271L225.766 78.1294C225.595 78.8093 224.929 78.9702 224.589 78.401C224.296 77.889 224.474 77.1421 224.939 76.9602Z" fill="#FE5244"/>
<path d="M231.829 82.9575C231.19 83.2059 230.946 84.2335 231.35 84.9335C231.812 85.7126 232.728 85.4981 232.964 84.5609C233.207 83.6011 232.552 82.6752 231.829 82.9575Z" fill="#FFCF2D"/>
<path fill-rule="evenodd" clip-rule="evenodd" d="M231.759 82.632C232.679 82.2728 233.511 83.4526 233.203 84.6696C232.903 85.8628 231.738 86.1311 231.153 85.1445C231.152 85.1432 231.151 85.142 231.151 85.1407C230.639 84.2531 230.948 82.9476 231.759 82.632ZM232.725 84.4513C232.903 83.749 232.425 83.0775 231.9 83.2826L231.899 83.2827C231.433 83.4639 231.255 84.2116 231.548 84.7241C231.888 85.2933 232.554 85.1323 232.725 84.4524L232.725 84.4513L232.725 84.4513Z" fill="#FE5244"/>
<path d="M216.76 82.6863C217.181 81.9975 216.954 80.9587 216.315 80.699C215.609 80.4054 214.937 81.2862 215.147 82.2347C215.357 83.2057 216.281 83.4654 216.76 82.6863Z" fill="#FFCF2D"/>
<path fill-rule="evenodd" clip-rule="evenodd" d="M216.388 80.3752C217.201 80.7065 217.487 82.0291 216.955 82.9011L216.954 82.9021L216.954 82.9021C216.346 83.8921 215.171 83.56 214.904 82.3303C214.636 81.1175 215.494 80.0044 216.388 80.3752ZM216.24 81.0227C215.722 80.8075 215.237 81.4548 215.388 82.1381L215.388 82.1402C215.542 82.8516 216.216 83.0385 216.565 82.4712C216.873 81.9659 216.705 81.2119 216.241 81.0233L216.24 81.0227Z" fill="#FE5244"/>
<path d="M248.621 82.7203C249.041 82.0315 248.815 80.9927 248.176 80.733C247.47 80.4394 246.797 81.3201 247.008 82.2686C247.209 83.2397 248.142 83.4994 248.621 82.7203Z" fill="#FFCF2D"/>
<path fill-rule="evenodd" clip-rule="evenodd" d="M248.25 80.409C249.063 80.7404 249.349 82.0629 248.817 82.935L248.816 82.936L248.816 82.936C248.21 83.9222 247.024 83.5986 246.766 82.3624C246.499 81.1503 247.357 80.0383 248.25 80.409ZM248.102 81.0565C247.584 80.8413 247.098 81.4886 247.25 82.1719C247.25 82.1738 247.251 82.1757 247.251 82.1775C247.397 82.8809 248.076 83.0756 248.427 82.505C248.735 81.9997 248.567 81.2457 248.103 81.0572L248.102 81.0565Z" fill="#FE5244"/>
<path d="M240.536 128.496C240.956 127.807 240.729 126.768 240.091 126.508C239.385 126.215 238.712 127.095 238.922 128.044C239.124 129.004 240.057 129.263 240.536 128.496Z" fill="#FFCF2D"/>
<path fill-rule="evenodd" clip-rule="evenodd" d="M240.164 126.185C240.978 126.516 241.263 127.838 240.731 128.71L240.729 128.713C240.123 129.684 238.939 129.364 238.68 128.138C238.413 126.926 239.271 125.814 240.164 126.185ZM240.016 126.832C239.498 126.617 239.013 127.264 239.164 127.947L239.165 127.952C239.31 128.644 239.99 128.842 240.342 128.28C240.649 127.774 240.481 127.021 240.018 126.833L240.016 126.832Z" fill="#FE5244"/>
<path d="M233.83 57.0318C233.645 57.0431 233.46 57.0544 233.267 57.0657L225.064 57.7432C222.971 57.9125 220.971 58.6691 219.155 59.9224L216.634 49.7827L227.871 38.7172L233.83 57.0318Z" fill="#E57281"/>
<path d="M219.122 59.7652C221.458 58.3425 223.324 55.8132 224.383 52.6742L228.468 40.536L227.871 38.7068L216.634 49.7723L219.122 59.7652Z" fill="#9A3B82"/>
<path d="M228.593 39.7343C228.593 40.7844 228.274 41.7329 227.761 42.4217C227.249 43.1104 226.543 43.5395 225.761 43.5395H223.29C222.315 48.6319 218.542 52.121 214.482 51.1612L212.625 50.7208C210.591 50.2353 209.204 47.6834 209.49 44.9396L211.667 30.2947C212.045 27.167 214.44 25.2588 216.667 26.3314L220.273 28.2736C222.223 29.1769 223.534 31.6384 223.534 34.4048V35.8162L225.761 35.9291C227.324 35.9291 228.593 37.6341 228.593 39.7343Z" fill="#E57281"/>
<path fill-rule="evenodd" clip-rule="evenodd" d="M226.366 38.1197C225.398 38.1197 224.618 39.1677 224.618 40.4683C224.618 40.6243 224.524 40.7506 224.408 40.7506C224.292 40.7506 224.198 40.6243 224.198 40.4683C224.198 38.8559 225.166 37.5552 226.366 37.5552C226.482 37.5552 226.576 37.6816 226.576 37.8375C226.576 37.9934 226.482 38.1197 226.366 38.1197Z" fill="#9A3B82"/>
<path fill-rule="evenodd" clip-rule="evenodd" d="M212.667 33.3774C212.667 33.2215 212.761 33.0951 212.877 33.0951L212.877 33.3774C212.877 33.0951 212.877 33.0951 212.877 33.0951L212.877 33.0951L212.878 33.0951L212.88 33.0951L212.885 33.0952C212.89 33.0953 212.896 33.0955 212.904 33.0958C212.919 33.0964 212.941 33.0977 212.969 33.1001C213.024 33.105 213.104 33.1145 213.202 33.1334C213.398 33.171 213.672 33.2458 213.987 33.3949C214.617 33.6933 215.411 34.29 216.071 35.4781C216.14 35.6031 216.121 35.7799 216.028 35.8732C215.935 35.9664 215.803 35.9407 215.734 35.8158C215.133 34.7344 214.415 34.1962 213.847 33.9273C213.563 33.7926 213.316 33.7256 213.143 33.6923C213.056 33.6757 212.987 33.6675 212.942 33.6635C212.919 33.6615 212.901 33.6605 212.89 33.6601C212.885 33.6598 212.881 33.6597 212.879 33.6597L212.877 33.6597C212.876 33.6597 212.876 33.6597 212.876 33.6597L212.877 33.6597" fill="#9A3B82"/>
<path d="M214.05 37.6034C214.139 36.9469 214.026 36.3695 213.797 36.3137C213.569 36.258 213.312 36.745 213.223 37.4015C213.134 38.058 213.247 38.6354 213.476 38.6912C213.704 38.7469 213.961 38.2599 214.05 37.6034Z" fill="#9A3B82"/>
<path d="M225.761 35.9289C227.324 35.9289 228.594 37.6339 228.594 39.7341C228.594 39.7454 228.594 39.768 228.594 39.7906C229.854 37.1823 232.947 30.543 232.947 28.296C232.947 25.2812 230.148 22.2664 227.249 23.6439C227.442 23.452 227.644 23.2487 227.854 23.0342C228.972 21.8599 229.56 20.9792 229.653 20.3468C229.686 20.121 229.661 19.9178 229.577 19.7597C229.241 19.1161 228.871 18.8338 228.476 18.9241C227.896 19.0483 227.299 20.0081 226.703 21.7696C226.434 22.5712 226.224 23.3616 226.106 23.8472C225.871 21.9615 224.736 15.7174 219.861 16.6771C218.18 17.0046 217.39 17.9418 217.172 18.9693C215.777 17.5014 213.911 16.3497 212.365 17.445C209.692 19.3306 210.02 22.4245 211.566 24.615C210.104 24.5811 209.078 25.157 209.078 26.8168C209.078 28.3411 210.247 29.0751 211.852 29.3686C213.457 29.6622 215.516 29.5041 217.298 29.2332C218.567 29.0412 219.71 28.8041 220.441 28.6347C219.954 29.9784 219.76 31.1301 219.802 32.1012C219.878 34.111 220.962 35.2966 222.492 35.7144C222.82 35.8047 223.173 35.8612 223.534 35.8838L225.761 35.9289ZM228.526 19.3758C228.552 19.3645 228.577 19.3645 228.61 19.3645C228.846 19.3645 229.073 19.5903 229.3 20.0194C229.316 20.0646 229.342 20.1323 229.325 20.2565C229.19 21.1711 227.467 22.91 226.467 23.8246C226.862 22.2664 227.694 19.5677 228.526 19.3758Z" fill="#FFCF2D"/>
<path d="M202.464 122.421H148.675C147.347 122.421 146.549 120.456 147.255 118.954L154.415 103.847C155.348 101.882 156.953 100.696 158.685 100.696H195.093L202.464 122.421Z" fill="#E57281"/>
<path d="M159.87 100.708L164.156 91.2229C164.408 90.6584 164.871 90.3083 165.358 90.3083C166.459 90.3083 167.131 91.923 166.56 93.1877L163.156 100.708H159.87Z" fill="#FE5244"/>
<path d="M202.464 122.421H190.37C190.345 122.387 190.311 122.342 190.286 122.308C187.344 118.243 186.092 112.078 187.748 106.139L189.47 100.696H195.093L202.464 122.421Z" fill="#9A3B82"/>
<path d="M156.273 112.281H149.532C149.078 112.281 148.658 112.609 148.431 113.14L147.717 114.811C147.238 115.94 147.843 117.351 148.818 117.351H154.239C155.18 117.351 156.054 116.696 156.55 115.612L157.13 114.337C157.533 113.433 157.054 112.281 156.273 112.281Z" fill="#E57281"/>
<path d="M154.533 117.351H147.793C147.339 117.351 146.919 117.679 146.692 118.209L145.978 119.88C145.498 121.01 146.104 122.421 147.079 122.421H152.499C153.441 122.421 154.315 121.766 154.811 120.682L155.391 119.406C155.802 118.503 155.315 117.351 154.533 117.351Z" fill="#E57281"/>
<path d="M158.198 107.144H151.457C151.003 107.144 150.583 107.471 150.356 108.002L149.642 109.673C149.163 110.802 149.768 112.214 150.743 112.214H156.164C157.105 112.214 157.979 111.559 158.475 110.475L159.055 109.199C159.467 108.296 158.979 107.144 158.198 107.144Z" fill="#E57281"/>
<path fill-rule="evenodd" clip-rule="evenodd" d="M148.249 112.999C148.514 112.381 149.003 111.999 149.533 111.999H156.273C157.221 111.999 157.796 113.393 157.31 114.482L157.31 114.483L156.73 115.759L156.729 115.76C156.195 116.928 155.253 117.633 154.239 117.633H148.818C147.682 117.633 146.976 115.988 147.535 114.671L147.535 114.67L148.249 112.999ZM148.614 113.28C148.614 113.28 148.614 113.28 148.614 113.28L147.9 114.95C147.9 114.95 147.9 114.951 147.9 114.951C147.5 115.892 148.005 117.069 148.818 117.069H154.239C155.107 117.069 155.913 116.465 156.371 115.465C156.371 115.465 156.371 115.465 156.371 115.464L156.95 114.191C156.95 114.191 156.95 114.191 156.95 114.19C157.271 113.472 156.888 112.564 156.273 112.564H149.533C149.154 112.564 148.803 112.837 148.614 113.28Z" fill="#9A3B82"/>
<path fill-rule="evenodd" clip-rule="evenodd" d="M146.509 118.069C146.774 117.451 147.263 117.069 147.793 117.069H154.533C155.477 117.069 156.068 118.461 155.569 119.554L154.99 120.829L154.989 120.83C154.455 121.997 153.513 122.703 152.499 122.703H147.078C145.942 122.703 145.236 121.057 145.795 119.741L145.795 119.74L146.509 118.069ZM146.874 118.35C146.874 118.35 146.874 118.35 146.874 118.35L146.16 120.02C146.16 120.02 146.16 120.02 146.16 120.021C145.76 120.962 146.265 122.139 147.078 122.139H152.499C153.367 122.139 154.173 121.535 154.631 120.535C154.631 120.535 154.631 120.534 154.631 120.534L155.211 119.259C155.536 118.545 155.152 117.633 154.533 117.633H147.793C147.414 117.633 147.063 117.906 146.874 118.35Z" fill="#9A3B82"/>
<path fill-rule="evenodd" clip-rule="evenodd" d="M150.174 107.861C150.438 107.243 150.928 106.862 151.457 106.862H158.197C159.142 106.862 159.732 108.253 159.234 109.346L158.654 110.622L158.654 110.623C158.12 111.79 157.178 112.496 156.163 112.496H150.743C149.606 112.496 148.9 110.85 149.459 109.533L149.459 109.533L150.174 107.861ZM150.538 108.143C150.538 108.143 150.538 108.143 150.538 108.143L149.824 109.813C149.824 109.813 149.824 109.813 149.824 109.813C149.425 110.755 149.929 111.931 150.743 111.931H156.163C157.032 111.931 157.838 111.328 158.295 110.327C158.296 110.327 158.296 110.327 158.296 110.327L158.875 109.051C159.201 108.338 158.816 107.426 158.197 107.426H151.457C151.079 107.426 150.728 107.699 150.538 108.143Z" fill="#9A3B82"/>
<path d="M167.955 114.698C165.93 114.698 163.98 113.715 162.45 111.92L159.895 108.916H157.542L156.937 109.786C155.853 111.344 154.517 112.236 152.928 112.236H151.802C151.214 112.236 150.852 111.355 151.172 110.689L154.004 104.727H167.964V114.698H167.955Z" fill="#E57281"/>
<path fill-rule="evenodd" clip-rule="evenodd" d="M154.117 104.49C154.215 104.574 154.243 104.748 154.181 104.88L151.349 110.841L151.348 110.842C151.12 111.319 151.378 111.954 151.802 111.954H152.928C154.451 111.954 155.734 111.113 156.783 109.594L156.783 109.593L157.451 108.634H159.974L162.588 111.708C162.588 111.708 162.589 111.708 162.589 111.708M159.816 109.199L162.312 112.133L162.312 112.133C163.871 113.962 165.879 114.98 167.955 114.98C168.071 114.98 168.165 114.854 168.165 114.698C168.165 114.542 168.071 114.416 167.955 114.416C165.981 114.416 164.072 113.447 162.589 111.708M159.816 109.199H157.633L157.091 109.978C157.091 109.978 157.091 109.978 157.091 109.979C155.972 111.598 154.582 112.519 152.928 112.519H151.802C151.049 112.519 150.585 111.393 150.995 110.537C150.995 110.537 150.995 110.537 150.995 110.537L153.827 104.576C153.889 104.444 154.019 104.406 154.117 104.49" fill="#9A3B82"/>
<path d="M224.702 101.306L211.869 120.569C209.171 124.623 205.313 126.937 201.262 126.937C193.261 126.937 187.723 116.211 190.53 106.139L205.775 58.0148L200.624 54.1419C199.892 53.3741 199.539 52.1207 199.699 50.9013L200.573 42.986C200.842 41.2245 202.178 39.847 203.481 39.4405L209.515 37.6113C210.028 37.4532 210.499 38.0404 210.415 38.7292L209.541 44.8378C209.196 47.8187 210.692 50.3931 212.911 50.9013C214.726 51.319 216.004 53.7693 215.836 56.2308L211.726 90.6695C211.717 90.6921 215.928 99.5107 224.702 101.306Z" fill="#E57281"/>
<path fill-rule="evenodd" clip-rule="evenodd" d="M214.893 64.1382C215.007 64.1619 215.086 64.3061 215.068 64.4602L210.11 107.717C210.092 107.872 209.985 107.977 209.87 107.954C209.755 107.93 209.677 107.786 209.694 107.632L214.653 64.3742C214.671 64.2202 214.778 64.1145 214.893 64.1382Z" fill="#9A3B82"/>
<path fill-rule="evenodd" clip-rule="evenodd" d="M204.588 43.2799C204.704 43.285 204.795 43.4154 204.792 43.5712L204.724 46.3706C204.724 46.3708 204.724 46.3709 204.724 46.371C204.702 47.4083 205.161 48.2921 205.791 48.5381L213.507 50.6361C213.621 50.667 213.694 50.816 213.671 50.9688C213.648 51.1216 213.537 51.2204 213.424 51.1894L205.692 49.0871L205.684 49.0841C204.839 48.7615 204.277 47.6159 204.304 46.354L204.304 46.3532L204.372 43.553C204.375 43.3972 204.472 43.2749 204.588 43.2799Z" fill="#9A3B82"/>
<path fill-rule="evenodd" clip-rule="evenodd" d="M209.425 37.5965C209.992 37.4144 210.514 38.07 210.412 38.8461L209.614 44.9721C209.346 47.5608 210.654 49.969 212.573 50.4305L218.746 51.5362C218.861 51.5568 218.942 51.6988 218.927 51.8534C218.911 52.0079 218.806 52.1165 218.691 52.0959L212.509 50.9885L212.504 50.9874C210.36 50.4755 208.897 47.7844 209.198 44.8892L209.199 44.8844L209.998 38.748C210.047 38.3728 209.796 38.0575 209.523 38.1457L209.522 38.1459L203.218 40.1221C203.105 40.1575 202.992 40.0631 202.966 39.9113C202.939 39.7595 203.009 39.6077 203.122 39.5723L209.424 37.5967C209.425 37.5966 209.425 37.5965 209.425 37.5965Z" fill="#9A3B82"/>
<path fill-rule="evenodd" clip-rule="evenodd" d="M232.202 90.625L215.494 115.602L215.119 115.149L231.827 90.1721L232.202 90.625Z" fill="#FE5244"/>
<path fill-rule="evenodd" clip-rule="evenodd" d="M205.742 58.0262C205.742 57.8703 205.836 57.7439 205.952 57.7439H208.902C209.018 57.7439 209.112 57.8703 209.112 58.0262C209.112 58.1821 209.018 58.3085 208.902 58.3085H205.952C205.836 58.3085 205.742 58.1821 205.742 58.0262Z" fill="#9A3B82"/>
<path fill-rule="evenodd" clip-rule="evenodd" d="M207.282 38.8826C207.583 39.158 207.806 39.6106 207.801 40.1781L207.742 46.0707C207.742 46.8023 207.352 47.4462 206.809 47.4462H205.885C205.032 47.4462 204.381 46.4068 204.381 45.2105V44.3072C204.381 44.1513 204.475 44.0249 204.591 44.0249C204.707 44.0249 204.801 44.1513 204.801 44.3072V45.2105C204.801 46.1596 205.309 46.8817 205.885 46.8817H206.809C207.074 46.8817 207.322 46.5557 207.322 46.0687V46.0668L207.381 40.1711C207.381 40.171 207.381 40.171 207.381 40.171C207.384 39.8239 207.251 39.537 207.045 39.3494C206.837 39.1588 206.569 39.0861 206.338 39.1617C206.225 39.1985 206.112 39.1055 206.084 38.954C206.057 38.8025 206.126 38.6498 206.239 38.613C206.596 38.4966 206.984 38.6103 207.282 38.8826Z" fill="#9A3B82"/>
<path fill-rule="evenodd" clip-rule="evenodd" d="M207.591 44.025C207.707 44.025 207.801 44.1514 207.801 44.3073V45.2106C207.801 46.1597 208.309 46.8817 208.885 46.8817H209.473C209.589 46.8817 209.683 47.0081 209.683 47.164C209.683 47.3199 209.589 47.4463 209.473 47.4463H208.885C208.032 47.4463 207.381 46.4069 207.381 45.2106V44.3073C207.381 44.1514 207.475 44.025 207.591 44.025Z" fill="#9A3B82"/>
<path fill-rule="evenodd" clip-rule="evenodd" d="M272.912 295.852L263.154 186.754L263.655 186.674L273.413 295.771L272.912 295.852Z" fill="#66B0F0"/>
<path fill-rule="evenodd" clip-rule="evenodd" d="M211.105 295.771L220.863 186.674L221.364 186.754L211.606 295.852L211.105 295.771Z" fill="#66B0F0"/>
<path fill-rule="evenodd" clip-rule="evenodd" d="M269.809 258.685H214.701V258.008H269.809V258.685Z" fill="#66B0F0"/>
<path d="M215.491 187.053H268.523C269.229 187.053 269.8 186.285 269.8 185.337V183.011C269.8 182.062 269.229 181.294 268.523 181.294H215.491C214.785 181.294 214.213 182.062 214.213 183.011V185.337C214.213 186.285 214.785 187.053 215.491 187.053Z" fill="white"/>
<path fill-rule="evenodd" clip-rule="evenodd" d="M213.961 183.011C213.961 181.875 214.646 180.956 215.491 180.956H268.523C269.368 180.956 270.053 181.875 270.053 183.011V185.337C270.053 186.472 269.368 187.392 268.523 187.392H215.491C214.646 187.392 213.961 186.472 213.961 185.337V183.011ZM215.491 181.633C214.924 181.633 214.465 182.249 214.465 183.011V185.337C214.465 186.098 214.924 186.714 215.491 186.714H268.523C269.09 186.714 269.548 186.098 269.548 185.337V183.011C269.548 182.249 269.09 181.633 268.523 181.633H215.491Z" fill="#FFCF2D"/>
<path d="M127.244 104.49L119.125 126.937H94.5925L104.451 104.49H127.244Z" fill="white"/>
<path fill-rule="evenodd" clip-rule="evenodd" d="M104.331 104.208H127.58L119.257 127.219H94.2246L104.331 104.208ZM104.571 104.772L94.9605 126.655H118.994L126.908 104.772H104.571Z" fill="#3FB1B5"/>
<path fill-rule="evenodd" clip-rule="evenodd" d="M112.205 108.881C112.392 109.042 112.578 109.201 112.763 109.352C113.063 109.597 113.418 109.675 113.829 109.633C114.241 109.589 114.696 109.425 115.181 109.205C115.484 109.067 115.789 108.912 116.099 108.755C116.29 108.658 116.483 108.56 116.678 108.465C117.185 108.217 117.7 107.991 118.197 107.871C119.538 107.54 120.5 108.015 121.129 108.586C121.441 108.87 121.668 109.175 121.818 109.41C121.893 109.527 121.949 109.628 121.987 109.7C122.005 109.737 122.02 109.766 122.03 109.787C122.035 109.798 122.039 109.806 122.041 109.812C122.043 109.815 122.044 109.818 122.045 109.82L122.046 109.822L122.046 109.823L122.046 109.823C122.046 109.823 122.047 109.824 121.865 109.966C121.684 110.109 121.684 110.109 121.684 110.109L121.683 110.106C121.682 110.105 121.681 110.103 121.68 110.101C121.679 110.099 121.677 110.095 121.675 110.091C121.668 110.076 121.657 110.053 121.642 110.024C121.611 109.965 121.564 109.879 121.499 109.777C121.368 109.572 121.169 109.304 120.893 109.054C120.347 108.558 119.495 108.124 118.272 108.426L118.272 108.426C117.811 108.537 117.324 108.75 116.822 108.995C116.637 109.085 116.449 109.181 116.26 109.277C115.943 109.438 115.624 109.6 115.316 109.74C114.82 109.965 114.326 110.147 113.861 110.195C113.394 110.244 112.943 110.16 112.545 109.835C112.341 109.668 112.144 109.499 111.951 109.333C111.464 108.915 111.001 108.517 110.506 108.228C109.83 107.834 109.12 107.662 108.273 107.98C107.389 108.311 106.618 108.795 106.067 109.198C105.792 109.399 105.573 109.579 105.423 109.708C105.349 109.773 105.291 109.824 105.253 109.86C105.233 109.877 105.219 109.891 105.209 109.9C105.205 109.904 105.201 109.908 105.199 109.91L105.197 109.912L105.196 109.913C105.196 109.913 105.196 109.913 105.073 109.684C104.95 109.455 104.95 109.455 104.95 109.455L104.95 109.455L104.951 109.454L104.955 109.45C104.958 109.448 104.962 109.444 104.967 109.438C104.978 109.428 104.994 109.413 105.015 109.394C105.057 109.356 105.118 109.301 105.197 109.233C105.354 109.097 105.582 108.91 105.867 108.702C106.436 108.286 107.237 107.782 108.16 107.436C109.12 107.076 109.93 107.277 110.673 107.71C111.201 108.018 111.708 108.453 112.205 108.881Z" fill="#3FB1B5"/>
<path fill-rule="evenodd" clip-rule="evenodd" d="M111.365 112.381C111.552 112.542 111.737 112.701 111.923 112.853C112.222 113.098 112.578 113.176 112.988 113.133C113.401 113.09 113.855 112.926 114.341 112.705C114.644 112.567 114.948 112.413 115.259 112.255C115.449 112.158 115.642 112.06 115.838 111.965C116.344 111.717 116.859 111.491 117.356 111.371C118.697 111.04 119.66 111.516 120.288 112.087C120.6 112.37 120.828 112.675 120.977 112.91C121.052 113.028 121.108 113.128 121.146 113.201C121.165 113.237 121.179 113.266 121.189 113.287C121.194 113.298 121.198 113.306 121.201 113.312C121.202 113.315 121.203 113.318 121.204 113.32L121.205 113.322L121.206 113.323L121.206 113.324C121.206 113.324 121.206 113.324 121.025 113.466C120.843 113.609 120.843 113.609 120.843 113.609L120.842 113.607C120.842 113.605 120.841 113.604 120.84 113.602C120.839 113.599 120.837 113.595 120.835 113.591C120.828 113.576 120.817 113.554 120.801 113.524C120.771 113.465 120.723 113.379 120.658 113.277C120.528 113.072 120.328 112.804 120.053 112.554C119.507 112.058 118.654 111.625 117.432 111.926L117.431 111.926C116.97 112.038 116.483 112.25 115.982 112.495C115.797 112.586 115.608 112.681 115.419 112.777C115.103 112.938 114.784 113.1 114.476 113.24C113.98 113.465 113.486 113.647 113.021 113.696C112.553 113.744 112.102 113.66 111.704 113.335C111.5 113.168 111.303 112.999 111.11 112.833C110.623 112.415 110.16 112.017 109.665 111.728C108.99 111.334 108.279 111.163 107.432 111.48C106.548 111.811 105.778 112.296 105.227 112.698C104.952 112.899 104.733 113.079 104.583 113.208C104.508 113.273 104.45 113.325 104.412 113.36C104.393 113.378 104.378 113.391 104.369 113.4C104.364 113.405 104.361 113.408 104.358 113.41L104.356 113.412L104.356 113.413C104.356 113.413 104.356 113.413 104.232 113.184C104.109 112.955 104.109 112.955 104.109 112.955L104.11 112.955L104.111 112.954L104.114 112.951C104.117 112.948 104.121 112.944 104.127 112.939C104.138 112.928 104.154 112.913 104.175 112.894C104.216 112.856 104.277 112.801 104.356 112.733C104.513 112.598 104.741 112.411 105.026 112.202C105.595 111.786 106.396 111.282 107.319 110.936C108.279 110.576 109.09 110.777 109.833 111.21C110.361 111.518 110.867 111.954 111.365 112.381Z" fill="#3FB1B5"/>
<path d="M136.472 205.231C136.472 208.246 130.244 210.685 122.445 210.685C114.645 210.685 108.603 208.246 108.603 205.231C108.603 202.217 114.645 199.778 122.445 199.778C130.244 199.778 136.472 202.228 136.472 205.231Z" fill="#FE5244"/>
<path d="M132.883 201.562V240.517L132.001 234.894C131.051 228.842 127.076 224.517 122.47 224.517C121.083 224.517 119.722 224.912 118.486 225.657C118.444 225.68 118.402 225.714 118.352 225.736L115.116 209.883L113.317 201.065C115.78 200.263 118.965 199.778 122.445 199.778C126.58 199.778 130.303 200.466 132.883 201.562Z" fill="#A0505A"/>
<path d="M132.883 201.561V208.9C130.303 209.996 126.58 210.684 122.445 210.684C119.764 210.684 117.259 210.391 115.116 209.894L113.317 201.075C115.78 200.274 118.965 199.788 122.445 199.788C126.58 199.777 130.303 200.466 132.883 201.561Z" fill="#73325A"/>
<path d="M132.261 239.376C132.488 239.467 134.622 240.268 136.513 240.268C137.539 240.268 138.488 240.031 139.026 239.309C139.489 238.688 139.598 237.784 139.354 236.644C139.136 235.628 138.715 234.995 138.102 234.769C136.976 234.363 135.412 235.492 134.177 236.678C136.102 233.539 138.001 229.553 137.295 226.945C137.043 226.019 136.471 225.398 135.757 225.285C135.16 225.194 134.606 225.477 134.345 226.007C133.135 228.48 132.143 238.631 132.101 239.06L132.261 239.376ZM134.698 226.324C134.849 226.019 135.169 225.838 135.539 225.838C135.597 225.838 135.656 225.838 135.715 225.849C135.984 225.894 136.631 226.098 136.908 227.137C137.093 227.825 137.161 229.09 136.413 231.213C135.707 233.223 134.429 235.582 132.614 238.259C132.883 235.684 133.74 228.277 134.698 226.324ZM138.732 238.913C138.178 239.659 136.917 239.884 135.076 239.568C134.11 239.399 133.21 239.128 132.731 238.959C133.093 238.53 133.765 237.75 134.547 237.028C136.043 235.639 137.236 235.04 138.001 235.323C138.463 235.492 138.774 235.978 138.959 236.802C139.161 237.75 139.085 238.439 138.732 238.913Z" fill="#FFCF2D"/>
<path d="M115.201 228.898L113.259 231.822C111.057 235.142 110.696 239.975 112.368 243.814L120.916 263.506C122.588 267.356 125.656 269.716 128.967 269.716H132.505C135.069 269.716 136.977 266.555 136.447 263.19L131.993 234.905C131.043 228.853 127.068 224.528 122.462 224.528C119.697 224.517 117.05 226.109 115.201 228.898Z" fill="white"/>
<path fill-rule="evenodd" clip-rule="evenodd" d="M115.043 228.71C116.932 225.861 119.636 224.234 122.462 224.246C127.166 224.246 131.228 228.664 132.198 234.847M132.198 234.847L136.652 263.131C137.209 266.672 135.202 269.999 132.505 269.999H128.967C125.581 269.999 122.444 267.585 120.734 263.648L112.186 243.956C110.468 240.012 110.839 235.045 113.102 231.635L115.043 228.71M122.461 224.81C119.756 224.799 117.166 226.357 115.357 229.086L115.357 229.086L113.415 232.01C113.415 232.01 113.415 232.01 113.415 232.01C111.274 235.239 110.923 239.938 112.549 243.671L112.549 243.672L121.097 263.364C121.097 263.364 121.097 263.364 121.097 263.364C122.731 267.127 125.73 269.434 128.967 269.434H132.505C134.935 269.434 136.743 266.437 136.241 263.248L131.787 234.963L131.787 234.963C130.857 229.042 126.968 224.81 122.462 224.81L122.461 224.81Z" fill="#3FB1B5"/>
<path d="M121.815 237.412L132.85 266.137C133.371 267.435 134.018 268.271 134.758 268.802C134.119 269.378 133.346 269.728 132.505 269.728H128.967C125.647 269.728 122.579 267.356 120.915 263.517L112.368 243.814C112.023 243.012 111.763 242.177 111.586 241.307C110.376 235.266 115.494 230.524 119.335 234.069C120.209 234.871 121.067 235.955 121.815 237.412Z" fill="#3FB1B5"/>
<path d="M121.84 237.479H111.653C111.704 237.265 111.763 237.062 111.83 236.87H121.512C121.613 237.05 121.713 237.231 121.814 237.423L121.84 237.479Z" fill="white"/>
<path d="M123.335 241.364H111.603C111.603 241.341 111.594 241.319 111.594 241.307C111.561 241.127 111.527 240.935 111.502 240.754H123.109L123.335 241.364Z" fill="white"/>
<path d="M124.832 245.259H112.998L112.729 244.638H124.596L124.832 245.259Z" fill="white"/>
<path d="M126.328 249.155H114.687L114.418 248.534H126.092L126.328 249.155Z" fill="white"/>
<path d="M127.823 253.039H116.377L116.108 252.429H127.588L127.823 253.039Z" fill="white"/>
<path d="M129.319 256.934H118.066L117.797 256.313H129.076L129.319 256.934Z" fill="white"/>
<path d="M130.816 260.83H119.755L119.486 260.209H130.572L130.816 260.83Z" fill="white"/>
<path d="M132.303 264.714H121.512C121.402 264.511 121.293 264.308 121.192 264.104H132.068L132.303 264.714Z" fill="white"/>
<path d="M134.514 268.61H125.134C124.832 268.429 124.537 268.226 124.252 268H133.908C134.102 268.226 134.303 268.429 134.514 268.61Z" fill="white"/>
<path d="M102.047 204.43C101.971 207.411 95.6763 209.827 87.9274 209.827C80.1785 209.827 73.8835 207.422 73.8079 204.43V180.955H102.047V204.43Z" fill="#73325A"/>
<path d="M100.173 208.325L100.13 211.114L99.7271 238.338V237.548C99.7271 230.558 95.508 224.89 90.3056 224.89H89.7341C87.0783 224.89 84.683 226.279 82.9097 228.514L81.6742 217.291L80.9094 210.347C82.9769 210.81 85.3722 211.069 87.9188 211.069C93.1632 211.058 97.7268 209.951 100.173 208.325Z" fill="#A0505A"/>
<path d="M100.172 208.325L100.13 211.114C97.0034 214.095 87.3467 217.765 81.682 217.279L80.9172 210.335C82.9847 210.787 85.38 211.058 87.9266 211.058C93.1625 211.058 97.7262 209.951 100.172 208.325Z" fill="#73325A"/>
<path d="M90.7353 270.089H92.2985C96.3999 270.089 99.7281 265.618 99.7281 260.107V237.547C99.7281 230.558 95.509 224.89 90.3067 224.89H89.7351C83.6839 224.89 79.0194 232.06 79.8347 240.122L81.8097 259.633C82.4232 265.618 86.2305 270.089 90.7353 270.089Z" fill="white"/>
<path fill-rule="evenodd" clip-rule="evenodd" d="M79.6262 240.16C78.7938 231.928 83.5564 224.607 89.7349 224.607H90.3064C95.6248 224.607 99.9379 230.402 99.9379 237.547V260.108C99.9379 265.774 96.5157 270.371 92.2982 270.371H90.735C86.125 270.371 82.2291 265.796 81.6013 259.672L79.6262 240.16ZM80.0426 240.084L82.0176 259.595C82.6168 265.44 86.3353 269.807 90.735 269.807H92.2982C96.2836 269.807 99.5177 265.462 99.5177 260.108V237.547C99.5177 230.714 95.3927 225.172 90.3064 225.172H89.7349C83.8109 225.172 79.2445 232.191 80.0426 240.084Z" fill="#3FB1B5"/>
<path d="M97.3921 267.368C96.0641 269.05 94.2656 270.089 92.2989 270.089H90.7357C86.2309 270.089 82.4236 265.618 81.8185 259.633L79.8435 240.122C79.8098 239.749 79.7762 239.377 79.7678 239.015C80.2721 234.691 83.054 231.382 86.4158 231.382C88.0715 231.382 89.6011 232.195 90.7861 233.55C91.9711 234.905 92.8032 236.813 93.0637 239.015L95.6607 262.829C95.854 264.602 96.476 266.182 97.3921 267.368Z" fill="#3FB1B5"/>
<path d="M92.2811 236.001H80.54C80.6241 235.786 80.7249 235.583 80.8258 235.391H92.0038C92.1046 235.583 92.1971 235.786 92.2811 236.001Z" fill="white"/>
<path d="M93.1555 239.885H79.8177C79.8008 239.681 79.784 239.478 79.7756 239.275H93.0883L93.1555 239.885Z" fill="white"/>
<path d="M93.584 243.78H80.2125L80.1453 243.171H93.5168L93.584 243.78Z" fill="white"/>
<path d="M94.004 247.676H80.6073L80.54 247.055H93.9368L94.004 247.676Z" fill="white"/>
<path d="M94.4326 251.56H81.0023L80.9351 250.95H94.3654L94.4326 251.56Z" fill="white"/>
<path d="M94.8531 255.456H81.3892L81.3303 254.846H94.7859L94.8531 255.456Z" fill="white"/>
<path d="M95.2813 259.351H81.7837L81.7249 258.73H95.214L95.2813 259.351Z" fill="white"/>
<path d="M95.71 263.235H82.6158C82.5401 263.032 82.4729 262.829 82.4141 262.625H95.6343L95.6595 262.829C95.6763 262.964 95.6931 263.1 95.71 263.235Z" fill="white"/>
<path d="M97.2144 267.131H84.8346C84.6665 266.939 84.4984 266.724 84.3472 266.521H96.8278C96.9455 266.736 97.0799 266.939 97.2144 267.131Z" fill="white"/>
<path d="M108.157 82.4152V101.43C107.544 99.2732 102.686 99.5781 97.3407 102.299C92.7603 104.637 89.3229 107.843 88.8186 110.068V83.3072C88.8186 75.3468 91.9871 68.2332 96.8533 64.349C103.173 65.8282 108.157 73.224 108.157 82.4152Z" fill="#FFCF2D"/>
<path d="M88.4485 65.2072C84.1454 69.2269 81.4056 75.9001 81.4056 83.3072V105.382H57.478L60.781 86.2769C62.1845 78.1358 66.5717 71.6432 72.2867 68.8769L88.4485 65.2072Z" fill="#FFCF2D"/>
<path d="M136.841 159.693V204.012C136.841 200.997 130.244 198.558 122.445 198.558C114.645 198.558 108.325 200.997 108.325 204.012V182.773C108.325 181.779 107.72 180.966 106.98 180.966H64.0838C51.183 180.966 41.6439 164.831 44.5602 147.95L54.9145 88.0156C56.5618 78.4517 62.3273 71.1688 69.5299 69.5203L72.2866 68.8879C66.5716 71.6543 62.1844 78.1469 60.7809 86.288L57.4779 105.393H81.4055V83.307C81.4055 75.8999 84.1537 69.2154 88.4484 65.207L92.2304 64.3488C93.0121 64.1681 93.7769 64.0891 94.5417 64.0891C94.6425 64.0891 94.735 64.0891 94.8358 64.0891C94.9283 64.0891 95.0207 64.1004 95.1048 64.1004C95.1216 64.1004 95.1384 64.1004 95.1552 64.1004C95.2224 64.1004 95.2981 64.1117 95.3653 64.1117C95.3737 64.1117 95.3905 64.1117 95.3989 64.1117C95.4409 64.1117 95.483 64.123 95.5166 64.123C95.5922 64.1343 95.6595 64.1343 95.7351 64.1456C95.8191 64.1569 95.9116 64.1681 95.9956 64.1794C96.0797 64.1907 96.1553 64.202 96.2394 64.2133C96.2562 64.2133 96.273 64.2246 96.2982 64.2246C96.3823 64.2359 96.4747 64.2585 96.5587 64.2698C96.5672 64.2698 96.5756 64.2698 96.5756 64.2698C96.668 64.2924 96.7605 64.3037 96.8529 64.3262C91.9867 68.2105 88.8182 75.324 88.8182 83.2845V137.54H120.369C129.462 137.562 136.841 147.465 136.841 159.693Z" fill="#FE5244"/>
<path fill-rule="evenodd" clip-rule="evenodd" d="M89.2017 64.5167C89.2812 64.6703 89.253 64.8814 89.1387 64.9882C84.8921 68.9551 81.6492 76.028 81.6492 83.307V105.72H57.1521L60.5268 86.2002M89.2017 64.5167C89.1222 64.3631 88.9651 64.3252 88.8508 64.432L89.2017 64.5167ZM88.8508 64.432C84.4911 68.5046 81.1449 75.7718 81.1449 83.307L88.8508 64.432ZM81.1449 83.307V105.043V83.307ZM81.1449 105.043H57.7869H81.1449Z" fill="white"/>
<path fill-rule="evenodd" clip-rule="evenodd" d="M113.161 158.531C113.267 158.652 113.281 158.865 113.191 159.008C110.212 163.746 108.577 169.754 108.577 175.964C108.577 176.151 108.464 176.303 108.325 176.303C108.186 176.303 108.073 176.151 108.073 175.964C108.073 169.595 109.75 163.431 112.805 158.571C112.895 158.428 113.054 158.41 113.161 158.531Z" fill="white"/>
<path d="M73.3708 173.717C73.3288 173.717 73.2868 173.706 73.2532 173.672L72.1438 172.859C72.0177 172.769 71.9757 172.565 72.0429 172.396C72.1102 172.227 72.2615 172.17 72.3875 172.26L73.4969 173.073C73.623 173.164 73.665 173.367 73.5978 173.536C73.5473 173.649 73.4633 173.717 73.3708 173.717ZM74.4802 173.333C74.3878 173.333 74.3037 173.265 74.2617 173.152C74.1945 172.983 74.2365 172.78 74.3626 172.69L75.472 171.877C75.598 171.786 75.7493 171.854 75.8165 172.012C75.8838 172.181 75.8418 172.385 75.7157 172.475L74.6063 173.288C74.5643 173.311 74.5223 173.333 74.4802 173.333ZM71.1521 172.102C71.11 172.102 71.068 172.091 71.0344 172.057L69.925 171.244C69.7989 171.154 69.7569 170.951 69.8242 170.781C69.8914 170.612 70.0427 170.555 70.1687 170.646L71.2781 171.459C71.4042 171.549 71.4462 171.752 71.379 171.922C71.3286 172.035 71.2445 172.102 71.1521 172.102ZM76.6906 171.707C76.5982 171.707 76.5141 171.639 76.4721 171.527C76.4049 171.357 76.4469 171.154 76.573 171.064L77.6824 170.251C77.8757 170.115 78.0521 169.957 78.2286 169.788C78.3379 169.675 78.4976 169.709 78.5816 169.855C78.6657 170.002 78.6405 170.217 78.5312 170.33C78.3379 170.522 78.1362 170.691 77.9261 170.849L76.8167 171.662C76.7747 171.696 76.7326 171.707 76.6906 171.707ZM68.9585 170.431C68.9081 170.431 68.8576 170.409 68.8072 170.363C68.4542 170.013 68.1265 169.607 67.8491 169.144C67.7567 168.997 67.7735 168.783 67.8827 168.67C67.992 168.546 68.1517 168.568 68.2357 168.715C68.4878 169.133 68.782 169.494 69.1014 169.81C69.2106 169.923 69.2358 170.138 69.1602 170.284C69.1182 170.386 69.0425 170.431 68.9585 170.431ZM79.2876 169.246C79.2288 169.246 79.1783 169.223 79.1279 169.167C79.0187 169.054 79.0019 168.839 79.0943 168.692C79.3464 168.275 79.5565 167.823 79.7246 167.326C79.7835 167.157 79.9347 167.078 80.0608 167.157C80.1869 167.236 80.2457 167.439 80.1869 167.608C80.002 168.15 79.7667 168.658 79.4893 169.11C79.4305 169.2 79.3632 169.246 79.2876 169.246ZM67.3784 167.845C67.286 167.845 67.1935 167.778 67.1515 167.654C66.9666 167.112 66.8322 166.547 66.7481 165.96C66.7229 165.779 66.8153 165.599 66.9498 165.565C67.0843 165.531 67.2188 165.655 67.244 165.836C67.3196 166.366 67.4373 166.874 67.6054 167.36C67.6642 167.529 67.6054 167.733 67.4793 167.812C67.4457 167.834 67.4121 167.845 67.3784 167.845ZM80.3298 166.197C80.313 166.197 80.2961 166.197 80.2877 166.197C80.1533 166.163 80.0608 165.982 80.086 165.802C80.1365 165.429 80.1617 165.057 80.1617 164.684V164.176C80.1617 163.984 80.2709 163.837 80.4138 163.837C80.5567 163.837 80.6659 163.984 80.6659 164.176V164.684C80.6659 165.102 80.6407 165.519 80.5819 165.926C80.5567 166.084 80.4474 166.197 80.3298 166.197ZM66.9162 164.548C66.7733 164.548 66.6641 164.402 66.6641 164.21V162.516C66.6641 162.324 66.7733 162.177 66.9162 162.177C67.0591 162.177 67.1683 162.324 67.1683 162.516V164.21C67.1683 164.39 67.0507 164.548 66.9162 164.548ZM80.4054 162.821C80.2625 162.821 80.1533 162.674 80.1533 162.482V160.788C80.1533 160.596 80.2625 160.45 80.4054 160.45C80.5483 160.45 80.6575 160.596 80.6575 160.788V162.482C80.6575 162.674 80.5483 162.821 80.4054 162.821ZM66.9162 161.161C66.7733 161.161 66.6641 161.014 66.6641 160.822V159.129C66.6641 158.937 66.7733 158.79 66.9162 158.79C67.0591 158.79 67.1683 158.937 67.1683 159.129V160.822C67.1683 161.003 67.0507 161.161 66.9162 161.161ZM80.4054 159.433C80.2625 159.433 80.1533 159.287 80.1533 159.095V157.401C80.1533 157.209 80.2625 157.062 80.4054 157.062C80.5483 157.062 80.6575 157.209 80.6575 157.401V159.095C80.6575 159.287 80.5483 159.433 80.4054 159.433ZM66.9162 157.774C66.7733 157.774 66.6641 157.627 66.6641 157.435V155.741C66.6641 155.549 66.7733 155.402 66.9162 155.402C67.0591 155.402 67.1683 155.549 67.1683 155.741V157.435C67.1683 157.615 67.0507 157.774 66.9162 157.774ZM80.4054 156.046C80.2625 156.046 80.1533 155.899 80.1533 155.707V154.014C80.1533 153.822 80.2625 153.675 80.4054 153.675C80.5483 153.675 80.6575 153.822 80.6575 154.014V155.707C80.6575 155.899 80.5483 156.046 80.4054 156.046ZM66.9162 154.386C66.7733 154.386 66.6641 154.239 66.6641 154.047V152.591H67.3448C67.4877 152.591 67.597 152.738 67.597 152.93C67.597 153.122 67.4877 153.268 67.3448 153.268H67.1683V154.047C67.1683 154.228 67.0507 154.386 66.9162 154.386ZM79.9516 153.268H78.6909C78.548 153.268 78.4388 153.122 78.4388 152.93C78.4388 152.738 78.548 152.591 78.6909 152.591H79.9516C80.0944 152.591 80.2037 152.738 80.2037 152.93C80.2037 153.122 80.0944 153.268 79.9516 153.268ZM77.4302 153.268H76.1695C76.0267 153.268 75.9174 153.122 75.9174 152.93C75.9174 152.738 76.0267 152.591 76.1695 152.591H77.4302C77.5731 152.591 77.6824 152.738 77.6824 152.93C77.6824 153.122 77.5731 153.268 77.4302 153.268ZM74.9089 153.268H73.6482C73.5053 153.268 73.3961 153.122 73.3961 152.93C73.3961 152.738 73.5053 152.591 73.6482 152.591H74.9089C75.0517 152.591 75.161 152.738 75.161 152.93C75.161 153.122 75.0517 153.268 74.9089 153.268ZM72.3875 153.268H71.1269C70.984 153.268 70.8747 153.122 70.8747 152.93C70.8747 152.738 70.984 152.591 71.1269 152.591H72.3875C72.5304 152.591 72.6397 152.738 72.6397 152.93C72.6397 153.122 72.5304 153.268 72.3875 153.268ZM69.8662 153.268H68.6055C68.4626 153.268 68.3534 153.122 68.3534 152.93C68.3534 152.738 68.4626 152.591 68.6055 152.591H69.8662C70.0091 152.591 70.1183 152.738 70.1183 152.93C70.1183 153.122 70.0091 153.268 69.8662 153.268Z" fill="white"/>
<path d="M49.5862 171.843C49.4937 171.843 49.4097 171.775 49.3677 171.662C49.3004 171.493 49.3424 171.289 49.4685 171.199L50.4939 170.442C50.5191 170.42 50.5443 170.409 50.5695 170.386C50.6872 170.296 50.8469 170.352 50.9141 170.51C50.9813 170.668 50.9393 170.883 50.8216 170.973C50.7964 170.996 50.7712 171.018 50.7376 171.03L49.7122 171.786C49.6702 171.831 49.6282 171.843 49.5862 171.843ZM51.7125 170.036C51.6453 170.036 51.578 170.002 51.5276 169.923C51.4352 169.788 51.4436 169.573 51.5444 169.449C51.8386 169.088 52.0991 168.67 52.326 168.229C52.4017 168.071 52.5614 168.037 52.679 168.139C52.7967 168.241 52.8219 168.455 52.7463 168.613C52.5025 169.099 52.2084 169.55 51.889 169.957C51.8302 170.013 51.7713 170.036 51.7125 170.036ZM53.1161 167.258C53.0824 167.258 53.0572 167.247 53.0236 167.236C52.8975 167.168 52.8303 166.976 52.8807 166.795C53.0236 166.287 53.1245 165.768 53.1833 165.237C53.2001 165.057 53.3262 164.921 53.469 164.944C53.6035 164.966 53.7044 165.136 53.6876 165.328C53.6287 165.915 53.5195 166.491 53.3598 167.044C53.3094 167.179 53.2169 167.258 53.1161 167.258ZM53.4775 163.939C53.3346 163.939 53.2253 163.792 53.2253 163.6V161.906C53.2253 161.714 53.3346 161.567 53.4775 161.567C53.6203 161.567 53.7296 161.714 53.7296 161.906V163.6C53.7296 163.781 53.6203 163.939 53.4775 163.939ZM53.4775 160.551C53.3346 160.551 53.2253 160.404 53.2253 160.213V158.519C53.2253 158.327 53.3346 158.18 53.4775 158.18C53.6203 158.18 53.7296 158.327 53.7296 158.519V160.213C53.7296 160.393 53.6203 160.551 53.4775 160.551ZM53.4775 157.164C53.3346 157.164 53.2253 157.017 53.2253 156.825V155.131C53.2253 154.939 53.3346 154.793 53.4775 154.793C53.6203 154.793 53.7296 154.939 53.7296 155.131V156.825C53.7296 157.006 53.6203 157.164 53.4775 157.164ZM53.4775 153.776C53.3346 153.776 53.2253 153.63 53.2253 153.438V153.268H52.595C52.4521 153.268 52.3429 153.122 52.3429 152.93C52.3429 152.738 52.4521 152.591 52.595 152.591H53.7296V153.438C53.7296 153.618 53.6203 153.776 53.4775 153.776ZM51.3343 153.268H50.0736C49.9308 153.268 49.8215 153.122 49.8215 152.93C49.8215 152.738 49.9308 152.591 50.0736 152.591H51.3343C51.4772 152.591 51.5864 152.738 51.5864 152.93C51.5864 153.122 51.4688 153.268 51.3343 153.268ZM48.813 153.268H47.5523C47.4094 153.268 47.3002 153.122 47.3002 152.93C47.3002 152.738 47.4094 152.591 47.5523 152.591H48.813C48.9558 152.591 49.0651 152.738 49.0651 152.93C49.0651 153.122 48.9474 153.268 48.813 153.268ZM46.2916 153.268H45.0309C44.8881 153.268 44.7788 153.122 44.7788 152.93C44.7788 152.738 44.8881 152.591 45.0309 152.591H46.2916C46.4345 152.591 46.5438 152.738 46.5438 152.93C46.5438 153.122 46.4261 153.268 46.2916 153.268Z" fill="white"/>
<path d="M108.157 101.431C108.77 103.588 104.887 107.415 99.5506 110.137C94.2137 112.858 89.4316 113.276 88.818 111.108C88.2045 108.94 91.9949 105.033 97.3402 102.312C102.685 99.5906 107.543 99.2631 108.157 101.431Z" fill="#FE5244"/>
<path d="M111.14 171.482V172.678C110.863 172.588 110.569 172.543 110.275 172.543H109.19C107.585 172.543 106.215 171.165 105.694 169.246L108.77 168.693C110.022 168.467 111.14 169.777 111.14 171.482Z" fill="#73325A"/>
<path d="M113.981 177.523V186.714C113.981 188.859 112.687 190.598 111.09 190.598H107.871C107.073 190.598 106.35 190.169 105.829 189.458C105.308 188.757 104.98 187.786 104.98 186.714H107.073C107.762 186.714 108.317 185.969 108.317 185.043V182.638C108.317 181.712 107.762 180.966 107.073 180.966H96.3738C92.1968 180.966 88.8098 176.416 88.8098 170.804V110.079C89.3141 107.855 92.7515 104.637 97.332 102.311C100.458 100.719 103.425 99.9508 105.468 100.019V167.564C105.468 170.319 107.132 172.554 109.182 172.554H110.266C112.317 172.543 113.981 174.767 113.981 177.523Z" fill="#A0505A"/>
<path d="M105.468 100.007V106.15C103.946 107.527 101.887 108.939 99.5424 110.124C94.1971 112.846 89.4233 113.263 88.8098 111.095V110.068C89.3141 107.844 92.7515 104.625 97.332 102.299C100.467 100.707 103.425 99.9395 105.468 100.007Z" fill="#73325A"/>
<path d="M91.4907 54.2656L88.3306 65.207L72.0427 69.1251L76.2954 54.2656H91.4907Z" fill="#A0505A"/>
<path d="M91.4908 54.2656L89.7847 60.1823L73.6313 63.5697L76.2956 54.2656H91.4908Z" fill="#73325A"/>
<path d="M101.039 31.9991C101.039 33.4783 99.1308 35.1155 96.9289 36.4931C93.9285 38.3787 90.3902 39.8127 90.3902 39.8127L88.0033 45.8536C91.2474 48.1684 92.5165 52.3236 93.0208 55.2255C93.3401 57.0773 93.3401 58.3984 93.3401 58.3984H70.4631C70.4631 58.3984 64.4539 32.2475 78.9348 25.9921C87.7932 22.1643 101.039 28.4875 101.039 31.9991Z" fill="white"/>
<path fill-rule="evenodd" clip-rule="evenodd" d="M93.2449 26.5712C88.8496 25.0381 83.3771 24.4282 79.0117 26.3146C75.4507 27.8528 73.1604 30.6064 71.7184 33.8676C70.2729 37.1367 69.6726 40.9333 69.5201 44.5601C69.3676 48.1854 69.6634 51.6221 69.9984 54.1553C70.1658 55.4211 70.3426 56.4592 70.4774 57.1799C70.5448 57.5402 70.6017 57.8211 70.6415 58.0113C70.6451 58.0281 70.6485 58.0442 70.6517 58.0596H93.0785C93.0729 57.9227 93.0637 57.7472 93.0489 57.5385C93.0098 56.9891 92.9316 56.211 92.7748 55.3022C92.278 52.4433 91.036 48.4013 87.8847 46.1528L87.6621 45.9939L90.2164 39.5292L90.317 39.4884L90.3416 39.5981C90.317 39.4884 90.317 39.4884 90.317 39.4884L90.3171 39.4884L90.3175 39.4882L90.3267 39.4845C90.3334 39.4818 90.3433 39.4777 90.3565 39.4723C90.3828 39.4615 90.4219 39.4453 90.4728 39.424C90.5747 39.3814 90.7238 39.3184 90.9122 39.2368C91.2891 39.0736 91.8231 38.8364 92.4505 38.5404C93.7063 37.948 95.3322 37.1223 96.8217 36.1862L96.8221 36.186C97.9167 35.5012 98.9255 34.7593 99.6568 34.0143C100.023 33.6417 100.31 33.2771 100.504 32.9287C100.699 32.5791 100.786 32.2696 100.786 31.9991C100.786 31.6987 100.64 31.299 100.275 30.8173C99.918 30.3454 99.3875 29.8425 98.7081 29.3371C97.3513 28.3277 95.4399 27.3368 93.2449 26.5712ZM93.3398 58.3984L93.5919 58.3984L93.5919 58.7371H70.2768L70.2219 58.4983L70.4628 58.3984C70.2219 58.4983 70.2218 58.4981 70.2218 58.4977L70.2206 58.4926L70.2172 58.4774C70.2142 58.4641 70.2098 58.4447 70.2042 58.4192C70.193 58.3682 70.1767 58.293 70.1562 58.195C70.1151 57.9991 70.057 57.712 69.9884 57.345C69.8511 56.6112 69.6716 55.5574 69.5019 54.2738C69.1627 51.7083 68.8612 48.2162 69.0166 44.5219C69.1719 40.8291 69.7844 36.9151 71.2849 33.5216C72.7889 30.1201 75.1778 27.2591 78.8573 25.6696C83.3503 23.7282 88.9296 24.366 93.3716 25.9154C95.5953 26.6911 97.5489 27.7002 98.9524 28.7444C99.6533 29.2658 100.227 29.8032 100.629 30.3343C101.023 30.8555 101.29 31.4216 101.29 31.9991C101.29 32.4682 101.14 32.9181 100.908 33.3345C100.675 33.7521 100.348 34.1603 99.9615 34.5541C99.1883 35.3419 98.1422 36.1074 97.0349 36.8002C95.5241 37.7496 93.8808 38.5837 92.6175 39.1796C91.9853 39.4779 91.4472 39.717 91.0669 39.8816C90.8767 39.964 90.726 40.0277 90.6226 40.0709C90.6008 40.08 90.5811 40.0882 90.5636 40.0955L88.3423 45.7172C91.5157 48.1258 92.7657 52.2695 93.266 55.1485L93.2661 55.149C93.4287 56.0919 93.5101 56.9002 93.5509 57.4741C93.5713 57.7612 93.5815 57.9901 93.5867 58.1482C93.5893 58.2272 93.5906 58.2886 93.5912 58.3308C93.5916 58.3519 93.5917 58.3683 93.5918 58.3796C93.5919 58.3852 93.5919 58.3896 93.5919 58.3928L93.5919 58.3977V58.3982C93.5919 58.3983 93.5919 58.3984 93.3398 58.3984Z" fill="#FFCF2D"/>
<path d="M76.8165 29.7182C79.9589 29.7182 82.5063 26.2958 82.5063 22.074C82.5063 17.8521 79.9589 14.4297 76.8165 14.4297C73.6741 14.4297 71.1267 17.8521 71.1267 22.074C71.1267 26.2958 73.6741 29.7182 76.8165 29.7182Z" fill="white"/>
<path fill-rule="evenodd" clip-rule="evenodd" d="M76.8167 14.7684C73.8136 14.7684 71.379 18.0392 71.379 22.074C71.379 26.1087 73.8136 29.3795 76.8167 29.3795C79.8199 29.3795 82.2544 26.1087 82.2544 22.074C82.2544 18.0392 79.8199 14.7684 76.8167 14.7684ZM70.8748 22.074C70.8748 17.6651 73.5351 14.0909 76.8167 14.0909C80.0984 14.0909 82.7587 17.6651 82.7587 22.074C82.7587 26.4829 80.0984 30.057 76.8167 30.057C73.5351 30.057 70.8748 26.4829 70.8748 22.074Z" fill="#FFCF2D"/>
<path d="M93.012 55.2246C92.5413 52.4808 91.3647 48.574 88.4652 46.2141H87.7172C87.028 46.2141 86.3977 45.8415 85.9438 45.2317C85.49 44.622 85.2126 43.7751 85.2126 42.8492C85.2126 40.9862 86.3304 39.4844 87.7172 39.4844L90.8857 39.5747H90.9697C91.0285 39.5522 91.0874 39.5183 91.1546 39.4957C92.0119 39.2473 94.7265 38.3666 96.9789 36.8535L97.2394 38.9424L98.0799 45.6382C98.6514 50.2338 96.3065 54.4681 93.012 55.2246Z" fill="#A0505A"/>
<path d="M97.2312 38.932C94.4746 40.4338 90.8774 39.5644 90.8774 39.5644C90.8774 39.5644 94.2644 38.6611 96.9707 36.8431L97.2312 38.932Z" fill="#73325A"/>
<path fill-rule="evenodd" clip-rule="evenodd" d="M87.7256 41.1678C87.7256 41.0119 87.8197 40.8855 87.9357 40.8855C89.0099 40.8855 89.8771 42.0507 89.8771 43.4938C89.8771 43.6497 89.7831 43.7761 89.667 43.7761C89.551 43.7761 89.4569 43.6497 89.4569 43.4938C89.4569 42.3625 88.7778 41.4501 87.9357 41.4501C87.8197 41.4501 87.7256 41.3237 87.7256 41.1678Z" fill="#73325A"/>
<path fill-rule="evenodd" clip-rule="evenodd" d="M108.075 295.852L98.3176 186.754L98.8183 186.673L108.576 295.771L108.075 295.852Z" fill="#66B0F0"/>
<path fill-rule="evenodd" clip-rule="evenodd" d="M46.2686 295.771L56.0177 186.673L56.5184 186.754L46.7692 295.851L46.2686 295.771Z" fill="#66B0F0"/>
<path fill-rule="evenodd" clip-rule="evenodd" d="M104.972 258.685H49.8638V258.008H104.972V258.685Z" fill="#66B0F0"/>
<path d="M47.788 186.714H107.048C107.754 186.714 108.325 185.946 108.325 184.998V182.672C108.325 181.723 107.754 180.955 107.048 180.955H47.788C47.082 180.955 46.5105 181.723 46.5105 182.672V184.998C46.5189 185.946 47.0904 186.714 47.788 186.714Z" fill="white"/>
<path fill-rule="evenodd" clip-rule="evenodd" d="M46.2581 182.671C46.2581 181.536 46.9424 180.616 47.7877 180.616H107.048C107.893 180.616 108.577 181.536 108.577 182.671V184.997C108.577 186.133 107.893 187.053 107.048 187.053H47.7877C46.9492 187.053 46.2681 186.132 46.2581 185.002L46.2581 185V182.671ZM47.7877 181.294C47.2209 181.294 46.7623 181.91 46.7623 182.671V184.995C46.7699 185.761 47.2314 186.375 47.7877 186.375H107.048C107.614 186.375 108.073 185.759 108.073 184.997V182.671C108.073 181.91 107.614 181.294 107.048 181.294H47.7877Z" fill="#FFCF2D"/>
</svg>
