<?xml version="1.0" encoding="iso-8859-1"?>
<!-- Generator: Adobe Illustrator 19.0.0, SVG Export Plug-In . SVG Version: 6.00 Build 0)  -->
<svg version="1.1" id="Layer_1" xmlns="http://www.w3.org/2000/svg" xmlns:xlink="http://www.w3.org/1999/xlink" x="0px" y="0px"
	 viewBox="0 0 502.4 502.4" style="enable-background:new 0 0 502.4 502.4;" xml:space="preserve">
<g>
	<g>
		<path d="M290.667,345.6l-73.6-59.733v-62.933c0-11.733-9.6-21.333-21.333-21.333c-11.734,0-21.334,9.6-21.334,21.333v73.6
			c0,6.4,2.133,11.733,7.467,16l81.067,66.133c3.2,3.2,8.533,4.267,12.8,4.267c6.4,0,12.8-2.133,18.133-7.467
			C301.334,365.867,299.2,353.066,290.667,345.6z"/>
	</g>
</g>
<g>
	<g>
		<path d="M480.533,0H21.867C10.133,0,0.533,9.6,0.533,21.333s9.6,21.333,21.333,21.333h151.467v57.6
			C76.267,110.933,0.533,195.2,0.533,296.533c0,108.8,86.4,197.333,194.133,197.333s195.2-88.533,195.2-197.333
			c0-101.333-76.8-185.6-173.867-196.267v-57.6h243.2v438.4c0,11.733,9.6,21.333,21.333,21.333s21.333-9.6,21.333-21.333V21.333
			C501.867,9.6,492.267,0,480.533,0z M347.2,296.534c0,86.4-68.267,155.733-152.533,155.733s-152.533-70.4-152.533-155.733
			c0-86.4,68.267-155.733,152.533-155.733S348.267,211.2,347.2,296.534z"/>
	</g>
</g>
<g>
</g>
<g>
</g>
<g>
</g>
<g>
</g>
<g>
</g>
<g>
</g>
<g>
</g>
<g>
</g>
<g>
</g>
<g>
</g>
<g>
</g>
<g>
</g>
<g>
</g>
<g>
</g>
<g>
</g>
</svg>
