<svg width="132" height="37" viewBox="0 0 132 37" fill="none" xmlns="http://www.w3.org/2000/svg">
<path d="M119.525 19.7L113.325 11.6C112.925 11.2 112.425 11 111.925 11C111.425 11 110.925 11.2 110.525 11.6C109.825 12.4 109.825 13.6 110.525 14.4L115.425 21L110.525 27.6C109.825 28.4 109.825 29.6 110.525 30.4C110.925 30.8 111.425 31 111.925 31C112.425 31 112.925 30.8 113.325 30.4L119.525 22.3C120.225 21.7 120.225 20.5 119.525 19.7Z" fill="#FF3F3A"/>
<path d="M122.168 19.7L128.368 11.6C128.768 11.2 129.268 11 129.768 11C130.268 11 130.768 11.2 131.168 11.6C131.868 12.4 131.868 13.6 131.168 14.4L126.268 21L131.168 27.6C131.868 28.4 131.868 29.6 131.168 30.4C130.768 30.8 130.268 31 129.768 31C129.268 31 128.768 30.8 128.368 30.4L122.168 22.3C121.468 21.7 121.468 20.5 122.168 19.7Z" fill="#FF3F3A"/>
<g clip-path="url(#clip0_235_150)">
<path d="M5.86306 -0.943468C5.90732 -0.971734 5.92945 -1 5.97371 -1C6.0401 -1 6.10649 -0.971734 6.19501 -0.886937C6.28352 -0.802139 6.34991 -0.773873 6.39417 -0.773873C6.26139 0.243697 6.10649 1.26127 5.97371 2.27884C5.8188 3.49427 5.75241 4.54011 5.75241 5.35982C5.75241 6.20779 5.8188 6.9427 5.97371 7.59282C6.21714 7.62108 6.48269 7.62108 6.74825 7.62108C7.81048 7.62108 9.18252 7.42322 10.8644 7.05577C10.4882 7.62108 9.80216 8.04507 8.76206 8.32773C8.4965 8.32773 8.07603 8.38426 7.47853 8.49733C6.88103 8.61039 6.43843 8.66692 6.17288 8.66692C5.70815 8.66692 5.30982 8.55386 5 8.29946C5.02213 8.15814 5.06639 6.60351 5.19917 3.69213C5.26556 1.79832 5.48685 0.243697 5.86306 -0.943468Z" fill="white"/>
<path d="M15.2682 0.38504C15.3567 0.52637 15.401 0.695965 15.401 0.922092C15.401 1.17648 15.3567 1.34608 15.2682 1.45914C15.1797 2.30712 14.8034 3.09856 14.1396 3.80521C13.5642 4.34226 12.9667 4.90758 12.3913 5.44463C11.7938 6.09474 11.484 6.74486 11.484 7.4515C11.484 8.04509 11.6832 8.72347 12.0594 9.48664C12.6126 9.28878 13.2101 8.80827 13.8519 8.04509C14.4051 7.39497 14.9584 6.74486 15.5116 6.12301C15.0247 7.02752 14.5379 7.90376 14.051 8.80827C13.4093 9.82584 12.7454 10.3346 12.0151 10.3346C11.8602 10.3346 11.7053 10.3064 11.5282 10.2781C11.0857 9.88237 10.8644 9.28878 10.8644 8.49734C10.8644 8.24295 10.8865 7.81896 10.9529 7.28191C11.0193 6.71659 11.0414 6.2926 11.0414 6.00995C10.975 5.95341 10.8422 5.92515 10.5988 5.95341C10.3332 6.00995 10.1562 6.00995 10.0677 5.95341C9.91277 5.86862 9.82425 5.67076 9.84638 5.35983C10.5545 5.35983 11.152 4.93584 11.6389 4.0596C12.0372 3.23989 12.4356 2.42018 12.8339 1.62874C13.3429 0.752497 13.9183 0.300243 14.6043 0.300243C14.8034 0.271977 15.0247 0.328509 15.2682 0.38504ZM13.4757 3.35296C13.9404 2.87244 14.3166 2.25059 14.56 1.48741C14.2059 1.48741 13.874 1.68527 13.6084 2.05273C13.365 2.42018 13.1216 2.78764 12.8782 3.15509C12.7011 3.38122 12.6347 3.55082 12.6347 3.69215C12.6347 3.91827 12.7454 3.9748 12.9888 3.91827C13.2322 3.83347 13.4093 3.63561 13.4757 3.35296Z" fill="white"/>
<path d="M16.4853 4.14438C16.9058 3.09855 17.5254 2.22231 18.3442 1.57219C19.163 0.922076 19.9818 0.582886 20.8228 0.582886C21.4203 0.582886 21.9514 0.752481 22.4161 1.09167C22.4825 1.26127 22.5046 1.4026 22.5046 1.54392C22.5046 1.77005 22.3719 2.02444 22.1063 2.27884C21.8407 2.53323 21.6858 2.81589 21.6858 3.07028C21.4867 3.77693 21.2875 4.48357 21.0883 5.19022C20.8892 6.00993 20.7785 6.74484 20.7785 7.42322C20.7785 7.76241 20.8006 8.1016 20.8449 8.44079C21.0441 8.49732 21.2654 8.356 21.5309 8.1016C21.7965 7.81895 22.0399 7.67761 22.2612 7.67761C22.2833 7.76241 22.3055 7.84721 22.3055 7.96027C22.3055 8.2712 22.1506 8.61039 21.8407 8.94958C21.5973 9.20397 21.3539 9.4301 21.0883 9.68449C21.0219 9.71276 20.9555 9.71276 20.8892 9.71276C20.5793 9.71276 20.2695 9.5149 20.0261 9.09091C20.0261 8.29946 20.0925 7.33843 20.2474 6.20779C20.358 5.30328 20.4908 4.42704 20.6236 3.5508C20.2695 3.86172 19.5171 4.73797 18.3442 6.12299C17.4148 7.25363 16.6181 7.98854 15.9321 8.356C15.8436 8.1016 15.7993 7.84721 15.7993 7.50802C15.7993 7.1123 15.91 6.54698 16.1091 5.84033C16.3083 4.8793 16.4411 4.34224 16.4853 4.14438ZM20.8228 1.99618C20.8006 1.68525 20.6679 1.54392 20.4466 1.54392C20.2695 1.54392 20.004 1.65699 19.672 1.85485C19.4065 1.99618 19.163 2.16577 18.8975 2.3071C18.3221 2.81589 17.8353 3.43774 17.4369 4.22918C17.0386 4.99236 16.773 5.7838 16.6402 6.60351C17.2599 6.09473 17.9902 5.35982 18.809 4.37051C20.1146 2.78762 20.7785 2.02444 20.8228 1.99618Z" fill="white"/>
<path d="M24.2086 0.469814C24.6955 0.385017 24.961 0.724207 24.961 1.51565C24.961 1.60045 24.961 1.71351 24.961 1.85484C24.961 1.99617 24.961 2.10923 24.961 2.19403C24.961 2.56149 25.0053 2.81588 25.0717 2.98548C25.2487 2.92894 25.6249 2.70282 26.1782 2.25056C26.665 1.88311 27.0855 1.68525 27.4174 1.68525C27.6387 1.68525 27.86 1.74178 28.0813 1.88311C28.3026 2.2223 28.4133 2.67455 28.4133 3.18334C28.4133 3.2964 28.4133 3.43773 28.3911 3.57906C28.3469 3.60732 28.3026 3.60732 28.2583 3.60732C28.0592 3.60732 27.8821 3.40946 27.7051 3.01374C27.5502 2.61802 27.3953 2.42016 27.2625 2.42016C27.1297 2.42016 26.9527 2.56149 26.7535 2.81588C26.0675 3.1268 25.5585 3.69212 25.2044 4.48357C25.0274 4.87929 24.8061 5.67073 24.5627 6.80137C24.3414 7.79067 24.1201 8.49732 23.8545 8.94957C23.8103 8.86477 23.7439 8.80824 23.6332 8.80824C23.4562 8.83651 23.3677 8.83651 23.3455 8.83651C23.257 8.46905 23.2128 8.07333 23.2128 7.67761C23.2128 7.02749 23.4341 6.12298 23.8545 4.93582C24.275 3.74865 24.4963 2.84415 24.4963 2.16577C24.4963 1.54392 24.4078 1.00687 24.2086 0.469814Z" fill="white"/>
<path d="M30.3385 1.03514C30.2057 1.79832 30.1172 2.33537 30.073 2.67456C30.0951 2.50497 30.1836 1.96792 30.3385 1.03514C30.2057 1.96792 29.9623 3.40948 29.6304 5.33155C29.6525 5.41635 29.6746 5.47288 29.7189 5.47288C29.741 5.47288 29.7631 5.44462 29.8074 5.38808C29.8517 5.33155 29.8959 5.30329 29.9402 5.30329C29.9623 5.30329 29.9844 5.30329 29.9844 5.33155C30.7147 3.49427 31.7991 2.25058 33.2596 1.60046C33.4809 2.10925 33.5916 2.70283 33.5916 3.43774C33.5916 3.7204 33.5695 4.14439 33.5252 4.73797C33.4809 5.30329 33.4588 5.75554 33.4588 6.0382C33.4588 6.80138 33.5916 7.45149 33.835 7.96028C34.2997 7.96028 34.853 7.59282 35.4505 6.88618C35.9152 6.29259 36.3799 5.69901 36.8447 5.13369C36.2693 6.97097 35.5611 8.21467 34.6981 8.83652C34.521 8.94958 34.344 9.00611 34.1448 9.00611C33.835 9.00611 33.5695 8.89305 33.326 8.63866C33.1047 8.38427 32.972 8.10161 32.972 7.73415C32.9056 7.1971 32.8613 6.34912 32.8613 5.24676C32.8613 4.11612 32.817 3.26815 32.7285 2.70283C31.1794 4.05959 29.8517 6.32086 28.7673 9.45837C28.6345 9.4301 28.4354 9.3453 28.1698 9.14744C28.4132 8.356 28.7009 6.91444 29.0329 4.82277C29.3205 2.98549 29.6304 1.60046 29.9844 0.695953C30.0066 0.780751 30.073 0.837283 30.1615 0.837283C30.25 0.837283 30.3164 0.92208 30.3385 1.03514Z" fill="white"/>
<path d="M5.24475 23.2215C5.37753 25.3132 6.32911 26.783 8.0331 26.783C8.91829 26.783 9.892 26.3591 10.3346 25.4828H15.4466C14.3401 29.44 11.3304 31.2773 8.05523 31.2773C3.45224 31.2773 0 27.8006 0 21.6952C0 16.3529 3.0539 12 7.5905 12C13.3 12 15.7564 16.0703 15.7564 23.2215H5.24475ZM10.5116 19.5752C10.5116 17.8793 9.51579 16.4943 8.09949 16.4943C6.46189 16.4943 5.53244 17.5966 5.26688 19.5752H10.5116Z" fill="white"/>
<path d="M19 12.4523H24.289V14.7983H24.3554C25.3734 12.961 26.8561 12 29.0248 12C31.5918 12 33.9597 14.0069 33.9597 18.2185V30.7968H28.4715V21.1864C28.4715 19.0665 28.2724 17.5684 26.679 17.5684C25.7274 17.5684 24.4882 18.162 24.4882 21.1016V30.7968H19V12.4523Z" fill="white"/>
<path d="M52.5351 28.3942C52.5351 32.0405 51.7827 37.1566 45.0552 37.1566C41.6472 37.1566 38.0401 35.9977 37.5532 31.0512H42.975C43.0414 31.2208 43.1742 31.4752 43.2848 31.7013C43.6168 32.3514 44.1922 33.0581 44.9003 33.0581C46.6707 33.0581 47.069 30.3728 47.069 28.8464V27.1505H47.0026C46.1175 28.7899 44.7897 29.6944 43.1521 29.6944C38.9253 29.6944 37 25.6524 37 20.7624C37 15.9855 39.1245 12 43.2185 12C44.8339 12 46.3388 12.8197 46.9805 14.6853H47.0469V12.4523H52.5351V28.3942ZM44.9667 25.1719C46.9805 25.1719 47.2018 22.6845 47.2018 20.6494C47.2018 18.6425 46.4273 17.0313 44.8118 17.0313C43.2627 17.0313 42.4882 18.7273 42.4882 20.6776C42.4882 22.7693 42.9972 25.1719 44.9667 25.1719Z" fill="white"/>
<path d="M55 6H60.4882V31.2414H55V6Z" fill="white"/>
<path d="M69.4882 10.9183H64V6H69.4882V10.9183ZM64 12.8969H69.4882V31.2414H64V12.8969Z" fill="white"/>
<path d="M82.0953 17.7945C82.0732 17.2009 81.8076 16.7204 81.4536 16.4095C81.1216 16.042 80.679 15.8724 80.2364 15.8724C79.4619 15.8724 78.5767 16.0985 78.5767 17.2857C78.5767 17.8228 78.9086 18.0772 79.2185 18.2468C80.1258 18.7555 82.206 18.8969 84.0428 19.66C85.8795 20.395 87.4729 21.78 87.4729 24.7762C87.4729 29.864 83.6444 31.249 80.17 31.249C76.7842 31.249 73.0885 29.5248 73 24.7762H78.2226C78.2448 25.4263 78.4661 25.9351 78.8865 26.4156C79.1742 26.7265 79.6832 26.9526 80.3471 26.9526C81.0774 26.9526 82.206 26.5852 82.206 25.5393C82.206 24.4652 81.7413 24.1543 79.1963 23.589C75.0138 22.6562 73.3319 20.9603 73.3319 17.8228C73.3319 13.1872 77.2268 12 80.1037 12C83.2018 12 86.9417 13.1024 87.0745 17.7945H82.0953V17.7945Z" fill="white"/>
<path d="M91 5H96.4661V13.8755H96.5324C97.484 12.4622 98.7012 11.4446 101.025 11.4446C103.592 11.4446 105.96 13.4515 105.96 17.6631V30.2414H100.472V20.631C100.472 18.5111 100.272 17.013 98.679 17.013C97.7274 17.013 96.4882 17.6066 96.4882 20.5462V30.2414H91V5V5Z" fill="white"/>
</g>
<defs>
<clipPath id="clip0_235_150">
<rect width="117" height="37" fill="white"/>
</clipPath>
</defs>
</svg>
