<svg width="16" height="14" viewBox="0 0 16 14" fill="none" xmlns="http://www.w3.org/2000/svg">
<path fill-rule="evenodd" clip-rule="evenodd" d="M7.99962 12.2717C4.93358 10.5255 3.22354 8.7898 2.39663 7.28385C1.55029 5.74252 1.62413 4.44434 2.09377 3.52298C3.05908 1.62916 5.80415 1.02357 7.47666 3.13889L7.99958 3.80026L8.52254 3.13893C10.1953 1.02352 12.9406 1.6292 13.9058 3.52298C14.3755 4.44433 14.4493 5.7425 13.6029 7.28384C12.7759 8.78979 11.0658 10.5255 7.99962 12.2717ZM7.99964 1.7375C5.64684 -0.498237 2.17591 0.42579 0.905854 2.91747C0.208826 4.28495 0.199305 6.05236 1.2279 7.9256C2.24736 9.78222 4.27997 11.7419 7.67712 13.6196L7.99961 13.7979L8.3221 13.6196C11.7194 11.742 13.7521 9.78223 14.7716 7.92562C15.8003 6.05239 15.7908 4.28496 15.0938 2.91747C13.8237 0.425742 10.3527 -0.498204 7.99964 1.7375Z" fill="#FF3F3A"/>
</svg>
